<svg width="215" height="261" viewBox="0 0 215 261" fill="none" xmlns="http://www.w3.org/2000/svg">
<g clip-path="url(#clip0_103_1464)">
<path d="M110.773 261C159.74 261 199.436 246.527 199.436 228.674C199.436 210.821 159.74 196.348 110.773 196.348C61.8054 196.348 22.1094 210.821 22.1094 228.674C22.1094 246.527 61.8054 261 110.773 261Z" fill="#E3B28A"/>
<path d="M65.6196 214.942C65.6196 214.942 44.3403 217.637 43.3871 222.394C42.4339 227.15 55.4192 225.444 76.0035 223.771C102.7 221.601 127.031 221.358 139.886 225.596C150.049 228.947 157.389 236.558 150.526 243.957C144.08 250.905 125.388 249.382 114.266 248.449C105.598 247.722 101.865 248.657 98.9676 250.338C95.5538 252.32 92.5131 250.988 92.9329 247.405C93.3699 243.679 98.7702 241.839 105.518 241.459C116.078 240.864 129.49 244.543 137.927 243.004C148.355 241.102 148.796 234.527 137.503 231.219C116.038 224.93 79.1165 230.716 54.9784 231.906C31.7188 233.051 32.2296 224.414 35.7865 220.036C41.6883 212.769 59.5048 211.295 59.5048 211.295L65.6189 214.941L65.6196 214.942Z" fill="#E3B28A"/>
<g opacity="0.5">
<path d="M139.886 225.596C127.031 221.358 102.7 221.601 76.0036 223.771C55.4193 225.444 42.434 227.15 43.3871 222.394C43.4703 221.977 43.7129 221.576 44.0806 221.192C41.3665 223.581 39.1352 227.695 51.6983 227.785C63.3487 227.868 88.5403 224.455 106.962 224.191C124.316 223.942 148.808 225.313 153.18 238.531C153.611 233.075 147.553 228.124 139.886 225.596Z" fill="white"/>
</g>
<g opacity="0.5">
<path d="M35.0053 227.653C34.7946 218.493 48.9181 214.152 60.1813 212.524C60.5825 212.466 60.9424 212.407 61.2705 212.347L59.5065 211.295C59.5065 211.295 41.69 212.769 35.7882 220.036C34.0987 222.117 33.0989 225.157 35.0053 227.653Z" fill="white"/>
</g>
<g opacity="0.5">
<path d="M45.5079 220.104C45.5079 220.104 45.5071 220.104 45.5063 220.105C45.7505 219.96 46.0125 219.817 46.2885 219.678C46.0552 219.777 45.7963 219.915 45.5071 220.104H45.5079Z" fill="white"/>
</g>
<g opacity="0.5">
<path d="M146.518 239.985C146.74 238.713 146.408 237.641 145.722 236.738C146.52 239.364 143.819 241.93 137.927 243.005C129.491 244.544 116.079 240.865 105.519 241.459C98.7709 241.839 93.3706 243.679 92.9337 247.405C92.8264 248.323 92.9469 249.092 93.2408 249.696C97.8924 235.333 139.129 253.874 146.518 239.985Z" fill="white"/>
</g>
<path d="M152.659 240.709C143.725 251.346 116.186 245.71 108.337 245.753C100.392 245.798 96.0923 249.841 92.9109 247.662C92.6636 251.05 95.6375 252.271 98.9681 250.338C101.864 248.656 105.598 247.722 114.266 248.448C125.389 249.381 144.08 250.905 150.526 243.956C151.531 242.874 152.228 241.787 152.66 240.709H152.659Z" fill="#CD9364"/>
<path d="M44.708 214.487L49.3277 218.432C55.923 216.171 65.6196 214.942 65.6196 214.942L59.5056 211.295C59.5056 211.295 51.6982 211.942 44.708 214.487Z" fill="#CD9364"/>
<path d="M54.98 231.906C79.1181 230.717 116.039 224.93 137.505 231.219C146.847 233.956 148.15 238.926 142.421 241.639C143.563 241.528 144.453 241.356 144.95 241.102C148.054 239.516 153.213 233.192 137.16 228.26C118.199 222.434 78.0063 228.577 60.7465 229.131C43.4867 229.686 33.2241 228.814 35.2206 220.816L35.2183 220.818C32.2514 225.361 33.0375 232.987 54.9808 231.906L54.98 231.906Z" fill="#CD9364"/>
<path d="M95.9425 252.498C95.0359 252.498 94.1986 252.27 93.4957 251.81C92.1196 250.909 91.465 249.251 91.6982 247.26C92.1756 243.192 97.0589 240.692 105.449 240.219C110.406 239.939 115.923 240.576 121.258 241.191C127.463 241.906 133.325 242.581 137.704 241.783C142.696 240.873 144.547 239.027 144.615 237.723C144.69 236.303 142.78 234.06 137.154 232.411C121.193 227.735 96.545 229.831 74.7984 231.68C67.7032 232.283 61.0006 232.853 55.0413 233.147C42.9104 233.744 35.6224 231.814 33.3857 227.41C32.1355 224.949 32.6727 221.9 34.8224 219.254C40.9878 211.662 58.655 210.119 59.4037 210.057C60.0855 210.001 60.6889 210.508 60.7464 211.192C60.8031 211.876 60.2947 212.476 59.6097 212.533C59.4371 212.547 42.2519 214.049 36.7552 220.818C36.1884 221.516 34.4298 223.973 35.6053 226.286C36.5919 228.228 40.4109 231.38 54.92 230.665C60.835 230.374 67.5158 229.806 74.5885 229.204C96.552 227.337 121.447 225.219 137.856 230.027C143.899 231.798 147.269 234.65 147.101 237.853C146.941 240.894 143.68 243.217 138.153 244.226C133.41 245.091 127.369 244.396 120.975 243.658C115.743 243.054 110.333 242.43 105.591 242.698C98.7507 243.083 94.4816 244.896 94.1714 247.548C94.1006 248.149 94.0967 249.231 94.8618 249.732C95.6369 250.24 96.9718 250.06 98.3448 249.263C101.414 247.481 105.315 246.45 114.372 247.21C124.567 248.065 143.545 249.656 149.616 243.111C151.621 240.949 152.345 238.721 151.768 236.488C150.781 232.665 146.08 228.943 139.499 226.774C128.326 223.091 106.998 222.496 76.1069 225.006C73.7597 225.197 71.5112 225.388 69.3709 225.571C52.7027 226.988 45.2327 227.503 42.8459 224.836C42.3926 224.33 41.9075 223.452 42.1687 222.148C42.4922 220.535 44.1295 218.11 54.5787 215.673C60.0171 214.405 65.4104 213.715 65.4641 213.709C66.1459 213.619 66.7679 214.104 66.855 214.784C66.9413 215.464 66.4592 216.086 65.7774 216.173C65.7245 216.18 60.4432 216.856 55.1284 218.097C45.3292 220.384 44.6528 222.412 44.6084 222.637C44.5361 222.998 44.6357 223.109 44.701 223.182C46.3601 225.036 56.9259 224.138 69.1594 223.097C71.3029 222.915 73.5536 222.724 75.9047 222.532C107.129 219.994 128.788 220.628 140.278 224.416C147.766 226.884 152.961 231.166 154.176 235.867C154.727 238.002 154.7 241.284 151.44 244.799C144.545 252.232 125.527 250.637 114.163 249.684C105.755 248.979 102.257 249.864 99.5942 251.41C98.3511 252.131 97.0908 252.496 95.9432 252.496L95.9425 252.498Z" fill="#2C221E"/>
<path d="M145.18 193.934C147.879 202.813 156.097 210.032 166.936 211.85C176.384 213.436 184.349 212.698 188.096 212.762C192.741 212.841 194.687 217.677 188.744 218.958C186.306 219.484 169.079 220.966 158.638 216.567C150.626 213.19 143.38 206.221 140.786 198.611L145.18 193.933V193.934Z" fill="#E3B28A"/>
<g opacity="0.5">
<path d="M192.445 215.851C192.403 214.304 190.664 212.806 188.096 212.762C184.35 212.698 176.384 213.435 166.936 211.85C156.85 210.158 149.037 203.789 145.824 195.759L144.75 197.292C144.75 197.292 147.562 209.831 165.07 213.674C179.431 216.825 187.79 212.941 192.445 215.851Z" fill="white"/>
</g>
<path d="M165.507 215.735C148.172 212.249 143.751 198.057 143.751 198.057L141.96 197.362L140.787 198.611C143.381 206.221 150.627 213.19 158.639 216.567C169.081 220.966 186.308 219.484 188.745 218.958C191.512 218.361 192.567 216.994 192.438 215.696C185.702 216.903 175.816 217.807 165.507 215.734V215.735Z" fill="#CD9364"/>
<path d="M178.51 220.874C172.073 220.874 164.061 220.2 158.155 217.712C149.52 214.073 142.24 206.733 139.609 199.011C139.388 198.363 139.736 197.657 140.386 197.436C141.037 197.215 141.743 197.562 141.964 198.211C144.377 205.291 151.113 212.047 159.122 215.422C169.008 219.588 185.805 218.322 188.482 217.744C190.212 217.371 191.279 216.615 191.201 215.82C191.117 214.971 189.898 214.035 188.074 214.003C187.246 213.99 186.18 214.017 184.946 214.047C180.646 214.156 174.146 214.319 166.73 213.074C155.828 211.246 146.903 203.874 143.989 194.294C143.79 193.638 144.161 192.945 144.818 192.745C145.476 192.545 146.17 192.917 146.37 193.572C149.01 202.257 157.164 208.95 167.142 210.625C174.322 211.829 180.678 211.669 184.883 211.564C186.146 211.532 187.237 211.505 188.117 211.52C191.064 211.57 193.454 213.314 193.676 215.577C193.843 217.275 192.704 219.374 189.007 220.172C187.716 220.451 183.607 220.873 178.509 220.873L178.51 220.874Z" fill="#2C221E"/>
<path d="M157.389 96.824C166.38 116.226 182.736 116.801 196.42 110.354C208.635 104.598 216.712 113.858 212.723 127.899C207.747 145.419 170.032 158.896 153.332 127.899L157.389 96.824Z" fill="white"/>
<path d="M210.445 127.101C210.653 126.414 210.824 125.741 210.962 125.081C206.891 130.735 199.594 135.796 186.574 134.392C159.397 131.461 153.332 103.717 153.332 103.717L151.896 103.624C148.41 107.881 149.385 115.591 155.27 127.101C170.785 154.148 205.823 142.388 210.445 127.101Z" fill="#B8C8E0"/>
<path d="M186.23 137.322C186.23 137.322 187.204 122.252 181.362 114.035C178.787 114.037 176.241 113.679 173.781 112.889C180.887 119.628 177.973 136.223 177.973 136.223L186.23 137.323V137.322Z" fill="#B8C8E0"/>
<path d="M158.69 124.247L161.219 130.594C161.219 130.594 171.091 120.992 169.674 111.106C168.263 110.322 166.896 109.367 165.585 108.227L158.69 124.247Z" fill="#B8C8E0"/>
<path d="M196.42 110.353C191.673 112.59 186.606 113.98 181.635 114.034C191.272 128.249 187.4 141.728 185.601 146.294C198.479 145.173 210.112 137.095 212.723 127.899C216.711 113.858 208.635 104.598 196.42 110.353Z" fill="#EEA74A"/>
<path d="M210.446 127.101C210.654 126.412 210.824 125.738 210.963 125.078C207.033 130.538 200.095 135.446 187.9 134.514C187.835 137.862 187.293 140.765 186.685 143.006C198.068 141.607 208.117 134.803 210.446 127.101H210.446Z" fill="#E49B76"/>
<path d="M183.364 113.961L183.542 114.185C195.56 112.889 193.834 138.364 193.834 138.364L203.461 134.717C203.461 134.717 199.971 119.201 192.691 111.905C189.632 113.012 186.488 113.737 183.364 113.961Z" fill="#E49B76"/>
<g opacity="0.5">
<path d="M213.667 119.21C212.837 110.433 205.867 105.902 196.42 110.354C182.99 116.682 166.986 116.244 157.897 97.8804L157.101 99.0331L157.051 99.4134C160.181 109.788 173.053 118.798 185.304 117.066C195.976 115.557 208.255 106.226 213.667 119.211V119.21Z" fill="white"/>
</g>
<path d="M182.509 147.678C169.778 147.678 158.892 140.841 152.236 128.488C151.911 127.884 152.138 127.13 152.742 126.806C153.347 126.481 154.102 126.707 154.427 127.311C161.265 140.001 172.857 146.446 186.235 144.989C198.203 143.686 209.076 136.193 211.527 127.561C213.447 120.802 212.462 114.759 208.955 111.792C206.033 109.319 201.769 109.207 196.952 111.478C190.85 114.353 181.665 117.086 172.556 113.784C165.636 111.276 160.153 105.745 156.261 97.3463C155.973 96.7238 156.245 95.9856 156.868 95.6976C157.491 95.4097 158.231 95.6806 158.519 96.3031C162.123 104.079 167.13 109.175 173.405 111.45C181.707 114.459 190.216 111.904 195.89 109.231C201.559 106.56 206.907 106.802 210.564 109.897C214.889 113.556 216.144 120.413 213.922 128.239C211.209 137.789 199.423 146.052 186.505 147.458C185.155 147.605 183.822 147.678 182.509 147.678Z" fill="#2C221E"/>
<path d="M183.054 113.984C186.938 113.822 188.526 112.883 190.876 113.749C193.62 114.76 197.638 119.972 198.062 136.196C198.485 152.428 195.958 166.228 196.831 173.839C197.531 179.937 203.818 180.3 203.778 172.847C203.739 165.396 205.336 144.377 204.213 129.749C202.297 104.804 185.464 104.247 183.055 113.984H183.054Z" fill="#E3B28A"/>
<path d="M196.83 173.839C197.411 178.902 201.841 180.007 203.307 175.972C200.015 177.24 199.067 174.002 199.781 161.274C200.788 143.351 202.084 120.976 194.887 113.218C191.498 109.563 186.716 110.982 183.503 112.645C183.322 113.066 183.171 113.514 183.054 113.985C186.938 113.823 188.526 112.884 190.876 113.75C193.62 114.761 197.638 119.973 198.062 136.197C198.485 152.429 195.958 166.229 196.831 173.839L196.83 173.839Z" fill="#CD9364"/>
<g opacity="0.5">
<path d="M201.232 178.301C202.623 177.839 203.796 176.079 203.779 172.847C203.739 165.396 205.337 144.377 204.213 129.749C202.297 104.804 185.464 104.247 183.055 113.984C186.631 109.833 189.794 107.697 195.362 112.203C205.645 120.527 201.926 152.527 201.767 166.11C201.69 172.676 201.428 176.384 201.232 178.301Z" fill="white"/>
</g>
<path d="M200.474 179.67C198.339 179.67 196.028 177.759 195.594 173.98C195.157 170.173 195.545 164.871 195.995 158.732C196.482 152.073 197.034 144.525 196.818 136.229C196.342 118.002 191.425 115.276 190.445 114.914C189.258 114.477 188.311 114.616 186.741 114.847C185.787 114.988 184.6 115.162 183.107 115.225L181.45 115.294L181.848 113.686C182.942 109.262 186.663 106.539 191.106 106.906C196.956 107.39 204.223 113.639 205.453 129.654C206.237 139.853 205.709 153.085 205.323 162.747C205.156 166.948 205.011 170.576 205.023 172.841C205.049 177.684 202.703 179.543 200.687 179.663C200.617 179.667 200.546 179.67 200.475 179.67H200.474ZM188.833 112.147C189.622 112.147 190.424 112.259 191.306 112.584C193.547 113.41 198.814 117.361 199.305 136.164C199.525 144.583 198.968 152.196 198.476 158.913C198.036 164.927 197.656 170.12 198.067 173.697C198.336 176.042 199.543 177.244 200.537 177.183C201.509 177.125 202.549 175.746 202.534 172.854C202.521 170.533 202.668 166.88 202.836 162.649C203.22 153.048 203.744 139.9 202.972 129.845C201.861 115.387 195.774 109.785 190.899 109.382C188.324 109.167 186.091 110.416 184.912 112.59C185.442 112.528 185.924 112.456 186.377 112.39C187.231 112.264 188.026 112.147 188.833 112.147V112.147Z" fill="#2C221E"/>
<path d="M173.782 112.889C173.782 112.889 175.723 113.762 176.65 114.343C177.576 114.925 183.968 119.377 183.542 135.245C183.146 149.991 177.362 149.497 176.179 145.813C173.718 145.32 171.158 144.377 171.158 144.377C171.158 144.377 171.389 155.109 178.634 155.137C185.952 155.165 190.385 144.389 189.644 131.388C188.562 112.4 177.734 105.386 173.782 112.89V112.889Z" fill="#E3B28A"/>
<path d="M186.433 149.61C184.754 149.509 183.055 149.106 183.055 149.106C183.055 149.106 186.685 142.407 185.542 129.406C184.396 116.35 178.02 112.024 174.302 112.043C174.118 112.302 173.943 112.583 173.782 112.89C173.782 112.89 175.723 113.763 176.65 114.344C177.576 114.926 183.968 119.378 183.542 135.246C183.146 149.991 177.362 149.498 176.179 145.814C173.718 145.321 171.158 144.378 171.158 144.378C171.158 144.378 171.389 155.11 178.634 155.138C181.86 155.15 184.523 153.062 186.432 149.611L186.433 149.61Z" fill="#CD9364"/>
<g opacity="0.5">
<path d="M186.432 149.61C188.854 145.231 190.059 138.658 189.645 131.387C188.563 112.399 177.735 105.385 173.782 112.889C173.782 112.889 174.237 113.094 174.811 113.371C181.579 106.513 192.201 126.228 186.432 149.61Z" fill="white"/>
</g>
<path d="M178.662 156.378H178.63C171.939 156.353 170.003 148.534 169.914 144.403L169.875 142.581L171.589 143.211C171.614 143.22 174.092 144.128 176.424 144.595L177.14 144.739L177.363 145.433C177.637 146.283 178.22 146.822 178.785 146.741C179.898 146.583 182.064 143.97 182.299 135.212C182.705 120.055 176.677 115.827 175.988 115.395C175.289 114.957 173.79 114.256 173.271 114.022L172.066 113.48L172.681 112.312C174.159 109.505 176.589 108.238 179.344 108.834C184.348 109.918 190.094 117.416 190.887 131.317C191.43 140.836 189.331 149.07 185.272 153.343C183.385 155.33 181.1 156.378 178.663 156.379L178.662 156.378ZM172.582 146.16C172.994 148.923 174.333 153.878 178.64 153.894C178.648 153.894 178.655 153.894 178.663 153.894C180.426 153.894 182.041 153.134 183.466 151.633C187.009 147.904 188.9 140.174 188.403 131.458C187.724 119.541 182.957 112.158 178.816 111.261C177.365 110.946 176.328 111.554 175.614 112.379C176.2 112.666 176.858 113.006 177.313 113.292C178.637 114.122 185.22 119.088 184.787 135.278C184.468 147.163 180.73 148.974 179.137 149.2C177.562 149.424 176.058 148.495 175.275 146.889C174.303 146.668 173.358 146.399 172.583 146.16H172.582Z" fill="#2C221E"/>
<path d="M83.4061 32.929C133.111 21.5139 150.421 50.5276 150.421 50.5276C174.718 52.9851 184.669 95.5556 147.087 108.551C93.7278 97.5186 31.4696 90.9774 83.4061 32.9282V32.929Z" fill="white"/>
<path d="M171.838 80.8803C165.309 92.5462 159.286 79.0709 157.21 69.41C154.947 58.8813 152.723 70.822 152.723 70.822C152.723 70.822 154.584 40.7301 117.885 31.3285C115.103 30.8363 112.112 30.5002 108.913 30.3535L109.863 30.9986C160.779 43.141 151.18 94.2329 147.455 108.417C163.375 102.781 170.641 91.7932 171.838 80.8803Z" fill="#B8C8E0"/>
<path d="M135.76 67.2079C135.123 67.5393 134.699 67.7365 134.699 67.7365C134.699 67.7365 135.769 68.2667 135.76 67.2079Z" fill="#B8C8E0"/>
<path d="M85.469 32.4764L88.0533 37.289C113.238 35.9415 131.57 55.6809 134.461 63.7668C135.435 65.6026 135.754 66.6365 135.759 67.2086C137.961 66.0629 142.727 63.2949 141.474 61.3885C139.884 58.9682 126.334 39.176 100.014 30.4451C95.5194 30.7299 90.6781 31.3773 85.4683 32.4772L85.469 32.4764Z" fill="#B8C8E0"/>
<path d="M90.1151 81.6394C90.1151 81.6394 118.368 70.8592 112.414 56.9733C108.125 46.9716 94.6244 37.5801 85.6944 32.4268C84.9395 32.5843 84.1768 32.7512 83.4063 32.9282C73.108 44.4388 67.3034 53.922 65.0254 61.8185L90.1159 81.6386L90.1151 81.6394Z" fill="#B8C8E0"/>
<path d="M147.17 109.837L146.835 109.767C142.688 108.91 138.418 108.066 134.287 107.25C118.563 104.142 102.303 100.929 89.5443 96.3124C74.7677 90.9657 66.5576 84.5184 63.7082 76.0226C59.9421 64.7945 66.0818 50.4274 82.4779 32.1008L82.7414 31.8066L83.1271 31.7181C109.189 25.7334 126.349 30.9395 136.156 36.3607C145.345 41.4403 149.917 47.5352 151.148 49.3601C156.804 50.082 161.894 52.864 165.9 57.4321C169.789 61.8666 172.33 67.7147 173.054 73.8997C174.52 86.4388 168.576 102.434 147.495 109.725L147.171 109.837L147.17 109.837ZM84.0701 34.0514C68.5192 51.5095 62.6291 64.9839 66.0678 75.234C71.8156 92.3707 103.82 98.6961 134.771 104.814C138.794 105.608 142.951 106.43 147.001 107.266C166.427 100.408 171.928 85.7053 170.582 74.1884C169.162 62.0498 160.82 52.8283 150.295 51.7633L149.672 51.7004L149.352 51.1633C149.311 51.0942 144.996 44.0453 134.812 38.458C125.448 33.3194 109.054 28.402 84.0701 34.0514Z" fill="#2C221E"/>
<path d="M91.7167 221.601C132.47 221.601 165.507 189.643 165.507 150.22C165.507 110.798 132.47 78.8396 91.7167 78.8396C50.9634 78.8396 17.9263 110.798 17.9263 150.22C17.9263 189.643 50.9634 221.601 91.7167 221.601Z" fill="#E3B28A"/>
<path d="M27.6126 152.6C31.6632 131.99 138.965 132.126 147.959 153.901C152.723 165.436 101.906 186.163 78.7009 184.869C60.1326 183.835 24.6986 167.429 27.6126 152.6V152.6Z" fill="#E9A064"/>
<path d="M89.1316 196.725C64.4058 196.725 42.0411 186.948 25.9404 171.175C35.0337 197.902 61.044 217.198 91.7175 217.198C125.448 217.198 153.54 193.863 159.696 162.972C143.469 183.489 117.9 196.725 89.1316 196.725Z" fill="#CD9364"/>
<path d="M152.665 109.976C139.375 91.1776 117.037 78.8403 91.7166 78.8403C60.2081 78.8403 33.3169 97.9463 22.7363 124.833C22.7363 124.833 23.6405 136.015 32.9982 134.392C42.3558 132.77 47.5959 119.893 47.5959 119.893L80.364 116.012C80.364 116.012 84.9145 128.138 96.5462 127.583C108.179 127.028 112.833 108.662 112.833 108.662C112.833 108.662 141.368 127.424 152.664 109.977L152.665 109.976Z" fill="#CD9364"/>
<path d="M96.0167 196.997C95.7648 196.997 95.5098 196.92 95.2897 196.761C84.0708 188.679 75.6532 177.593 70.2715 163.814C65.6261 151.92 63.4912 138.451 64.0961 124.865C64.5641 114.35 66.6493 104.384 70.1246 96.047C73.6706 87.5419 78.4202 81.3391 83.8617 78.1108C84.4526 77.7599 85.2153 77.954 85.5667 78.5439C85.9173 79.1339 85.7237 79.8953 85.1329 80.2462C74.9589 86.2829 67.5037 104.259 66.5809 124.975C65.2833 154.121 76.5589 180.204 96.7444 194.747C97.3018 195.148 97.427 195.925 97.025 196.481C96.7825 196.817 96.4015 196.997 96.0151 196.997H96.0167Z" fill="#946A48"/>
<path d="M64.5927 202.103C64.2685 202.103 63.9451 201.978 63.7018 201.728C43.5847 181.11 41.2679 151.755 41.6768 136.092C42.3003 112.258 49.1911 93.1408 55.6752 86.5732C56.158 86.0849 56.9455 86.0795 57.4338 86.5608C57.9228 87.042 57.929 87.8283 57.4462 88.3173C51.4543 94.3851 44.7634 113.214 44.1639 136.157C43.7643 151.429 46.0034 180.031 65.4829 199.994C65.9626 200.486 65.9525 201.272 65.4604 201.75C65.2186 201.985 64.9053 202.103 64.592 202.103L64.5927 202.103Z" fill="#946A48"/>
<path d="M61.4302 202.119C53.4549 202.119 45.1049 201.263 36.5822 199.188C35.9144 199.026 35.5054 198.353 35.6679 197.687C35.8312 197.021 36.5037 196.612 37.1716 196.774C64.771 203.494 90.5666 197.113 107.347 190.578C125.551 183.488 137.328 174.717 137.445 174.63L138.624 173.744L139.299 175.054C139.551 175.543 145.479 187.18 146.192 199.579C146.231 200.264 145.707 200.85 145.021 200.89C144.326 200.925 143.747 200.406 143.708 199.721C143.159 190.184 139.251 180.846 137.709 177.492C134.193 179.931 123.381 186.999 108.251 192.892C96.3044 197.544 79.8687 202.118 61.431 202.118L61.4302 202.119Z" fill="#946A48"/>
<path d="M91.7159 222.843C91.1841 222.843 90.6927 222.501 90.5279 221.967C90.325 221.312 90.6935 220.616 91.3497 220.414C115.321 213.035 136.895 175.39 137.11 175.011C137.449 174.414 138.209 174.204 138.806 174.542C139.404 174.88 139.614 175.638 139.275 176.235C139.22 176.332 133.688 186.037 125.192 196.539C113.715 210.726 102.576 219.558 92.0829 222.788C91.9608 222.825 91.8372 222.843 91.7159 222.843Z" fill="#946A48"/>
<path d="M57.6308 209.566C54.5831 209.566 51.4678 209.46 48.2817 209.232C47.5968 209.183 47.0805 208.589 47.1303 207.905C47.1785 207.221 47.767 206.708 48.4597 206.754C75.0974 208.658 97.0438 201.893 110.765 195.883C125.657 189.36 134.352 182.291 134.438 182.22L135.931 180.995L136.43 182.859C136.46 182.972 139.434 194.201 140.123 205.038C140.166 205.723 139.646 206.313 138.96 206.356C138.279 206.399 137.683 205.88 137.639 205.196C137.129 197.166 135.33 188.896 134.479 185.324C131.343 187.645 123.539 192.99 111.85 198.12C99.4952 203.542 80.5941 209.565 57.6308 209.565V209.566Z" fill="#946A48"/>
<path d="M132.322 211.073C131.635 211.073 131.078 210.517 131.078 209.831C131.08 196.155 128.772 188.713 128.748 188.639C128.541 187.985 128.903 187.287 129.558 187.08C130.211 186.872 130.911 187.233 131.119 187.887C131.219 188.2 133.567 195.723 133.565 209.832C133.565 210.518 133.007 211.074 132.321 211.074L132.322 211.073Z" fill="#946A48"/>
<path d="M125.723 214.827C125.69 214.827 125.658 214.826 125.625 214.823C124.94 214.77 124.428 214.173 124.481 213.489C125.108 205.433 124.486 194.061 124.48 193.947C124.442 193.262 124.967 192.676 125.653 192.637C126.339 192.597 126.926 193.123 126.965 193.808C126.971 193.923 127.602 205.458 126.963 213.681C126.913 214.332 126.368 214.826 125.725 214.826L125.723 214.827Z" fill="#946A48"/>
<path d="M118.541 217.98C118.431 217.98 118.321 217.965 118.21 217.935C117.548 217.754 117.158 217.07 117.341 216.408C118.663 211.612 118.216 201.516 118.212 201.415C118.18 200.729 118.711 200.149 119.397 200.117C120.077 200.085 120.665 200.615 120.697 201.301C120.717 201.731 121.166 211.891 119.739 217.067C119.588 217.618 119.087 217.98 118.541 217.98Z" fill="#946A48"/>
<path d="M62.6696 216.31C61.4521 216.31 60.7633 216.272 60.6746 216.268C59.9889 216.227 59.4657 215.641 59.5061 214.956C59.5458 214.271 60.1265 213.75 60.8192 213.789C61.11 213.805 90.0272 215.232 122.334 196.223C122.927 195.874 123.689 196.071 124.038 196.662C124.387 197.253 124.189 198.014 123.598 198.363C106.365 208.502 90.2029 212.83 79.6783 214.676C71.5996 216.092 65.6015 216.311 62.6696 216.311V216.31Z" fill="#946A48"/>
<path d="M76.579 201.142C76.3022 201.142 76.0231 201.05 75.7914 200.861C60.4745 188.339 51.2514 169.969 49.1196 147.737C46.6083 121.543 54.6995 93.7509 63.6357 83.0235C64.075 82.4964 64.8594 82.4243 65.3873 82.8628C65.916 83.3014 65.9875 84.0846 65.5483 84.6117C58.3217 93.2867 48.8894 119.273 51.5958 147.501C53.6631 169.059 62.5745 186.846 77.3674 198.939C77.8992 199.374 77.9769 200.157 77.5415 200.687C77.2958 200.987 76.939 201.142 76.5782 201.142H76.579Z" fill="#946A48"/>
<path d="M86.4335 199.432C86.1583 199.432 85.8815 199.341 85.6506 199.154C63.6731 181.355 57.7402 157.16 56.6331 139.998C55.8595 128.008 57.1765 115.658 60.4411 104.282C63.4321 93.8612 67.7742 85.2948 72.6684 80.16C73.1411 79.6632 73.9295 79.6431 74.427 80.1166C74.9246 80.5893 74.9441 81.3756 74.4706 81.8724C65.801 90.9682 57.4727 114.374 59.1155 139.838C60.1908 156.506 65.9386 179.992 87.2172 197.226C87.7513 197.658 87.833 198.44 87.3999 198.973C87.1542 199.276 86.795 199.432 86.4327 199.432L86.4335 199.432Z" fill="#946A48"/>
<path d="M48.9441 176.864C48.7233 176.864 48.5002 176.805 48.2973 176.683C34.0509 168.009 27.0661 155.687 23.716 146.877C20.0868 137.335 19.8263 129.925 19.817 129.615C19.796 128.929 20.3363 128.357 21.0229 128.336C21.7 128.315 22.2824 128.854 22.3033 129.539C22.3057 129.612 22.5724 136.914 26.0756 146.083C29.292 154.501 35.9829 166.276 49.5933 174.562C50.1795 174.919 50.3654 175.684 50.0077 176.269C49.7729 176.652 49.364 176.864 48.9441 176.864Z" fill="#946A48"/>
<path d="M42.8869 141.937C42.5075 141.937 42.1336 141.765 41.8887 141.438C31.2459 127.207 31.123 108.585 31.123 107.799C31.123 107.114 31.6797 106.558 32.367 106.557C33.0535 106.557 33.6102 107.113 33.611 107.798C33.611 107.983 33.7439 126.397 43.8821 139.953C44.2926 140.502 44.1799 141.281 43.6294 141.69C43.4055 141.857 43.1443 141.937 42.8862 141.937H42.8869Z" fill="#946A48"/>
<path d="M45.7554 166.294C45.4701 166.294 45.1824 166.196 44.9484 165.996C28.3906 151.875 22.5798 124.237 22.3404 123.067C22.2028 122.395 22.6374 121.74 23.3107 121.603C23.9863 121.465 24.6409 121.899 24.7785 122.571C24.8361 122.849 30.664 150.548 46.564 164.108C47.0865 164.553 47.1479 165.337 46.7024 165.859C46.4559 166.146 46.1069 166.294 45.7554 166.294V166.294Z" fill="#946A48"/>
<path d="M43.606 153.842C43.2414 153.842 42.8799 153.682 42.6342 153.376C27.9976 135.137 26.4294 115.754 26.3695 114.937C26.3198 114.253 26.8345 113.659 27.5194 113.608C28.2036 113.558 28.7999 114.072 28.8512 114.756C28.866 114.948 30.4443 134.212 44.5763 151.822C45.0063 152.357 44.9192 153.139 44.3835 153.568C44.1542 153.751 43.8797 153.84 43.606 153.84V153.842Z" fill="#946A48"/>
<path d="M24.0665 147.036C21.2995 147.036 17.9867 146.272 17.8367 146.236C17.168 146.08 16.7521 145.412 16.9084 144.745C17.0646 144.077 17.734 143.661 18.4019 143.817C18.4376 143.826 22.0622 144.657 24.575 144.54C25.2475 144.508 25.8438 145.036 25.8765 145.721C25.9091 146.407 25.3789 146.988 24.6932 147.021C24.4887 147.03 24.2788 147.035 24.0658 147.035L24.0665 147.036Z" fill="#946A48"/>
<path d="M27.614 153.842C27.5876 153.842 27.5611 153.841 27.5339 153.839C21.0156 153.427 17.5683 151.93 17.4245 151.866C16.7963 151.588 16.5133 150.855 16.7916 150.227C17.0692 149.601 17.8016 149.318 18.4305 149.594C18.4935 149.621 21.6959 150.981 27.691 151.361C28.3767 151.404 28.8976 151.994 28.8541 152.679C28.8121 153.337 28.2648 153.842 27.614 153.842V153.842Z" fill="#946A48"/>
<path d="M21.378 173.095C20.9379 173.095 20.5111 172.861 20.2849 172.448C19.956 171.845 20.1783 171.092 20.7809 170.762C20.8641 170.717 29.1682 166.144 31.8824 160.673C32.1879 160.058 32.9335 159.807 33.5493 160.112C34.165 160.416 34.4169 161.161 34.1114 161.776C31.0466 167.953 22.3405 172.743 21.9712 172.943C21.7823 173.046 21.5786 173.095 21.3772 173.095H21.378Z" fill="#946A48"/>
<path d="M33.6606 195.526C33.1708 195.526 32.7067 195.236 32.51 194.756C32.2495 194.121 32.552 193.396 33.1864 193.136C33.2983 193.089 42.8083 189.042 48.7816 177.471C49.0965 176.862 49.8476 176.622 50.4571 176.937C51.0682 177.251 51.3076 178 50.9928 178.609C44.5748 191.041 34.5563 195.259 34.1326 195.433C33.9778 195.497 33.8185 195.526 33.6606 195.526Z" fill="#946A48"/>
<path d="M23.7414 179.282C23.3045 179.282 22.8816 179.052 22.6538 178.645C22.3195 178.046 22.534 177.29 23.1342 176.955C23.2408 176.895 30.9012 172.554 35.8412 165.151C36.2214 164.581 36.9934 164.425 37.5664 164.806C38.1379 165.187 38.2926 165.958 37.9116 166.529C32.6178 174.461 24.6814 178.938 24.3463 179.125C24.1543 179.231 23.9467 179.282 23.7414 179.282Z" fill="#946A48"/>
<path d="M27.1886 186.111C26.8139 186.111 26.4438 185.943 26.1989 185.623C25.7822 185.078 25.8871 184.298 26.4329 183.882C26.5394 183.801 37.1465 175.663 39.6593 169.211C39.908 168.571 40.6288 168.254 41.2694 168.504C41.91 168.752 42.2272 169.472 41.9784 170.111C39.2122 177.215 28.4015 185.508 27.9428 185.857C27.7173 186.028 27.4522 186.111 27.1894 186.111H27.1886Z" fill="#946A48"/>
<path d="M30.3106 191.055C29.9149 191.055 29.5254 190.867 29.2844 190.516C28.8956 189.951 29.0395 189.178 29.6063 188.789C29.7174 188.713 40.7754 181.058 43.7679 172.545C43.9949 171.898 44.7055 171.557 45.3539 171.784C46.0023 172.011 46.3429 172.72 46.1158 173.367C42.8512 182.653 31.4955 190.508 31.0135 190.838C30.7989 190.985 30.554 191.056 30.3114 191.056L30.3106 191.055Z" fill="#946A48"/>
<path d="M34.6596 124.35C34.1628 124.35 33.6932 124.051 33.5012 123.562C33.2501 122.924 33.5634 122.204 34.2025 121.953C34.3813 121.882 38.6605 120.233 44.172 120.396C44.8585 120.417 45.398 120.989 45.377 121.675C45.356 122.36 44.7706 122.901 44.0958 122.879C39.1145 122.727 35.1517 124.249 35.1129 124.264C34.9644 124.323 34.8104 124.35 34.6596 124.35Z" fill="#946A48"/>
<path d="M36.6353 130.427C36.1579 130.427 35.7023 130.151 35.4971 129.687C35.2195 129.06 35.5033 128.326 36.1315 128.049C36.2442 127.999 38.9568 126.83 43.4459 127.129C44.1317 127.175 44.6502 127.767 44.6036 128.452C44.5577 129.137 43.9599 129.653 43.2796 129.608C39.4505 129.351 37.1601 130.311 37.1376 130.32C36.9743 130.393 36.8032 130.427 36.6353 130.427Z" fill="#946A48"/>
<path d="M88.7154 188.677C87.3206 188.677 86.5011 188.618 86.3355 188.605C85.6506 188.55 85.1398 187.952 85.195 187.268C85.2494 186.584 85.8489 186.075 86.5338 186.129C86.8184 186.151 109.638 187.69 138.257 171.112C138.851 170.768 139.612 170.97 139.958 171.563C140.303 172.156 140.101 172.916 139.506 173.26C115.208 187.335 95.3861 188.676 88.7154 188.676V188.677Z" fill="#946A48"/>
<path d="M163.625 135.377H154.496C153.809 135.377 153.252 134.821 153.252 134.136C153.252 133.45 153.809 132.894 154.496 132.894H163.625C164.313 132.894 164.869 133.45 164.869 134.136C164.869 134.821 164.313 135.377 163.625 135.377Z" fill="#946A48"/>
<path d="M152.722 141.169C152.063 141.169 151.513 140.652 151.481 139.987C151.447 139.301 151.977 138.719 152.663 138.686L164.596 138.108C165.277 138.077 165.866 138.603 165.899 139.289C165.933 139.974 165.403 140.556 164.718 140.59L152.784 141.167C152.764 141.168 152.743 141.169 152.723 141.169H152.722Z" fill="#946A48"/>
<path d="M151.135 148.167C150.47 148.167 149.919 147.643 149.892 146.973C149.865 146.288 150.4 145.711 151.087 145.684L165.353 145.131C166.023 145.104 166.617 145.638 166.644 146.324C166.671 147.009 166.137 147.586 165.449 147.613L151.183 148.167C151.167 148.167 151.151 148.167 151.135 148.167Z" fill="#946A48"/>
<path d="M147.958 155.143C147.294 155.143 146.743 154.62 146.715 153.952C146.687 153.266 147.221 152.688 147.907 152.66L165.392 151.948C166.085 151.914 166.658 152.452 166.686 153.137C166.713 153.823 166.18 154.401 165.494 154.429L148.009 155.142C147.992 155.142 147.975 155.142 147.958 155.142V155.143Z" fill="#946A48"/>
<path d="M161.111 167.142C152.052 167.142 143.71 165.345 143.326 165.261C142.655 165.115 142.23 164.453 142.377 163.783C142.523 163.112 143.184 162.688 143.858 162.835C143.957 162.857 153.987 165.014 163.679 164.606C164.378 164.578 164.945 165.108 164.975 165.794C165.003 166.479 164.471 167.058 163.784 167.087C162.892 167.125 161.997 167.142 161.111 167.142Z" fill="#946A48"/>
<path d="M160.092 173.926C148.325 173.926 141.429 171.106 141.127 170.981C140.494 170.716 140.194 169.989 140.459 169.356C140.724 168.724 141.451 168.425 142.085 168.688C142.158 168.719 149.515 171.702 161.754 171.423C161.764 171.423 161.774 171.423 161.784 171.423C162.458 171.423 163.011 171.96 163.027 172.636C163.043 173.322 162.499 173.891 161.813 173.906C161.229 173.919 160.654 173.926 160.092 173.926Z" fill="#946A48"/>
<path d="M156.805 179.538C147.608 179.538 138.248 176.574 137.813 176.434C137.159 176.225 136.799 175.525 137.009 174.873C137.219 174.22 137.919 173.86 138.573 174.069C138.687 174.106 150.002 177.686 159.531 176.954C160.208 176.903 160.814 177.412 160.867 178.097C160.919 178.781 160.407 179.378 159.721 179.431C158.759 179.504 157.783 179.538 156.806 179.538H156.805Z" fill="#946A48"/>
<path d="M156.038 185.744C147.239 185.744 140.828 183.42 140.555 183.319C139.91 183.081 139.581 182.367 139.819 181.724C140.056 181.08 140.77 180.751 141.416 180.988C141.523 181.027 147.932 183.327 156.444 183.259C156.447 183.259 156.451 183.259 156.455 183.259C157.137 183.259 157.693 183.808 157.699 184.49C157.704 185.176 157.152 185.737 156.466 185.743C156.323 185.744 156.18 185.744 156.038 185.744Z" fill="#946A48"/>
<path d="M152.527 191.909C152.483 191.909 152.437 191.907 152.392 191.902C147.65 191.392 142.997 190.121 142.801 190.066C142.138 189.884 141.75 189.2 141.932 188.539C142.115 187.877 142.802 187.489 143.462 187.672C143.508 187.684 148.123 188.945 152.659 189.432C153.342 189.506 153.836 190.118 153.762 190.8C153.694 191.436 153.154 191.909 152.527 191.909Z" fill="#946A48"/>
<path d="M108.866 166.294C108.255 166.294 107.722 165.843 107.635 165.222C107.541 164.543 108.016 163.915 108.697 163.821C108.889 163.795 128.182 160.987 147.225 147.085C147.779 146.681 148.558 146.801 148.963 147.355C149.368 147.908 149.248 148.685 148.694 149.09C129.12 163.38 109.849 166.17 109.038 166.282C108.98 166.29 108.923 166.294 108.866 166.294Z" fill="#946A48"/>
<path d="M101.904 173.43C101.3 173.43 100.77 172.989 100.676 172.374C100.573 171.695 101.039 171.063 101.719 170.959C101.995 170.917 129.584 166.621 143.37 155.6C143.906 155.17 144.689 155.257 145.118 155.793C145.548 156.329 145.461 157.11 144.925 157.539C130.615 168.979 103.251 173.239 102.093 173.414C102.03 173.423 101.967 173.429 101.904 173.429V173.43Z" fill="#946A48"/>
<path d="M89.8358 181.859C89.2169 181.859 88.6805 181.397 88.6027 180.768C88.5187 180.087 89.0039 179.467 89.6857 179.384C89.9959 179.346 120.941 175.444 139.398 164.824C139.992 164.481 140.753 164.685 141.097 165.279C141.44 165.873 141.235 166.633 140.64 166.975C121.742 177.85 91.2772 181.69 89.9897 181.848C89.9384 181.855 89.8871 181.858 89.8366 181.858L89.8358 181.859Z" fill="#946A48"/>
<path d="M114.955 159.477C114.489 159.477 114.042 159.214 113.829 158.765C108.749 148.024 99.0753 140.453 85.0793 136.261C74.5384 133.103 65.379 133.165 65.2888 133.167C65.2841 133.167 65.2795 133.167 65.2748 133.167C64.5945 133.167 64.0386 132.62 64.0308 131.939C64.0231 131.253 64.5735 130.691 65.26 130.683C65.6456 130.675 74.8322 130.61 85.7261 133.861C100.256 138.197 110.751 146.443 116.079 157.704C116.372 158.324 116.107 159.065 115.485 159.357C115.313 159.438 115.132 159.477 114.954 159.477H114.955Z" fill="#946A48"/>
<path d="M108.868 164.657C108.404 164.657 107.958 164.395 107.744 163.948C102.583 153.12 93.9698 145.719 82.1452 141.95C73.2587 139.117 65.7912 139.515 65.7173 139.519C65.0378 139.559 64.443 139.037 64.4026 138.352C64.3622 137.667 64.8838 137.08 65.5696 137.039C65.8899 137.02 73.5005 136.604 82.8139 139.554C91.4422 142.288 103.162 148.554 109.991 162.879C110.287 163.499 110.023 164.239 109.403 164.534C109.23 164.615 109.048 164.655 108.868 164.655V164.657Z" fill="#946A48"/>
<path d="M101.906 170.259C101.367 170.259 100.87 169.907 100.712 169.364C97.7923 159.378 91.155 152.276 80.9834 148.257C73.3059 145.224 66.3856 145.178 66.3164 145.178C65.6299 145.177 65.0732 144.621 65.0732 143.935C65.0732 143.25 65.6299 142.694 66.3172 142.694C66.615 142.694 73.7102 142.731 81.8176 145.916C92.6307 150.163 99.9902 158.031 103.1 168.669C103.293 169.327 102.913 170.017 102.254 170.209C102.138 170.243 102.02 170.259 101.905 170.259H101.906Z" fill="#946A48"/>
<path d="M96.0185 175.12C95.4983 175.12 95.0132 174.792 94.839 174.272C91.6048 164.623 86.0598 157.939 78.3567 154.408C72.5941 151.767 67.6991 151.969 67.6501 151.971C66.9644 152.008 66.3805 151.477 66.3463 150.793C66.3121 150.108 66.8377 149.526 67.5226 149.49C67.7458 149.48 72.9766 149.242 79.2749 152.097C85.0592 154.718 92.865 160.557 97.1979 173.484C97.4163 174.134 97.0649 174.838 96.4134 175.056C96.2828 175.099 96.1491 175.12 96.0185 175.12Z" fill="#946A48"/>
<path d="M76.579 175.345C76.3785 175.345 76.1755 175.297 75.9866 175.195C75.3825 174.868 75.1594 174.113 75.4867 173.511C80.1686 164.896 79.5513 154.431 79.5443 154.327C79.5 153.643 80.0194 153.052 80.7043 153.007C81.4033 152.967 81.9817 153.481 82.0268 154.164C82.0571 154.62 82.7071 165.436 77.6729 174.696C77.4475 175.111 77.0199 175.346 76.5783 175.346L76.579 175.345Z" fill="#946A48"/>
<path d="M81.5403 182.833C81.3685 182.833 81.1936 182.797 81.0272 182.722C80.4013 182.438 80.1245 181.703 80.4083 181.078C85.9307 168.926 86.0116 159.215 86.0116 159.119C86.0123 158.434 86.5698 157.879 87.2555 157.879H87.2563C87.9428 157.879 88.4995 158.434 88.4995 159.12C88.4995 159.535 88.4334 169.43 82.6739 182.104C82.4655 182.562 82.013 182.833 81.5403 182.833Z" fill="#946A48"/>
<path d="M85.8544 187.993C85.6468 187.993 85.4361 187.941 85.2425 187.832C84.6446 187.493 84.4347 186.736 84.7729 186.139C90.8356 175.452 90.925 165.534 90.925 165.435C90.9266 164.75 91.4832 164.195 92.169 164.195H92.1697C92.8562 164.195 93.4129 164.751 93.4129 165.436C93.4129 165.865 93.339 176.079 86.9374 187.363C86.7088 187.766 86.2874 187.993 85.8536 187.993H85.8544Z" fill="#946A48"/>
<path d="M88.0523 137.157C87.833 137.157 87.6114 137.099 87.4093 136.978C86.8215 136.623 86.6334 135.859 86.9887 135.273L118.397 83.4162C118.753 82.8286 119.516 82.6415 120.105 82.9963C120.693 83.351 120.881 84.1148 120.526 84.7016L89.1174 136.558C88.8834 136.944 88.4729 137.157 88.0515 137.157H88.0523Z" fill="#946A48"/>
<path d="M81.8697 135.346C81.6481 135.346 81.425 135.287 81.222 135.164C80.6358 134.806 80.4508 134.042 80.8092 133.457C81.886 131.697 107.276 90.2625 115.156 81.9623C115.627 81.464 116.415 81.443 116.914 81.915C117.413 82.3869 117.433 83.1732 116.962 83.6708C109.262 91.7823 83.1953 134.323 82.9325 134.752C82.6985 135.135 82.2887 135.346 81.8697 135.346Z" fill="#946A48"/>
<path d="M75.1215 134.012C74.9077 134.012 74.69 133.957 74.4926 133.841C73.9001 133.493 73.7019 132.732 74.0502 132.141C74.2539 131.794 94.6127 97.3596 111.978 80.9059C112.477 80.4332 113.265 80.4549 113.737 80.9517C114.21 81.4493 114.189 82.2356 113.691 82.7075C96.5774 98.9236 76.3974 133.057 76.1952 133.4C75.9635 133.793 75.5476 134.013 75.1215 134.013V134.012Z" fill="#946A48"/>
<path d="M67.5863 133.232C67.3453 133.232 67.1028 133.162 66.8889 133.018C66.3206 132.633 66.1729 131.86 66.5585 131.293C66.8011 130.937 90.9905 95.4927 109.055 80.0723C109.577 79.6259 110.362 79.688 110.809 80.2089C111.255 80.7305 111.194 81.5145 110.671 81.96C92.8611 97.1639 68.8567 132.335 68.6165 132.688C68.3755 133.042 67.9844 133.232 67.5863 133.232Z" fill="#946A48"/>
<path d="M65.3718 125.489C65.1051 125.489 64.8361 125.404 64.6091 125.228C64.0672 124.807 63.9692 124.026 64.3906 123.485C64.6184 123.193 87.3718 94.0862 105.684 79.3014C106.217 78.8698 107 78.9529 107.433 79.4862C107.865 80.0194 107.782 80.8019 107.248 81.2327C89.16 95.8365 66.5807 124.72 66.3545 125.009C66.1096 125.324 65.7418 125.489 65.3718 125.489Z" fill="#946A48"/>
<path d="M66.6325 114.133C66.358 114.133 66.082 114.043 65.8519 113.857C65.317 113.427 65.2346 112.644 65.6661 112.111C66.4591 111.13 85.2755 87.9928 101.269 78.4499C101.858 78.0983 102.622 78.29 102.975 78.8791C103.327 79.4683 103.135 80.2305 102.545 80.5822C86.9283 89.9 67.7917 113.435 67.6004 113.672C67.3548 113.975 66.9948 114.134 66.6317 114.134L66.6325 114.133Z" fill="#946A48"/>
<path d="M96.1078 140.591C96.0829 140.591 96.0572 140.591 96.0316 140.589C95.3458 140.548 94.8234 139.959 94.8646 139.274C95.1484 134.578 91.5347 129.298 91.4981 129.245C91.1078 128.681 91.2486 127.908 91.813 127.517C92.3767 127.127 93.151 127.267 93.5429 127.83C93.7116 128.074 97.6837 133.861 97.3478 139.424C97.3082 140.083 96.7601 140.591 96.107 140.591H96.1078Z" fill="#946A48"/>
<path d="M105.827 147.261C105.209 147.261 104.673 146.801 104.594 146.173C103.099 134.262 95.1076 123.622 95.0268 123.517C94.6116 122.97 94.7189 122.191 95.2662 121.777C95.8136 121.362 96.5934 121.47 97.0086 122.016C97.3538 122.47 105.483 133.278 107.063 145.865C107.148 146.546 106.665 147.167 105.983 147.252C105.931 147.258 105.879 147.261 105.827 147.261V147.261Z" fill="#946A48"/>
<path d="M112.314 147.261C111.65 147.261 111.1 146.737 111.072 146.07C110.4 129.803 100.025 115.545 99.9205 115.403C99.5139 114.85 99.632 114.073 100.186 113.666C100.739 113.26 101.517 113.378 101.925 113.931C102.37 114.537 112.854 128.95 113.557 145.967C113.586 146.653 113.052 147.231 112.365 147.26C112.348 147.26 112.33 147.261 112.313 147.261H112.314Z" fill="#946A48"/>
<path d="M119.461 143.101C118.853 143.101 118.321 142.655 118.231 142.037C114.933 119.293 103.867 109.704 103.756 109.609C103.232 109.166 103.167 108.382 103.61 107.859C104.054 107.336 104.839 107.27 105.364 107.714C105.848 108.124 117.261 118.015 120.692 141.68C120.79 142.36 120.32 142.989 119.64 143.088C119.579 143.096 119.519 143.101 119.46 143.101H119.461Z" fill="#946A48"/>
<path d="M125.911 140.591C125.299 140.591 124.767 140.142 124.68 139.521C121.197 114.641 107.784 103.327 107.649 103.215C107.119 102.779 107.044 101.997 107.48 101.468C107.916 100.939 108.698 100.863 109.229 101.297C109.811 101.775 123.519 113.276 127.144 139.178C127.239 139.857 126.764 140.485 126.084 140.58C126.026 140.587 125.968 140.591 125.911 140.591Z" fill="#946A48"/>
<path d="M131.115 136.831C130.485 136.831 129.946 136.355 129.88 135.717C128.809 125.364 124.204 118.775 124.157 118.71C123.761 118.151 123.892 117.375 124.451 116.979C125.01 116.581 125.785 116.711 126.184 117.27C126.39 117.557 131.212 124.422 132.354 135.463C132.425 136.145 131.928 136.755 131.245 136.826C131.201 136.831 131.159 136.833 131.116 136.833L131.115 136.831Z" fill="#946A48"/>
<path d="M130.41 123.037C129.833 123.037 129.316 122.634 129.194 122.047C125.087 102.32 116.225 88.6496 116.136 88.5137C115.76 87.9401 115.921 87.1701 116.495 86.7944C117.068 86.4179 117.839 86.5786 118.216 87.1522C118.59 87.7212 127.422 101.328 131.629 121.542C131.769 122.214 131.338 122.871 130.665 123.011C130.579 123.029 130.494 123.037 130.41 123.037Z" fill="#946A48"/>
<path d="M125.91 124.422C125.341 124.422 124.827 124.029 124.698 123.451C120.749 105.815 111.997 95.9297 111.909 95.8319C111.45 95.3219 111.491 94.5372 112.002 94.0784C112.512 93.6197 113.298 93.6601 113.758 94.17C114.134 94.5869 123.025 104.596 127.126 122.908C127.276 123.578 126.854 124.242 126.183 124.392C126.092 124.412 126.001 124.422 125.91 124.422Z" fill="#946A48"/>
<path d="M136.709 128.613C136.095 128.613 135.561 128.159 135.478 127.535C132.067 102.049 121.746 86.2526 121.643 86.0966C121.263 85.5245 121.42 84.7545 121.993 84.3757C122.565 83.9969 123.337 84.1521 123.716 84.7234C124.153 85.3801 134.453 101.115 137.945 127.206C138.036 127.886 137.558 128.511 136.876 128.602C136.82 128.61 136.765 128.613 136.71 128.613H136.709Z" fill="#946A48"/>
<path d="M141.473 121.055C140.854 121.055 140.319 120.595 140.24 119.966C137.898 101.158 130.636 90.9651 130.563 90.8641C130.16 90.3084 130.285 89.5321 130.841 89.1301C131.397 88.728 132.175 88.8522 132.577 89.4072C132.891 89.8395 140.288 100.224 142.709 119.66C142.793 120.34 142.309 120.961 141.627 121.045C141.575 121.052 141.524 121.055 141.473 121.055L141.473 121.055Z" fill="#946A48"/>
<path d="M147.074 149.968C146.751 149.968 146.428 149.843 146.184 149.594C140.525 143.809 131.256 140.555 131.163 140.523C130.515 140.298 130.17 139.591 130.395 138.943C130.62 138.295 131.329 137.951 131.977 138.176C132.379 138.315 141.887 141.646 147.963 147.858C148.444 148.349 148.434 149.135 147.942 149.615C147.701 149.851 147.387 149.968 147.073 149.968H147.074Z" fill="#946A48"/>
<path d="M142.445 153.065C142.179 153.065 141.911 152.981 141.684 152.805C136.508 148.805 128.016 145.218 127.931 145.182C127.298 144.916 127.001 144.188 127.267 143.556C127.534 142.924 128.263 142.627 128.896 142.893C129.256 143.044 137.776 146.644 143.207 150.841C143.75 151.261 143.85 152.041 143.429 152.584C143.184 152.9 142.817 153.066 142.445 153.066V153.065Z" fill="#946A48"/>
<path d="M135.428 157.078C135.144 157.078 134.859 156.981 134.625 156.783C130.565 153.351 123.12 150.946 123.045 150.922C122.391 150.713 122.03 150.014 122.239 149.361C122.448 148.708 123.147 148.347 123.803 148.556C124.127 148.659 131.791 151.133 136.233 154.888C136.757 155.331 136.822 156.115 136.378 156.638C136.132 156.929 135.781 157.078 135.428 157.078Z" fill="#946A48"/>
<path d="M129.085 160.092C128.834 160.092 128.579 160.016 128.359 159.858C125.382 157.72 119.142 155.698 119.079 155.678C118.426 155.468 118.066 154.768 118.277 154.115C118.488 153.462 119.188 153.103 119.843 153.314C120.113 153.401 126.517 155.475 129.812 157.841C130.37 158.242 130.497 159.018 130.095 159.575C129.853 159.912 129.471 160.092 129.085 160.092Z" fill="#946A48"/>
<g opacity="0.5">
<path d="M22.228 150.943C22.228 111.92 54.9307 80.2849 95.2713 80.2849C105.088 80.2849 114.449 82.1626 123 85.5593C113.501 81.2521 102.901 78.8403 91.7167 78.8403C50.9633 78.8403 17.9263 110.798 17.9263 150.221C17.9263 189.644 50.9633 221.602 91.7167 221.602C92.3115 221.602 92.9031 221.593 93.4948 221.58C53.9752 220.667 22.228 189.393 22.228 150.944V150.943Z" fill="white"/>
</g>
<g opacity="0.5">
<path d="M142.808 98.7211C154.792 111.888 162.065 129.165 162.065 148.087C162.065 183.416 136.725 213.016 102.668 220.817C138.227 215.699 165.506 186.042 165.506 150.22C165.506 129.981 156.797 111.711 142.808 98.7211Z" fill="white"/>
</g>
<path d="M91.7165 222.843C50.3427 222.843 16.6821 190.265 16.6821 150.22C16.6821 110.176 50.3419 77.5977 91.7165 77.5977C133.091 77.5977 166.751 110.176 166.751 150.22C166.751 190.265 133.091 222.843 91.7165 222.843ZM91.7165 80.0823C51.7142 80.0823 19.17 111.547 19.17 150.221C19.17 188.896 51.7142 220.359 91.7165 220.359C131.719 220.359 164.263 188.895 164.263 150.221C164.263 111.547 131.719 80.0823 91.7165 80.0823Z" fill="#2C221E"/>
<g opacity="0.5">
<path d="M52.7865 153.99C64.6281 153.315 73.9693 148.253 73.6506 142.684C73.3319 137.116 63.4741 133.149 51.6325 133.824C39.7909 134.5 30.4497 139.562 30.7684 145.13C31.0871 150.699 40.9449 154.666 52.7865 153.99Z" fill="white"/>
</g>
<g opacity="0.5">
<path d="M87.6476 146.049C92.4091 145.546 95.9972 142.572 95.6617 139.407C95.3263 136.242 91.1945 134.084 86.433 134.587C81.6715 135.09 78.0834 138.064 78.4189 141.229C78.7543 144.394 82.8862 146.552 87.6476 146.049Z" fill="white"/>
</g>
<path d="M129.934 59.4068C125.276 72.9364 112.302 108.161 101.985 116.96C94.3627 123.46 80.261 120.576 82.2933 107.288C83.9345 96.56 97.5535 80.1235 103.785 64.7977C117.175 48.7314 129.694 53.3872 129.934 59.4068Z" fill="white"/>
<path d="M98.9643 115.863C107.344 111.569 120.038 85.4166 120.041 85.4104C123.759 76.5832 126.97 67.8662 129.075 61.8768C119.56 75.526 112.466 101.66 99.5505 112.085C93.3191 117.114 87.3412 113.57 84.4365 110.174C85.7637 117.699 94.1292 118.342 98.9643 115.864V115.863Z" fill="#B8C8E0"/>
<path d="M112.413 56.9734C109.662 58.709 106.745 61.2457 103.786 64.797C98.2096 78.5105 86.7256 93.1097 83.1943 103.717C106.992 93.6624 119.442 71.0502 112.413 56.9734Z" fill="#B8C8E0"/>
<path d="M130.229 59.5078C129.425 65.3496 127.092 70.9928 125.036 76.4745C121.841 84.7568 118.458 92.9964 114.466 100.946C111.538 106.612 108.484 112.375 104.04 117.052C100.915 120.28 96.3856 122.027 91.8941 121.735C86.7076 121.471 82.0218 118.089 80.9637 112.865C79.6552 106.445 82.6811 100.523 85.4613 95.0938C87.8707 90.5078 91.8102 84.3035 94.4777 79.7998C97.4577 74.7815 100.365 69.6926 102.633 64.3312C103.285 62.8595 105.502 63.7219 104.938 65.2658C100.509 76.3177 93.5494 86.0616 88.0324 96.4545C86.6866 99.0223 85.4124 101.63 84.54 104.297C82.1656 111.094 83.9624 118.156 92.0838 118.796C95.7255 119.029 99.4169 117.582 101.963 114.98C104.182 112.718 105.983 110.064 107.699 107.3C113.703 97.2952 118.298 86.3884 122.65 75.5485C124.815 70.1296 126.698 64.3895 129.641 59.3067C129.728 59.1554 129.923 59.1034 130.074 59.1911C130.189 59.2571 130.247 59.3851 130.23 59.5086L130.229 59.5078Z" fill="#2C221E"/>
<path d="M88.4081 107.804L84.855 116.481L82.6968 115.245L88.4081 107.804Z" fill="#2C221E"/>
<path d="M96.5464 112.084L90.7651 120.746L88.8735 119.133L96.5464 112.084Z" fill="#2C221E"/>
<path d="M27.8773 99.6774C20.3607 108.461 18.8788 129.577 29.9414 129.114C39.3869 128.719 44.9746 111.944 43.6513 94.7623L27.8773 99.6774Z" fill="white"/>
<path d="M43.0271 94.9572L27.8781 99.6774C26.9327 100.783 26.0829 102.083 25.3412 103.511C28.1681 108.46 35.6085 110.736 35.6085 110.736C35.6085 110.736 36.1892 116.226 33.8654 121.082C31.858 125.276 25.576 124.015 24.6353 122.82C25.4967 126.817 33.4627 130.462 38.9679 118.836C43.0318 110.254 43.1966 99.6875 43.0279 94.9579L43.0271 94.9572Z" fill="#B8C8E0"/>
<path d="M29.5807 130.365C26.3208 130.365 23.7979 128.713 22.2647 125.568C18.8742 118.611 21.1429 105.637 26.9319 98.8716C27.3774 98.3508 28.1626 98.2879 28.6851 98.7342C29.2076 99.1798 29.269 99.9638 28.8227 100.485C23.7684 106.392 21.5876 118.502 24.5015 124.482C25.6475 126.835 27.4567 127.974 29.8902 127.875C31.9909 127.788 33.9556 126.732 35.7298 124.737C40.6745 119.177 43.3598 107.169 42.4121 94.8593C42.3592 94.1755 42.8716 93.5785 43.5573 93.5258C44.2283 93.4745 44.8401 93.9845 44.893 94.6691C45.9053 107.811 43.0387 120.26 37.5902 126.386C35.3511 128.904 32.7956 130.24 29.9944 130.357C29.8552 130.363 29.7176 130.365 29.5807 130.365V130.365Z" fill="#2C221E"/>
<path d="M31.6626 121.082L33.2502 128.697L30.7646 128.808L31.6626 121.082Z" fill="#2C221E"/>
<path d="M26.3309 120.094L27.5748 128.322H25.0869L26.3309 120.094Z" fill="#2C221E"/>
<path d="M154.708 89.851C162.065 121.663 152.723 158.235 132.873 188.386C112.281 219.663 89.8195 230.11 76.0039 219.98C97.5538 225.104 124.853 189.152 129.723 181.806C134.617 174.423 162.282 129.289 146.662 89.2137C143.327 82.761 154.708 89.851 154.708 89.851Z" fill="#E3B28A"/>
<g opacity="0.5">
<path d="M151.326 118.654C150.196 148.96 133.43 176.213 129.723 181.805C127.703 184.852 121.821 192.822 114.093 200.74L115.589 202.151C150.738 168.381 153.776 119.482 153.776 119.482L151.326 118.653V118.654Z" fill="white"/>
</g>
<path d="M154.708 89.851C154.708 89.851 143.327 82.761 146.662 89.2137C152.719 104.755 152.265 121.056 149.156 135.622L152.723 134.553L150.143 145.736L146.958 144.289C146.046 147.399 145.039 150.393 143.98 153.246L145.983 156.476C141.608 169.835 129.194 191.098 119.037 200.905L114.108 200.727C106.619 208.402 97.3936 216.032 88.2622 219.085C92.8508 219.383 98.5637 219.198 105.098 217.849C114.104 212.168 123.674 202.356 132.873 188.386C152.723 158.235 162.065 121.664 154.708 89.851Z" fill="#CD9364"/>
<path d="M87.6472 224.952C83.0702 224.952 78.8524 223.609 75.2675 220.98L70.3174 217.351L76.2922 218.771C95.6326 223.366 121.241 192.35 128.686 181.12C132.066 176.021 161.24 130.16 145.526 89.7245C145.147 88.9887 144.166 86.9922 145.44 85.8201C146.817 84.551 150.158 85.5531 155.366 88.7977L155.803 89.0702L155.919 89.5716C159.548 105.265 159.307 122.237 155.205 140.02C151.321 156.846 143.959 173.807 133.911 189.067C120.445 209.522 105.595 222.122 92.0974 224.545C90.5837 224.816 89.0972 224.951 87.6464 224.951L87.6472 224.952ZM82.0377 221.664C84.9774 222.575 88.1945 222.722 91.6582 222.1C104.291 219.832 118.934 207.295 131.833 187.703C152.213 156.748 160.335 120.507 153.612 90.635C151.135 89.1392 148.53 87.9462 147.381 87.7599C147.447 87.9617 147.564 88.2489 147.767 88.6432L147.821 88.762C164.041 130.378 134.215 177.279 130.76 182.49C130.488 182.9 105.255 219.947 82.037 221.663L82.0377 221.664Z" fill="#2C221E"/>
<path d="M21.6883 172.778C23.7642 178.094 32.2985 191.461 54.7425 188.227C135.229 176.626 153.544 86.7827 150.906 65.5902C148.655 47.505 129.935 29.4997 104.408 31.0265C104.408 31.0265 109.966 25.9531 123.345 27.7764C136.21 29.5299 157.58 43.2893 157.99 70.6108C158.414 98.832 136.872 154.455 100.239 177.208C65.7794 198.612 35.6066 198.453 25.6814 186.8C20.9272 181.218 21.6883 172.778 21.6883 172.778Z" fill="#E3B28A"/>
<path d="M139.992 124.834C139.992 124.834 162.172 78.1945 150.262 53.329C140.583 33.1223 118.837 28.5682 106.124 29.8955C104.957 30.5258 104.408 31.0265 104.408 31.0265C129.935 29.4997 148.654 47.5042 150.906 65.5902C152.587 79.0911 145.761 120.455 119.776 151.7C121.629 152.24 123.794 152.787 123.794 152.787C123.794 152.787 103.758 180.617 64.5934 189.813C37.672 196.135 26.0807 187.074 21.8862 177.574C22.2789 180.402 23.2693 183.968 25.6818 186.8C35.607 198.453 65.7791 198.612 100.24 177.208C119.25 165.401 134.193 144.743 144.115 123.655L139.993 124.835L139.992 124.834Z" fill="#CD9364"/>
<g opacity="0.5">
<path d="M157.99 70.6108C157.58 43.2893 136.21 29.5299 123.345 27.7764C109.965 25.9531 104.408 31.0265 104.408 31.0265C105.264 30.9753 106.111 30.9481 106.952 30.9396C122.953 25.5852 138.488 34.3441 147.364 45.4146C163.028 64.9529 156.217 95.0013 138.193 132.769C138.193 132.769 138.997 132.159 140.383 131.107C151.983 109.292 158.22 85.9203 157.99 70.6108Z" fill="white"/>
</g>
<g opacity="0.5">
<path d="M127.659 144.177L125.561 144.153C110.626 165.292 87.9883 183.435 54.7422 188.227C32.2989 191.461 23.7647 178.094 21.688 172.778C21.688 172.778 21.5364 174.479 21.7961 176.855C25.5217 184.223 34.58 190.62 46.934 190.816C68.5182 191.16 106.619 178.04 127.659 144.177Z" fill="white"/>
</g>
<path d="M48.2761 195.896C37.7204 195.896 29.3089 192.976 24.7335 187.604C19.6994 181.693 20.4162 173.033 20.4489 172.666L20.9239 167.403L22.8473 172.326C24.0353 175.368 31.1507 190.371 54.5642 186.997C97.2022 180.852 120.697 152.565 132.9 129.917C146.772 104.168 151.058 76.8889 149.671 65.7423C147.52 48.4713 129.627 30.7571 104.481 32.2653L100.975 32.4749L103.567 30.109C103.812 29.8862 109.713 24.663 123.512 26.5445C129.462 27.3557 138.553 30.983 146.222 38.7313C152.027 44.5964 158.997 54.8853 159.233 70.5906C159.457 85.5578 153.669 106.982 144.127 126.503C132.854 149.565 117.5 167.946 100.895 178.261C80.4454 190.962 64.0354 194.72 53.87 195.636C51.9488 195.809 50.0798 195.894 48.2753 195.894L48.2761 195.896ZM23.2454 178.188C23.6808 180.693 24.6254 183.643 26.629 185.996C36.3411 197.398 66.2838 196.836 99.5821 176.153C115.796 166.083 130.822 148.063 141.893 125.415C151.274 106.223 156.966 85.231 156.746 70.6294C156.325 42.5806 133.947 30.4753 123.176 29.0067C117.077 28.1762 112.679 28.8391 109.765 29.7441C133.474 30.8153 150.01 48.3308 152.14 65.4365C153.568 76.9091 149.223 104.864 135.091 131.093C122.618 154.244 98.5838 183.163 54.9195 189.455C44.905 190.898 36.4772 189.308 29.8679 184.729C26.8638 182.647 24.7296 180.286 23.2454 178.187V178.188Z" fill="#2C221E"/>
<path d="M89.0285 34.3082C129.221 32.0976 141.369 73.0418 141.369 73.0418C141.369 73.0418 149.3 79.632 148.753 74.6424C147.324 61.6259 126.124 22.5438 86.3921 29.0602L89.0285 34.3082Z" fill="#E3B28A"/>
<g opacity="0.5">
<path d="M148.753 74.6424C147.324 61.6259 126.124 22.5438 86.3921 29.0602L87.2963 30.8603C126.509 26.5949 143.607 60.2978 147.211 76.4673C148.234 76.6459 148.928 76.2376 148.753 74.6424Z" fill="white"/>
</g>
<path d="M87.3872 31.0403L89.0284 34.3075C129.221 32.0968 141.369 73.041 141.369 73.041C141.369 73.041 142.237 73.7614 143.377 74.5446C143.515 73.5549 143.446 72.4139 143.115 71.0966C138.423 52.3974 121.063 30.2773 87.3872 31.0403Z" fill="#CD9364"/>
<path d="M147.655 77.738C145.449 77.738 142.383 75.5002 140.573 73.9959L140.284 73.7552L140.177 73.3943C140.147 73.2934 137.088 63.2149 129.25 53.5602C118.824 40.7152 105.314 34.656 89.0971 35.5471L88.2823 35.5922L84.5225 28.107L86.1909 27.833C100.831 25.4329 114.268 28.7715 126.124 37.7586C140.88 48.9448 149.088 66.2988 149.989 74.5058C150.189 76.3269 149.459 77.1233 148.811 77.471C148.466 77.6558 148.076 77.7373 147.654 77.7373L147.655 77.738ZM142.445 72.3161C144.43 73.9128 146.691 75.2246 147.529 75.272C147.539 75.1726 147.543 75.0143 147.517 74.7775C146.663 66.999 138.795 50.4832 124.62 39.7387C113.783 31.524 101.563 28.2646 88.2738 30.0359L89.7774 33.0291C110.593 32.1799 123.797 42.8731 131.238 52.0652C138.594 61.154 141.809 70.3453 142.445 72.3161Z" fill="#2C221E"/>
<path d="M160.59 102.528C163.919 100.867 170.33 102.396 168.961 109.983C167.015 120.764 146.133 137.322 109.079 152.527C68.873 169.026 22.2668 170.113 15.1739 158.235C12.7676 154.205 15.4779 150.136 17.9316 149.46C18.3366 150.221 15.8091 164.048 63.0264 157.706C119.709 150.093 173.606 114.422 160.59 102.528H160.59Z" fill="#E3B28A"/>
<g opacity="0.5">
<path d="M163.625 102.531C163.418 102.323 163.219 102.126 163.023 101.931C162.143 101.969 161.297 102.175 160.59 102.528C173.606 114.422 119.709 150.093 63.0261 157.706C15.8088 164.048 18.3363 150.22 17.9313 149.46C17.1911 149.665 16.4284 150.179 15.7886 150.907C16.9734 161.67 39.2985 163.89 67.5875 159.49C110.025 152.89 138.789 134.553 149.706 126.77C163.987 116.589 167.77 106.697 163.626 102.531H163.625Z" fill="white"/>
</g>
<path d="M143.791 131.427L141.583 129.465C138.573 131.398 135.298 133.328 131.795 135.224L134.088 137.615C106.62 157.601 23.7415 175.622 14.5238 153.152C14.048 154.655 14.1078 156.448 15.1745 158.234C22.2674 170.112 68.8736 169.025 109.08 152.526C146.134 137.322 167.016 120.764 168.961 109.982C169.093 109.25 169.152 108.574 169.149 107.952C160.558 123.597 143.791 131.426 143.791 131.426L143.791 131.427Z" fill="#CD9364"/>
<path d="M43.3974 167.422C27.9312 167.422 17.402 164.392 14.1055 158.871C12.8553 156.778 12.6501 154.424 13.5278 152.243C14.3138 150.29 15.9123 148.728 17.6002 148.263L18.5604 147.999L19.0292 148.877C19.1746 149.149 19.2018 149.414 19.2337 149.72C19.3192 150.549 19.4972 152.273 21.6881 153.996C25.6571 157.116 36.0224 160.08 62.8606 156.475C84.8195 153.525 108.059 146.137 128.297 135.669C146.17 126.425 158.686 116.181 160.962 108.934C161.682 106.642 161.285 104.846 159.75 103.443L158.416 102.224L160.034 101.417C162.43 100.221 165.585 100.493 167.706 102.078C169.004 103.048 171.053 105.395 170.185 110.203C169.13 116.052 163.16 123.104 152.921 130.597C142.172 138.464 127.175 146.444 109.552 153.675C90.7749 161.381 68.9848 166.333 49.7696 167.262C47.5639 167.369 45.4375 167.421 43.3982 167.421L43.3974 167.422ZM17.0101 151.427C16.5584 151.853 16.13 152.439 15.8361 153.169C15.4248 154.191 15.1613 155.79 16.2412 157.599C19.3915 162.874 32.1918 165.626 49.6483 164.782C68.5914 163.866 90.0799 158.98 108.605 151.378C126.045 144.222 140.86 136.344 151.449 128.595C161.025 121.588 166.809 114.9 167.736 109.763C168.21 107.136 167.684 105.167 166.214 104.068C165.205 103.314 163.908 103.084 162.764 103.197C163.904 105.021 164.105 107.225 163.335 109.678C160.831 117.652 148.161 128.193 129.441 137.875C108.954 148.471 85.4275 155.95 63.1918 158.937C40.9507 161.924 26.4704 160.918 20.1488 155.947C18.1328 154.361 17.3429 152.669 17.0101 151.426V151.427Z" fill="#2C221E"/>
<path d="M86.3921 87.073C125.594 106.02 156.667 146.608 161.43 169.227C164.035 181.592 157.995 187.577 154.61 187.571C155.699 185.657 158.4 179.614 155.899 170.548C152.167 157.019 135.413 120.295 83.7759 91.7498L86.3913 87.0723L86.3921 87.073Z" fill="#E3B28A"/>
<path d="M158.213 185.813C159.141 182.625 159.459 177.516 157.932 169.835C154.263 151.382 131.57 118.544 96.9143 96.536L99.501 94.3703C95.2552 91.6946 90.8773 89.241 86.3913 87.073L83.7759 91.7505C135.413 120.295 152.167 157.019 155.899 170.549C158.399 179.614 155.698 185.657 154.61 187.572C155.667 187.574 156.982 186.992 158.213 185.813V185.813Z" fill="#CD9364"/>
<g opacity="0.5">
<path d="M160.196 183.164C161.848 180.124 162.752 175.498 161.431 169.227C156.666 146.608 125.594 106.019 86.3923 87.073L86.1318 87.5395L89.4936 91.3275C142.422 118.454 165.38 172.139 160.197 183.164H160.196Z" fill="white"/>
</g>
<path d="M154.615 188.813H154.607L152.473 188.809L153.527 186.958C154.413 185.401 157.116 179.641 154.698 170.879C153.393 166.147 149.038 153.425 136.814 137.537C123.449 120.164 105.401 105.125 83.172 92.8373C82.571 92.505 82.3534 91.749 82.6861 91.149C83.0189 90.5489 83.7761 90.3316 84.3771 90.6638C106.906 103.118 125.212 118.379 138.787 136.024C151.278 152.26 155.753 165.347 157.096 170.219C158.945 176.923 158.042 182.108 156.976 185.251C157.33 184.957 157.693 184.596 158.051 184.155C159.305 182.615 162.026 178.102 160.211 169.483C157.812 158.095 148.717 142.433 135.882 127.584C121.315 110.735 103.546 96.7448 85.8481 88.1908C85.23 87.8919 84.9711 87.1491 85.2704 86.532C85.569 85.9149 86.3146 85.6564 86.9319 85.9552C104.929 94.6536 122.982 108.861 137.765 125.961C150.863 141.112 160.165 157.191 162.646 168.972C164.079 175.778 163.108 181.883 159.981 185.722C158.405 187.658 156.398 188.813 154.613 188.813H154.615Z" fill="#2C221E"/>
<path d="M76.0574 101.227C51.6993 111.897 31.4322 110.501 22.6538 98.7784C17.559 91.9756 18.6203 82.4955 18.6203 82.4955C18.6203 82.4955 16.3477 73.9687 16.193 67.8614C16.193 67.8614 -5.15397 41.3153 3.17506 32.6456C9.49356 26.0695 29.1729 29.1938 29.1729 29.1938C29.1729 29.1938 34.3882 25.4089 41.3932 22.3405C48.3982 19.2721 54.719 18.0037 54.719 18.0037C54.719 18.0037 65.7435 1.43055 74.8687 1.2427C86.8985 0.994309 92.0065 34.6537 92.0065 34.6537C96.4031 38.9036 101.148 46.3475 101.148 46.3475C101.148 46.3475 108.853 51.9876 110.417 60.3367C113.112 74.724 100.416 90.5574 76.0574 101.227V101.227Z" fill="white"/>
<path d="M72.4847 93.0965C48.9196 103.419 33.2528 100.926 25.8979 98.4377C34.9057 107.873 53.2548 108.51 75.0605 98.9585C96.8646 89.4079 108.822 75.4979 107.968 62.4907C104.822 69.5792 96.0498 82.7742 72.484 93.0957L72.4847 93.0965Z" fill="#B8C8E0"/>
<path d="M76.1431 7.27945C82.5541 6.21603 88.4403 29.0168 87.421 31.4325C86.7757 32.9624 84.6727 31.8213 80.9914 28.3113C77.31 24.8019 75.8608 14.399 75.8608 14.399" fill="#B8C8E0"/>
<path d="M64.6062 65.2851C64.708 65.9744 63.2355 66.1382 61.0578 67.0921C58.8801 68.0461 57.7621 69.0164 57.3236 68.4754C56.5205 67.4888 57.5537 64.0222 59.3606 63.2304C61.1674 62.4387 64.4227 64.0268 64.6054 65.2851H64.6062Z" fill="#B8C8E0"/>
<path d="M3.17484 32.6465C-5.15497 41.3161 16.1928 67.8622 16.1928 67.8622C16.2558 70.3485 16.6702 73.236 17.139 75.7859C47.507 68.4592 47.7946 36.9087 35.5316 25.2483C31.6715 27.3814 29.1727 29.1946 29.1727 29.1946C29.1727 29.1946 9.49256 26.0711 3.17484 32.6465Z" fill="#EEA74A"/>
<g opacity="0.5">
<path d="M74.8685 1.24356C65.7433 1.43218 54.7188 18.0046 54.7188 18.0046C54.7188 18.0046 48.3972 19.2729 41.3929 22.3413C34.3887 25.4097 29.1727 29.1946 29.1727 29.1946C29.1727 29.1946 9.49256 26.0711 3.17484 32.6465C-5.15497 41.3161 16.1928 67.8622 16.1928 67.8622C16.3475 73.9571 18.6107 82.4599 18.6201 82.4948H18.6216L18.449 66.6148C13.8176 61.6012 0.755357 42.7956 4.23842 35.8515C7.45637 29.4345 27.4109 32.6791 27.4109 32.6791L24.2769 38.0288C24.5141 37.796 32.1846 30.3271 42.8499 25.6558C53.5153 20.9845 64.214 20.4078 64.546 20.3907L58.481 19.0703C58.481 19.0703 69.6019 2.21306 76.5113 4.19476C83.9874 6.33869 89.0013 28.6691 89.5603 35.4665L101.147 46.3476C101.13 46.3197 96.3951 38.8966 92.0062 34.6546C92.0062 34.6546 86.8983 0.995164 74.8685 1.24356Z" fill="white"/>
</g>
<path d="M6.76086 37.6702C1.635 41.66 14.4531 61.4242 16.9239 62.3115C18.4882 62.8734 19.0713 60.5556 18.978 55.4745C18.884 50.3933 12.1993 42.2841 12.1993 42.2841L6.76086 37.6694V37.6702Z" fill="#E49B76"/>
<path d="M45.8718 109.715C35.2368 109.715 26.7297 106.295 21.6575 99.5221C16.7253 92.9366 17.2236 84.1846 17.3612 82.5973C17.0052 81.2233 15.1851 73.9664 14.9627 68.3116C13.8269 66.8671 9.28254 60.9553 5.47294 54.1083C-0.523685 43.3312 -1.59893 35.8204 2.27676 31.7864C8.45609 25.3554 25.6164 27.4325 28.8616 27.8921C30.2517 26.9264 34.9002 23.8278 40.8929 21.2033C46.8857 18.5782 52.3163 17.2617 53.9692 16.8945C55.8281 14.2002 65.9181 0.185518 74.8427 0.00155245C74.8964 0.000776224 74.9508 0 75.0044 0C80.5338 0 85.2849 5.87369 89.1295 17.465C91.5956 24.9005 92.8753 32.242 93.1708 34.0553C97.1872 38.0482 101.303 44.2991 102.075 45.4914C103.339 46.4656 110.125 52.0264 111.639 60.1093C114.51 75.4374 101.068 91.6294 76.5563 102.365C65.3374 107.28 54.847 109.716 45.8711 109.716L45.8718 109.715ZM18.8594 29.6898C13.3238 29.6898 7.01155 30.4474 4.07272 33.5057C-2.14005 39.9724 11.4151 59.9369 17.1622 67.0844L17.425 67.4112L17.4359 67.8304C17.5851 73.7172 19.8002 82.0927 19.8219 82.1765L19.8818 82.4016L19.8561 82.6337C19.846 82.723 18.9208 91.7194 23.6494 98.0348C27.7716 103.539 34.6623 106.694 43.5775 107.16C52.8372 107.641 63.8952 105.199 75.5572 100.09C87.2193 94.9819 96.5092 88.5136 102.423 81.3848C108.118 74.5206 110.459 67.3212 109.194 60.5657C107.742 52.8151 100.484 47.4025 100.411 47.3489L100.224 47.2115L100.098 47.0151C100.051 46.9422 95.3788 39.6433 91.1408 35.5472L90.8391 35.2553L90.7762 34.8408C89.4047 25.8149 83.9041 2.48469 74.999 2.48469C74.964 2.48469 74.929 2.48469 74.894 2.48547C66.5246 2.65857 55.8616 18.5324 55.7543 18.6923L55.4689 19.1207L54.9636 19.2224C54.9014 19.2348 48.6808 20.5047 41.892 23.4785C35.1031 26.4522 29.9547 30.1617 29.9034 30.199L29.4867 30.501L28.9774 30.4202C28.8833 30.4055 24.2387 29.6898 18.8594 29.6898Z" fill="#2C221E"/>
<path d="M17.6778 59.4455C17.6778 59.4455 18.8541 48.7584 22.8114 38.9314C22.8114 38.9314 9.22433 35.2739 7.34674 38.2026C5.78636 40.636 11.3546 52.2887 17.6785 59.4455H17.6778Z" fill="#FAD5B7"/>
<path d="M15.5133 49.5758C13.7244 52.5208 11.675 51.0071 11.6703 51.0056C13.4095 53.9785 15.4986 56.9786 17.6778 59.4455C17.6778 59.4455 18.8541 48.7584 22.8115 38.9314C22.8115 38.9314 9.22439 35.2739 7.3468 38.2026C6.41928 39.6487 8.00998 44.3518 10.7809 49.4314C10.7801 49.4275 7.86071 43.0074 10.4131 41.4216C12.9337 39.8559 19.0609 43.737 15.5133 49.5758Z" fill="#CFA582"/>
<path d="M17.6776 60.6883C17.327 60.6883 16.9849 60.54 16.7447 60.2683C11.0178 53.7884 4.05947 41.025 6.29781 37.5343C7.39559 35.8219 10.4674 35.4113 15.968 36.2419C19.6275 36.7945 22.9924 37.695 23.1339 37.733C23.4768 37.8254 23.7644 38.0606 23.9231 38.378C24.0817 38.6955 24.0972 39.0658 23.9643 39.3957C20.115 48.9541 18.9255 59.4774 18.913 59.5822C18.8594 60.0712 18.522 60.4818 18.0524 60.6308C17.9288 60.6696 17.8028 60.6891 17.6769 60.6891L17.6776 60.6883ZM11.2347 38.3074C8.79504 38.3074 8.39931 38.8647 8.39387 38.8725C8.14585 39.3196 8.38609 41.8051 10.7255 46.6161C12.3815 50.023 14.5794 53.5517 16.8387 56.4749C17.4172 52.8523 18.6977 46.2862 21.1405 39.7946C19.8336 39.4826 17.7375 39.02 15.5777 38.6947C13.6768 38.4083 12.2711 38.3074 11.2347 38.3074Z" fill="#2C221E"/>
<path d="M84.7988 30.0461C84.7988 30.0461 76.1262 23.6733 66.2041 19.925C66.2041 19.925 72.7092 7.46656 76.1394 8.07046C78.9896 8.5719 83.8068 20.5537 84.7988 30.0461Z" fill="#FAD5B7"/>
<path d="M78.9911 21.7724C82.3731 22.4523 82.6453 19.9219 82.6476 19.9172C83.6606 23.2076 84.4575 26.7744 84.7988 30.0461C84.7988 30.0461 76.1262 23.6733 66.2041 19.925C66.2041 19.925 72.7092 7.46656 76.1394 8.07046C77.8335 8.36853 80.2219 12.7216 82.0894 18.1971C82.087 18.194 79.3325 11.7016 76.4348 12.5027C73.5745 13.2937 72.2855 20.4233 78.9904 21.7716L78.9911 21.7724Z" fill="#CFA582"/>
<path d="M84.7986 31.2881C84.539 31.2881 84.2801 31.2066 84.0616 31.0467C83.9761 30.9838 75.4021 24.7275 65.7638 21.087C65.4311 20.9612 65.1683 20.6996 65.0416 20.3674C64.9148 20.036 64.9366 19.6657 65.1007 19.3505C65.1683 19.2209 66.7839 16.1385 68.8543 13.0755C71.9665 8.47254 74.3502 6.49394 76.3553 6.84712C80.444 7.56668 85.1376 21.3214 86.0356 29.9165C86.0869 30.4055 85.8436 30.8783 85.4167 31.1228C85.2239 31.233 85.0109 31.2873 84.7986 31.2873V31.2881ZM67.9703 19.2822C74.4093 21.8834 80.1151 25.3896 83.1768 27.4171C82.5533 23.7781 81.4407 19.7744 80.0514 16.2503C78.0898 11.2739 76.4214 9.4141 75.9199 9.29301C75.9121 9.28913 74.5376 9.11525 70.927 14.451C69.7041 16.2573 68.6265 18.1117 67.9711 19.2822H67.9703Z" fill="#2C221E"/>
<path d="M45.8294 84.1677C49.8051 82.4262 51.4188 77.3526 49.4338 72.8357C47.4487 68.3188 42.6166 66.0689 38.641 67.8105C34.6653 69.552 33.0516 74.6256 35.0366 79.1425C37.0216 83.6594 41.8537 85.9093 45.8294 84.1677Z" fill="#2C221E"/>
<path d="M46.1777 77.6236C47.5838 77.0076 48.0868 75.059 47.3011 73.2713C46.5154 71.4835 44.7387 70.5335 43.3326 71.1495C41.9265 71.7654 41.4235 73.714 42.2092 75.5018C42.9949 77.2896 44.7716 78.2395 46.1777 77.6236Z" fill="white"/>
<g opacity="0.4">
<path d="M41.2818 82.0693C42.3132 81.6175 42.6821 80.1884 42.1059 78.8772C41.5297 77.566 40.2265 76.8693 39.1951 77.3211C38.1637 77.7729 37.7948 79.2021 38.371 80.5133C38.9472 81.8245 40.2504 82.5211 41.2818 82.0693Z" fill="white"/>
</g>
<path d="M83.9588 67.4645C87.9345 65.7229 89.5482 60.6494 87.5632 56.1325C85.5781 51.6155 80.746 49.3657 76.7704 51.1072C72.7947 52.8488 71.181 57.9223 73.166 62.4392C75.151 66.9562 79.9831 69.206 83.9588 67.4645Z" fill="#2C221E"/>
<path d="M78.8999 63.2891C80.306 62.6732 80.8089 60.7246 80.0233 58.9368C79.2376 57.149 77.4608 56.1991 76.0547 56.815C74.6487 57.431 74.1457 59.3796 74.9314 61.1673C75.717 62.9551 77.4938 63.9051 78.8999 63.2891Z" fill="white"/>
<g opacity="0.4">
<path d="M85.4917 62.7019C86.5231 62.2501 86.8921 60.8209 86.3159 59.5097C85.7396 58.1985 84.4364 57.5019 83.4051 57.9537C82.3737 58.4055 82.0047 59.8347 82.5809 61.1458C83.1572 62.457 84.4604 63.1537 85.4917 62.7019Z" fill="white"/>
</g>
<path d="M70.8158 73.052C70.8158 73.052 74.0548 81.9351 68.6257 84.3127C63.1966 86.691 58.8428 78.2962 58.8428 78.2962L70.8158 73.052Z" fill="#2C221E"/>
<path d="M71.7364 79.3596C71.57 81.3926 70.784 83.3673 68.6257 84.3127C66.4667 85.2581 64.4794 84.4982 62.8685 83.2439C61.9115 81.0658 63.716 79.1058 66.3842 79.2121C68.1133 77.18 70.7793 77.1815 71.7364 79.3596Z" fill="#F8CAA4"/>
<path d="M67.6164 78.1767C66.5466 78.9102 66.9766 80.562 66.9766 80.562C66.9766 80.562 66.0506 79.1268 64.7856 79.4163L65.7528 77.7754L67.6164 78.1759V78.1767Z" fill="#2C221E"/>
<path d="M66.6297 85.6804C61.6858 85.6804 58.1817 79.0491 58.013 78.7246C57.7759 78.2682 57.9547 77.7062 58.4119 77.4702C58.8682 77.2335 59.4319 77.412 59.669 77.8677C59.7095 77.9437 63.6886 85.4568 68.2492 83.4604C72.8114 81.4624 69.9666 73.4509 69.9371 73.3702C69.7614 72.8866 70.0117 72.3526 70.4961 72.1772C70.9805 72.0025 71.5146 72.2501 71.6911 72.7337C71.8357 73.1304 75.1578 82.4683 68.9987 85.1665C68.1792 85.5251 67.387 85.6811 66.629 85.6811L66.6297 85.6804Z" fill="#2C221E"/>
<path d="M72.1407 70.6899C72.496 77.2863 66.9448 77.2001 64.6272 75.2145C64.5214 78.262 60.8254 82.3985 56.2049 77.6705C54.4283 73.6279 70.3641 66.6481 72.1407 70.6907V70.6899Z" fill="white"/>
<path d="M72.1407 70.6899C72.496 77.2863 66.9448 77.2001 64.6272 75.2145C64.5214 78.262 60.8254 82.3985 56.2049 77.6705C54.4283 73.6279 70.3641 66.6481 72.1407 70.6907V70.6899Z" fill="white"/>
<path d="M63.344 72.2952C63.2398 75.2976 60.2427 79.1733 56.1089 77.3717C56.1314 77.4726 56.161 77.5727 56.2037 77.6697C60.825 82.3977 64.5203 78.2612 64.6261 75.2138C66.9437 77.1994 72.4948 77.2855 72.1395 70.6892C72.0968 70.5914 72.0431 70.5021 71.984 70.4175C70.5131 74.6743 65.6267 74.2513 63.3432 72.2952H63.344Z" fill="#B8C8E0"/>
<path d="M72.4504 70.6729C73.9821 74.4912 71.2446 78.335 67.0913 77.7296C65.88 77.5588 64.7247 77.0659 63.8166 76.1562L65.8699 75.2565C65.9244 80.1188 60.3701 82.9528 56.9197 79.1322C56.552 78.748 56.2487 78.3234 55.9813 77.8856C55.8896 77.7358 55.937 77.5394 56.0878 77.4478C56.1959 77.3818 56.3273 77.3881 56.4268 77.4517C57.8783 78.3032 59.4488 79.1726 61.0395 78.5074C62.2773 77.9586 63.113 76.4566 63.3836 75.1696L63.7902 73.3168L65.4369 74.27C67.222 75.3349 69.8366 75.418 70.8745 73.2593C71.2881 72.5545 71.5315 71.6611 71.8292 70.704C71.8977 70.4051 72.3517 70.3834 72.4504 70.6706V70.6729Z" fill="#2C221E"/>
<path d="M63.6541 71.4561L65.7657 74.7154L63.4877 75.7129L62.5151 71.9552L63.6541 71.4561Z" fill="#2C221E"/>
<path d="M93.7394 59.9719C98.5061 53.4268 107.618 49.3322 115.536 52.0575C115.865 52.1724 115.777 52.6808 115.424 52.6684C111.551 52.6265 107.861 53.3228 104.352 54.8597C100.88 56.3501 97.6664 58.4831 94.6716 60.7939C94.125 61.2744 93.3234 60.5735 93.7394 59.9719Z" fill="#2C221E"/>
<path d="M94.8411 68.442C101.863 62.7562 112.725 59.7281 121.244 63.6023C121.561 63.749 121.421 64.2512 121.067 64.1976C116.623 63.6333 112.274 63.8794 107.954 64.9032C103.673 65.8976 99.5106 67.5463 95.5501 69.4612C94.9025 69.8191 94.2704 68.9272 94.8403 68.4413L94.8411 68.442Z" fill="#2C221E"/>
<path d="M33.6533 87.5209C26.1072 88.7396 18.7555 91.3439 13.6117 97.2633C13.3917 97.5296 12.9369 97.2455 13.0854 96.9319C16.4394 89.2698 25.6252 85.3491 33.6782 86.279C34.402 86.3861 34.3803 87.4433 33.6526 87.5209H33.6533Z" fill="#2C221E"/>
<path d="M39.4456 94.0366C31.2433 97.2238 23.3877 101.862 18.2867 109.218C18.0939 109.506 17.6134 109.282 17.7285 108.944C19.9085 102.169 26.0047 97.2796 32.4281 94.6661C34.5981 93.7921 36.8185 93.1144 39.1742 92.8249C39.5163 92.783 39.8281 93.0259 39.8701 93.3675C39.9074 93.6702 39.7216 93.945 39.4448 94.0374L39.4456 94.0366Z" fill="#2C221E"/>
<path d="M30.1103 60.9436C29.6772 59.4743 30.0675 55.4938 32.225 53.3661C34.3825 51.2377 36.5151 52.0784 36.4855 53.7217C36.4575 55.3067 34.7728 59.031 32.2608 61.2852C31.6427 61.8402 30.5433 62.413 30.1103 60.9429V60.9436Z" fill="#2C221E"/>
<path d="M77.483 40.1937C76.6931 38.8803 73.4961 36.4717 70.4663 36.6153C67.4373 36.7589 66.6124 38.895 67.8432 39.9864C69.0304 41.039 72.9161 42.3236 76.2787 42.0054C77.1067 41.927 78.2729 41.507 77.483 40.1937Z" fill="#2C221E"/>
<path d="M47.5887 50.2124C46.4046 54.6237 41.2173 54.4918 40.2245 49.4773C39.028 43.4321 42.029 22.0665 51.1969 15.3832C52.8249 14.1964 56.0102 13.0119 57.5193 14.1995C46.6161 27.0103 48.3879 47.2341 47.5887 50.2124Z" fill="#E3B28A"/>
<path d="M57.0056 13.9138C43.1557 22.5765 47.6464 51.289 41.6567 52.3548C43.5919 54.2643 46.7049 53.5044 47.5888 50.2124C48.3881 47.234 46.617 27.0095 57.5195 14.1995C57.3655 14.0784 57.1906 13.9876 57.0056 13.9138Z" fill="#CD9364"/>
<g opacity="0.5">
<path d="M51.1969 15.3833C42.029 22.0666 39.028 43.4322 40.2245 49.4774C40.656 51.6563 41.8789 52.9122 43.2216 53.2747C40.7298 46.1909 44.0224 17.3914 56.6431 14.1475C56.8095 14.1048 56.9518 14.0187 57.1026 13.955C55.4831 13.2153 52.6881 14.2958 51.1961 15.3833H51.1969Z" fill="white"/>
</g>
<path d="M44.0606 54.6291C44.0093 54.6291 43.958 54.6291 43.9059 54.6268C41.5027 54.5469 39.5793 52.6203 39.0039 49.7187C37.8043 43.6564 40.6716 21.5193 50.4631 14.3804C52.4666 12.9203 56.2202 11.5953 58.2891 13.2246L59.3029 14.0225L58.4671 15.0044C50.0541 24.8889 49.4283 39.5029 49.1274 46.5261C49.0434 48.4962 48.9874 49.7979 48.7892 50.5346C48.1174 53.0387 46.271 54.6291 44.0598 54.6291H44.0606ZM55.3083 14.9827C54.233 15.1364 52.874 15.6984 51.9302 16.3869C43.0794 22.8389 40.3575 43.7457 41.4452 49.2375C41.7865 50.9638 42.7856 52.1049 43.9891 52.1452C45.0729 52.1809 46.0043 51.3185 46.3868 49.8926C46.5135 49.4199 46.5734 48.0297 46.6426 46.4206C46.9396 39.4796 47.5429 25.4058 55.3083 14.9835V14.9827Z" fill="#2C221E"/>
<path d="M63.7974 73.3268C62.4524 73.9159 58.8029 73.0116 58.3963 71.7386C57.9267 70.2762 61.3849 68.7564 61.7239 68.6081C62.0628 68.4599 65.5249 66.9478 66.2845 68.2837C66.9477 69.4441 65.1424 72.7376 63.7974 73.3268Z" fill="#2C221E"/>
<g opacity="0.4">
<path d="M62.7507 70.9454C62.0611 71.2474 60.3227 71.0828 60.1905 70.6039C60.0374 70.0535 61.81 69.2757 61.9841 69.1997C62.1583 69.1236 63.9317 68.3482 64.2334 68.8333C64.4969 69.2548 63.4403 70.6434 62.7507 70.9454Z" fill="white"/>
</g>
<path d="M135.731 100.391C126.336 100.048 120.641 86.2284 124.8 73.5348C130.65 55.6809 151.884 61.9318 150.871 79.965C150.262 90.7988 144.417 100.709 135.732 100.391H135.731Z" fill="white"/>
<path d="M125.099 80.2157C125.029 89.4994 129.32 96.8681 135.916 97.4045C142.966 97.9781 148.137 90.6986 149.135 81.7845C142.226 96.1182 128.346 93.3875 125.099 80.215V80.2157Z" fill="#B8C8E0"/>
<path d="M142.96 87.9192C143.525 83.7808 141.092 80.032 137.526 79.5462C133.959 79.0603 130.61 82.0213 130.044 86.1598C129.479 90.2982 131.911 94.0469 135.478 94.5328C139.044 95.0187 142.394 92.0577 142.96 87.9192Z" fill="#FAD5B7"/>
<path d="M142.528 89.6919C138.317 92.293 133.637 91.7947 130.088 88.8024C130.604 91.7901 132.697 94.1552 135.48 94.5348C138.513 94.9477 141.387 92.8682 142.528 89.6919Z" fill="#CFA582"/>
<path d="M147.708 77.5033C147.959 75.6671 146.879 74.0037 145.296 73.7881C143.714 73.5725 142.227 74.8863 141.976 76.7226C141.725 78.5588 142.805 80.2221 144.388 80.4378C145.97 80.6534 147.457 79.3396 147.708 77.5033Z" fill="#FAD5B7"/>
<path d="M140.784 72.4296C141.035 70.5934 139.956 68.93 138.373 68.7144C136.79 68.4988 135.304 69.8126 135.053 71.6488C134.802 73.4851 135.882 75.1484 137.464 75.364C139.047 75.5796 140.533 74.2658 140.784 72.4296Z" fill="#FAD5B7"/>
<path d="M133.371 76.2105C133.622 74.3742 132.542 72.7109 130.959 72.4953C129.377 72.2797 127.89 73.5935 127.639 75.4297C127.388 77.266 128.468 78.9293 130.051 79.1449C131.633 79.3605 133.12 78.0467 133.371 76.2105Z" fill="#FAD5B7"/>
<path d="M136.147 101.64C135.994 101.64 135.841 101.637 135.686 101.632C131.99 101.497 128.589 99.4684 126.11 95.9203C121.994 90.0288 121.016 81.0898 123.618 73.1482C126.878 63.197 134.337 60.8497 139.732 61.865C146.119 63.0659 152.718 69.264 152.112 80.0349C151.518 90.6047 145.731 101.64 136.147 101.641L136.147 101.64ZM137.314 64.1231C133.094 64.1231 128.361 66.659 125.982 73.9206C123.615 81.1472 124.465 89.2246 128.15 94.4991C129.58 96.546 132.064 99.0136 135.777 99.1494C135.899 99.1541 136.021 99.1564 136.142 99.1564C144.203 99.1564 149.099 89.3139 149.628 79.8952C150.15 70.6193 144.625 65.3115 139.272 64.3055C138.641 64.1867 137.984 64.1231 137.314 64.1231Z" fill="#2C221E"/>
</g>
<defs>
<clipPath id="clip0_103_1464">
<rect width="215" height="261" fill="white"/>
</clipPath>
</defs>
</svg>
