<svg width="120" height="120" viewBox="0 0 120 120" fill="none" xmlns="http://www.w3.org/2000/svg">
<path d="M82 93.1178H33.9976C33.2715 93.1178 32.7955 92.6417 32.5574 92.0347L26.5586 71.0388C26.4396 70.5627 26.5586 70.0748 26.7966 69.7177C27.0347 69.3606 27.5227 69.1226 27.9988 69.1226H70.0024C70.8474 69.1226 71.5616 69.8367 71.5616 70.6818V74.4072C71.5616 75.6094 72.5257 76.6925 73.8468 76.6925C75.168 76.6925 76.1321 75.7284 76.1321 74.4072V70.6818C76.1321 69.8367 76.8462 69.1226 77.6913 69.1226H88.0107C88.4868 69.1226 88.9748 69.3606 89.2128 69.7177C89.4509 70.0748 89.5699 70.5627 89.4509 71.0388L83.4521 92.0347C83.214 92.6298 82.726 93.1178 82.0119 93.1178H82ZM35.0807 90.1184H80.7978L85.9635 72.122H79.0006V74.4072C79.0006 77.2876 76.5963 79.6919 73.7159 79.6919C70.8355 79.6919 68.4312 77.2876 68.4312 74.4072V72.122H30.0341L35.0688 90.1184H35.0807Z" fill="#2c221e"/>
<path d="M69.9905 72.1102H24.9994C24.1543 72.1102 23.4402 71.3841 23.4402 70.5509V64.5521C23.4402 63.7071 24.1543 62.9929 24.9994 62.9929H70.0024C70.8475 62.9929 71.5616 63.7071 71.5616 64.5521V70.5509C71.5616 71.396 70.8355 72.1102 70.0024 72.1102H69.9905ZM26.5467 69.1108H68.5503V66.1113H26.5586V69.1108H26.5467Z" fill="#2c221e"/>
<path d="M90.9982 72.1102H77.5604C76.7154 72.1102 76.0012 71.3841 76.0012 70.5509V64.5521C76.0012 63.7071 76.7273 62.9929 77.5604 62.9929H91.1173C91.9623 62.9929 92.6765 63.7071 92.6765 64.5521V70.5509C92.5575 71.396 91.8314 72.1102 90.9982 72.1102ZM79.0006 69.1108H89.5581V66.1113H79.0006V69.1108Z" fill="#2c221e"/>
<path d="M26.5586 52.6734C24.0353 52.6734 22 50.6381 22 48.1148C22 45.5915 24.0353 43.5562 26.5586 43.5562C29.0819 43.5562 31.1172 45.5915 31.1172 48.1148C31.1172 50.6381 28.9629 52.6734 26.5586 52.6734ZM26.5586 46.6746C25.7135 46.6746 24.9994 47.3887 24.9994 48.2338C24.9994 49.0789 25.7135 49.793 26.5586 49.793C27.4037 49.793 27.9988 48.9479 27.9988 48.1148C27.9988 47.2816 27.2728 46.6746 26.5586 46.6746Z" fill="#2c221e"/>
<path d="M48.9947 42.116C44.9121 42.116 41.4366 38.7596 41.4366 34.558C41.4366 30.3565 44.7931 27 48.9947 27C53.1962 27 56.5527 30.3565 56.5527 34.558C56.5527 38.7596 53.0772 42.116 48.9947 42.116ZM48.9947 30.1184C46.4714 30.1184 44.4361 32.1537 44.4361 34.677C44.4361 37.2004 46.4714 39.2357 48.9947 39.2357C51.518 39.2357 53.5533 37.2004 53.5533 34.677C53.5533 32.1537 51.518 30.1184 48.9947 30.1184Z" fill="#2c221e"/>
<path d="M86.9157 48.591C86.5586 48.591 86.3205 48.472 85.9516 48.2339C84.3924 47.0318 82.4761 46.4366 80.4289 46.4366C79.8337 46.4366 79.2267 46.5557 78.5126 46.6747C77.9175 46.7937 77.1914 46.5557 76.9534 45.9486C76.2392 44.7465 75.8702 43.5444 75.8702 42.1042C75.8702 38.0216 79.2267 34.5461 83.4283 34.5461C87.6298 34.5461 90.9863 37.9026 90.9863 42.1042C90.9863 44.6275 89.7841 46.9008 87.7488 48.341C87.5108 48.46 87.1537 48.5791 86.9038 48.5791L86.9157 48.591ZM80.5598 43.4253C82.8331 43.4253 84.9994 44.0205 86.7966 45.2226C87.5227 44.3775 87.9988 43.3063 87.9988 42.1042C87.9988 39.5809 85.9635 37.5455 83.4402 37.5455C80.9169 37.5455 78.8815 39.5809 78.8815 42.1042C78.8815 42.5803 79.0006 43.0683 79.1196 43.4253H80.5598Z" fill="#2c221e"/>
<path d="M73.716 79.6681C70.8356 79.6681 68.4313 77.2638 68.4313 74.3835V66.0994H28.1179C27.6418 66.0994 27.2728 65.8613 26.9157 65.5043C26.6777 65.1472 26.5587 64.6592 26.6777 64.1831C27.1538 61.7788 28.832 59.8625 31.1173 58.8984C31.5934 56.0181 33.9977 53.8637 36.9971 53.8637H37.1161C37.8421 49.6622 41.5557 46.3057 45.9953 46.3057C47.9116 46.3057 49.7207 46.9008 51.2799 47.9839C52.8392 46.9008 54.6364 46.3057 56.5646 46.3057C57.1597 46.3057 57.8858 46.4247 58.4809 46.5437C59.683 42.9492 63.0395 40.3069 67.003 40.3069C70.2405 40.3069 73.2399 41.9851 74.7991 44.7465C75.7632 44.1514 76.9534 43.7824 78.0365 43.5443C78.8816 43.4253 79.7148 43.3063 80.5598 43.3063C83.2022 43.3063 85.7136 44.1514 87.8798 45.8296C90.8792 48.1149 92.5575 51.5904 92.5575 55.3039C92.5575 59.0175 90.8792 62.5049 87.9988 64.7782C87.9988 65.0163 87.8798 65.2543 87.6418 65.5043C87.2847 65.8613 86.7967 66.0994 86.4396 66.0994H79.0006V74.3835C79.0006 77.2638 76.5963 79.6681 73.716 79.6681ZM30.5102 63.1119H69.9905C70.8356 63.1119 71.5497 63.826 71.5497 64.6711V74.3954C71.5497 75.5975 72.5138 76.6806 73.835 76.6806C75.1562 76.6806 76.1202 75.7165 76.1202 74.3954V64.6711C76.1202 63.826 76.8344 63.1119 77.6795 63.1119H85.4755C85.5549 63.0325 85.6342 62.9532 85.7136 62.8738C88.2369 61.1956 89.6771 58.4342 89.6771 55.4348C89.6771 52.4354 88.3559 50.0311 86.2016 48.2339C84.6424 47.0317 82.7261 46.4366 80.6789 46.4366C80.0837 46.4366 79.4767 46.5556 78.7626 46.6747C77.4414 46.9127 76.2393 47.5197 75.1681 48.3529C74.811 48.591 74.323 48.71 73.8469 48.591C73.3708 48.4719 73.0018 48.1149 72.8828 47.6269C72.0496 45.1035 69.7644 43.5443 67.122 43.5443C64.1226 43.5443 61.4803 45.8296 61.1232 48.829C61.1232 49.3051 60.7661 49.6741 60.3972 49.9121C60.0401 50.1502 59.4331 50.1502 59.076 50.0311C58.3619 49.6741 57.5168 49.555 56.6717 49.555C55.1125 49.555 53.5533 50.1502 52.4702 51.2333C51.8751 51.8284 50.911 51.8284 50.3158 51.2333C49.2327 50.1502 47.6735 49.555 46.1143 49.555C42.7578 49.555 40.1155 52.1974 40.1155 55.5539V55.6729C40.1155 56.149 39.8774 56.637 39.5204 56.9941C39.1633 57.2321 38.5563 57.3511 38.0802 57.2321C37.7231 57.1131 37.366 57.1131 37.1161 57.1131C35.4378 57.1131 34.1167 58.4342 34.1167 60.1125V60.2315C34.1167 60.9456 33.6406 61.5527 33.0336 61.7907C31.9504 61.7907 31.1173 62.3858 30.5102 63.1119Z" fill="#2c221e"/>
</svg>
