<svg width="120" height="120" viewBox="0 0 120 120" fill="none" xmlns="http://www.w3.org/2000/svg">
<g clip-path="url(#clip0_31_121)">
<path d="M85.5756 75.5327H35.4244C34.7669 75.5327 34.1691 75.1125 33.93 74.4822L18.0896 32.161C17.7908 31.3206 18.2092 30.4202 19.046 30.09C19.8829 29.7898 20.7795 30.18 21.1083 31.0205L36.5302 72.3211H84.4996L99.8917 31.0505C100.191 30.2101 101.117 29.8199 101.954 30.12C102.791 30.4202 103.179 31.3506 102.88 32.191L87.0699 74.5422C86.8308 75.1725 86.2331 75.5927 85.5756 75.5927V75.5327Z" fill="#2c221e"/>
<path d="M74.3678 48.1891C70.6318 48.1891 68.7489 45.5178 67.2246 43.3867C65.7004 41.2557 64.6842 39.935 62.6818 39.935C60.6793 39.935 59.6631 41.2557 58.1389 43.3867C56.6146 45.5178 54.7317 48.1891 50.9957 48.1891C47.2598 48.1891 45.3769 45.5178 43.8526 43.3867C42.3284 41.2557 41.3122 39.935 39.3097 39.935C37.3073 39.935 36.2911 41.2557 34.7668 43.3867C33.2426 45.5178 31.3597 48.1891 27.6237 48.1891C26.3087 48.1891 25.1132 47.859 24.0372 47.1686C23.2901 46.7184 23.051 45.7279 23.5292 44.9775C23.9775 44.2272 24.9638 43.987 25.7109 44.4673C26.2788 44.8275 26.9064 45.0075 27.6237 45.0075C29.6262 45.0075 30.6424 43.6869 32.1666 41.5558C33.6909 39.4248 35.5738 36.7534 39.3097 36.7534C43.0457 36.7534 44.9286 39.4248 46.4529 41.5558C47.9771 43.6869 48.9933 45.0075 50.9957 45.0075C52.9982 45.0075 54.0144 43.6869 55.5386 41.5558C57.0629 39.4248 58.9458 36.7534 62.6818 36.7534C66.4177 36.7534 68.3006 39.4248 69.8249 41.5558C71.3491 43.6869 72.3653 45.0075 74.3678 45.0075C76.3702 45.0075 77.4163 43.6869 78.9106 41.5558C80.4349 39.4248 82.3178 36.7534 86.0538 36.7534C89.7897 36.7534 91.7025 39.4248 93.1969 41.5558C94.1832 42.9665 95.1395 44.2872 96.4247 44.7974C97.2616 45.0976 97.6501 46.0281 97.3512 46.8685C97.0524 47.7089 96.1258 48.1291 95.289 47.7989C93.0773 46.9585 91.7623 45.0976 90.5668 43.4167C89.0425 41.2857 88.0263 39.965 86.0239 39.965C84.0214 39.965 82.9753 41.2857 81.481 43.4167C79.9567 45.5478 78.0738 48.2192 74.3379 48.2192L74.3678 48.1891Z" fill="#2c221e"/>
<path d="M86.5619 83.0964H34.4381C33.5714 83.0964 32.8541 82.376 32.8541 81.5056C32.8541 80.6352 33.5714 79.9148 34.4381 79.9148H86.5918C87.4585 79.9148 88.1758 80.6352 88.1758 81.5056C88.1758 82.376 87.4585 83.0964 86.5918 83.0964H86.5619Z" fill="#2c221e"/>
<path d="M86.5619 89.9999H34.4381C33.5714 89.9999 32.8541 89.2796 32.8541 88.4092C32.8541 87.5387 33.5714 86.8184 34.4381 86.8184H86.5918C87.4585 86.8184 88.1758 87.5387 88.1758 88.4092C88.1758 89.2796 87.4585 89.9999 86.5918 89.9999H86.5619Z" fill="#2c221e"/>
</g>
<defs>
<clipPath id="clip0_31_121">
<rect width="85" height="60" fill="white" transform="translate(18 30)"/>
</clipPath>
</defs>
</svg>
