<svg width="120" height="120" viewBox="0 0 120 120" fill="none" xmlns="http://www.w3.org/2000/svg">
<g clip-path="url(#clip0_23_978)">
<path d="M18.7479 80.7958C18.2862 80.7958 17.8575 80.6304 17.5277 80.2995C17.1649 79.9687 16.967 79.5056 16.967 79.0093V41.9577C16.967 40.9983 17.7585 40.2043 18.715 40.2043C19.6714 40.2043 20.4629 40.9983 20.4629 41.9577V77.0244C25.5087 76.2635 39.558 73.0215 45.1975 59.7888C48.7593 51.4853 54.7946 45.7621 62.182 43.6118C69.4375 41.4945 77.4185 42.9501 84.1134 47.5816C84.9049 48.144 85.1028 49.2357 84.5751 50.0297C84.0144 50.8236 82.9261 51.0221 82.1346 50.4928C76.3302 46.4899 69.4045 45.1997 63.1714 47.0192C56.7074 48.9049 51.5956 53.801 48.4295 61.2113C40.6793 79.4394 19.7373 80.7296 18.8469 80.7958C18.8469 80.7958 18.7809 80.7958 18.7479 80.7958Z" fill="#2c221e"/>
<path d="M18.7479 80.7958C17.7915 80.7958 17 80.0018 17 79.0425V41.9577C17 41.4615 17.1979 40.9984 17.5607 40.6675C17.9234 40.3367 18.3851 40.1382 18.8469 40.1713C19.7373 40.2044 40.6793 41.5277 48.4955 59.7558C48.8912 60.649 48.4955 61.6745 47.572 62.0715C46.6816 62.4685 45.6592 62.0715 45.2635 61.1452C39.591 47.9125 25.5747 44.6704 20.5288 43.9426V79.0425C20.5288 80.0018 19.7373 80.7958 18.7809 80.7958H18.7479Z" fill="#2c221e"/>
<path d="M102.252 80.7958C101.296 80.7958 100.504 80.0018 100.504 79.0425V43.9426C95.4584 44.7035 81.4091 47.9455 75.7696 61.1783C72.2078 69.4818 66.1726 75.205 58.7851 77.3553C51.5296 79.4725 43.5156 78.0169 36.8537 73.3855C36.0622 72.8231 35.8644 71.7314 36.392 70.9374C36.9527 70.1434 38.041 69.945 38.8325 70.4743C44.6369 74.4772 51.5626 75.7674 57.7957 73.9479C64.2597 72.0622 69.3716 67.1661 72.5376 59.7558C80.3537 41.4946 101.296 40.2044 102.186 40.1713C102.648 40.1382 103.143 40.3367 103.472 40.6675C103.835 40.9984 104.033 41.4615 104.033 41.9577V79.0094C104.033 79.9688 103.242 80.7627 102.285 80.7627L102.252 80.7958Z" fill="#2c221e"/>
<path d="M102.252 80.7958C102.252 80.7958 102.186 80.7958 102.153 80.7958C101.263 80.7627 80.3208 79.4394 72.5046 61.2113C72.1089 60.3181 72.5046 59.2926 73.428 58.8956C74.3185 58.4986 75.3409 58.8956 75.7366 59.8219C81.4091 73.0546 95.4254 76.3297 100.471 77.0575V41.9577C100.471 40.9983 101.263 40.2043 102.219 40.2043C103.176 40.2043 103.967 40.9983 103.967 41.9577V79.0093C103.967 79.5056 103.769 79.9687 103.406 80.2995C103.077 80.5973 102.648 80.7958 102.186 80.7958H102.252Z" fill="#2c221e"/>
<path d="M41.9985 89.0001C41.6687 89.0001 41.306 88.9008 41.0091 88.6693C40.2176 88.1069 40.0198 87.0152 40.5804 86.2212L77.5505 32.761C78.1111 31.967 79.1994 31.7685 79.9909 32.3309C80.7825 32.8933 80.9803 33.985 80.4197 34.779L43.4166 88.2392C43.0869 88.7354 42.5262 89.0001 41.9655 89.0001H41.9985Z" fill="#2c221e"/>
<path d="M79.0016 89.0001C78.4409 89.0001 77.9132 88.7354 77.5505 88.2392L40.5804 34.779C40.0198 33.985 40.2176 32.8933 41.0091 32.3309C41.8007 31.7685 42.889 31.967 43.4496 32.761L80.4527 86.2212C81.0133 87.0152 80.8154 88.1069 80.0239 88.6693C79.7271 88.8678 79.3643 89.0001 79.0345 89.0001H79.0016Z" fill="#2c221e"/>
</g>
<defs>
<clipPath id="clip0_23_978">
<rect width="87" height="57" fill="white" transform="translate(17 32)"/>
</clipPath>
</defs>
</svg>
