<svg width="120" height="120" viewBox="0 0 120 120" fill="none" xmlns="http://www.w3.org/2000/svg">
<path d="M82.6004 89.9713H37.3996C33.327 89.9713 30 86.646 30 82.5753V37.3961C30 33.3254 33.327 30 37.3996 30H82.6004C86.673 30 90 33.3254 90 37.3961V82.6039C90 86.6746 86.673 90 82.6004 90V89.9713ZM37.3996 33.0674C35.0191 33.0674 33.0688 35.0167 33.0688 37.3961V82.6039C33.0688 84.9833 35.0191 86.9326 37.3996 86.9326H82.6004C84.9809 86.9326 86.9312 84.9833 86.9312 82.6039V37.3961C86.9312 35.0167 84.9809 33.0674 82.6004 33.0674H37.3996Z" fill="#2c221e"/>
<path d="M74.2543 61.5186H45.7744C44.9426 61.5186 44.2543 60.8306 44.2543 59.9993C44.2543 59.1679 44.9426 58.4799 45.7744 58.4799H74.2543C75.086 58.4799 75.7744 59.1679 75.7744 59.9993C75.7744 60.8306 75.086 61.5186 74.2543 61.5186Z" fill="#2c221e"/>
</svg>
