<svg width="120" height="120" viewBox="0 0 120 120" fill="none" xmlns="http://www.w3.org/2000/svg">
<g clip-path="url(#clip0_22_927)">
<path d="M86.1656 90H34.8344C34.1614 90 33.5496 89.5705 33.3048 88.9264L17.0918 45.6748C16.7859 44.8159 17.2141 43.8957 18.0401 43.5583C18.866 43.2515 19.8143 43.681 20.1508 44.5092L35.9356 86.7178H85.0337L100.819 44.5092C101.124 43.6503 102.073 43.2515 102.929 43.5583C103.786 43.865 104.184 44.8159 103.878 45.6748L87.6951 88.957C87.4504 89.6012 86.8386 90.0307 86.1656 90.0307V90Z" fill="#2c221e"/>
<path d="M96.75 61.7176C96.5664 61.7176 96.3523 61.6869 96.1688 61.6256C93.905 60.7667 92.5591 58.8649 91.3354 57.1471C89.7753 54.9691 88.7352 53.6195 86.6856 53.6195C85.7985 53.6195 85.0643 52.8833 85.0643 51.9937C85.0643 51.1041 85.7985 50.3679 86.6856 50.3679C90.5095 50.3679 92.4673 53.098 93.9968 55.2759C95.0063 56.7176 95.9852 58.0673 97.3006 58.5888C98.1572 58.8955 98.5548 59.8464 98.2489 60.7053C98.0042 61.3495 97.3924 61.779 96.7194 61.779L96.75 61.7176Z" fill="#2c221e"/>
<path d="M26.8808 62.055C25.5348 62.055 24.3112 61.7176 23.2099 61.0121C22.4452 60.552 22.2004 59.5397 22.6899 58.7728C23.1487 58.006 24.1582 57.7606 24.923 58.2514C25.5042 58.6195 26.1466 58.8035 26.8808 58.8035C28.9304 58.8035 29.9705 57.4538 31.5306 55.2759C33.0907 53.098 35.0179 50.3679 38.8418 50.3679C41.7173 50.3679 43.4304 51.9017 44.4705 53.0673C45.0823 53.7422 45.0211 54.7851 44.3481 55.3679C43.6751 55.9814 42.635 55.9201 42.0538 55.2452C41.0137 54.1103 40.096 53.6195 38.8724 53.6195C36.8228 53.6195 35.7827 54.9691 34.2226 57.1471C32.6625 59.325 30.7352 62.055 26.9114 62.055H26.8808Z" fill="#2c221e"/>
<path d="M86.5633 38.8343C85.8597 38.2515 84.8502 38.3435 84.269 39.049L79.6804 44.6318C79.3745 44.9999 79.2521 45.4907 79.3439 45.9815L79.6804 47.6686C80.231 50.46 79.4968 53.3128 77.692 55.5214L65.9145 69.8159L61.693 74.9386C61.2036 75.5214 60.347 75.6134 59.7658 75.1226C59.1846 74.6318 59.0928 73.7729 59.5823 73.1901L69.2489 61.4416C69.8302 60.7361 69.7384 59.7239 69.0348 59.141C68.3312 58.5582 67.3217 58.6809 66.7405 59.3558L57.0738 71.1042L54.5348 74.1717C54.2901 74.4478 53.9842 74.6318 53.6171 74.6625C53.25 74.6932 52.8829 74.6012 52.6076 74.3558C52.3323 74.1104 52.1487 73.8036 52.1181 73.4355C52.0875 73.0674 52.1793 72.73 52.424 72.4232L58.9705 64.4478L64.6297 57.5766C65.211 56.8711 65.1192 55.8588 64.4156 55.276C63.712 54.6932 62.7025 54.8159 62.1213 55.4907L59.7658 58.3435L56.462 62.3619L49.9156 70.3373L47.5601 73.1901C47.3154 73.4662 47.0095 73.6502 46.6424 73.6809C46.2753 73.7116 45.9082 73.6196 45.6329 73.3742C45.0517 72.8834 44.9599 72.0245 45.4494 71.4416L48.4472 67.7913L49.0897 66.9938L57.6551 56.595L60.6529 52.9447C61.2342 52.2392 61.1424 51.2269 60.4388 50.6441C59.7352 50.0613 58.7257 50.184 58.1445 50.8588L46.5812 64.9079L45.9388 65.7054C45.6941 65.9815 45.3882 66.1656 45.0211 66.1962C44.654 66.2269 44.2869 66.1349 44.0116 65.8895C43.4304 65.3987 43.3386 64.5398 43.8281 63.957L56.0337 49.1104L59.3987 45.0306C59.7964 44.5398 59.8882 43.865 59.6129 43.2821C59.3375 42.6993 58.7563 42.3312 58.1445 42.3312H46.4894C45.5105 42.3312 44.7152 41.5337 44.7152 40.5521C44.7152 39.5705 45.5105 38.7729 46.4894 38.7729H70.7173C71.2067 38.7729 71.6656 38.5582 71.9715 38.1901L76.5601 32.6073C77.1413 31.9018 77.0496 30.8895 76.346 30.3067C75.6424 29.7239 74.6329 29.8159 74.0517 30.5214L69.9525 35.5214H46.4894C43.7057 35.5214 41.442 37.7913 41.442 40.5827C41.442 43.3742 43.7057 45.6441 46.4894 45.6441H54.6878L47.4378 54.4785L41.3196 61.9018C39.6983 63.865 39.9736 66.8097 41.9314 68.4355C42.2985 68.7423 42.6962 68.957 43.1245 69.141L42.9103 69.3864C41.289 71.3496 41.5643 74.2944 43.5221 75.9202C44.3481 76.6257 45.3882 76.9938 46.4589 76.9938C46.6118 76.9938 46.7648 76.9938 46.9177 76.9938C47.9272 76.9018 48.8143 76.411 49.5485 75.7361C49.8238 76.1656 50.0991 76.595 50.5274 76.9324C51.3534 77.638 52.3935 78.0061 53.4641 78.0061C53.6171 78.0061 53.77 78.0061 53.923 78.0061C55.0243 77.914 55.9726 77.3619 56.7373 76.595C56.9821 76.9938 57.288 77.3926 57.6856 77.6993C58.5116 78.4048 59.5517 78.7729 60.6224 78.7729C60.7753 78.7729 60.9283 78.7729 61.0812 78.7729C62.3048 78.6502 63.4367 78.0674 64.2015 77.1165L76.4072 62.2699L80.1698 57.6686C82.5865 54.7239 83.5654 50.8895 82.8618 47.1165L82.6783 46.1656L86.7774 41.1656C87.3586 40.46 87.2669 39.4478 86.5633 38.865V38.8343Z" fill="#2c221e"/>
</g>
<defs>
<clipPath id="clip0_22_927">
<rect width="87" height="60" fill="white" transform="translate(17 30)"/>
</clipPath>
</defs>
</svg>
