<svg width="120" height="120" viewBox="0 0 120 120" fill="none" xmlns="http://www.w3.org/2000/svg">
<g clip-path="url(#clip0_23_1002)">
<path d="M85.3706 83.0001H34.6294C33.9641 83.0001 33.3593 82.5755 33.1174 81.9388L17.0907 39.1833C16.7883 38.3343 17.2117 37.4246 18.0584 37.091C18.8748 36.7878 19.8122 37.182 20.1449 38.031L35.7482 79.7555H84.282L99.8551 38.0614C100.158 37.2123 101.095 36.8181 101.942 37.1213C102.788 37.4246 103.181 38.3646 102.879 39.2136L86.8826 81.9994C86.6406 82.6362 86.0359 83.0607 85.3706 83.0607V83.0001Z" fill="#2c221e"/>
<path d="M74.0309 55.3758C70.251 55.3758 68.346 52.6771 66.8038 50.5241C65.2616 48.3712 64.2335 47.037 62.2075 47.037C60.1814 47.037 59.1533 48.3712 57.6111 50.5241C56.0689 52.6771 54.1638 55.3758 50.384 55.3758C46.6041 55.3758 44.699 52.6771 43.1568 50.5241C41.6146 48.3712 40.5865 47.037 38.5605 47.037C36.5345 47.037 35.5063 48.3712 33.9641 50.5241C32.4219 52.6771 30.5169 55.3758 26.737 55.3758C25.4065 55.3758 24.1969 55.0423 23.1083 54.3448C22.3523 53.89 22.1104 52.8893 22.5942 52.1313C23.0781 51.3732 24.0457 51.1306 24.8017 51.6158C25.3762 51.9796 26.0112 52.1616 26.737 52.1616C28.763 52.1616 29.7911 50.8274 31.3333 48.6744C32.8755 46.5215 34.7806 43.8228 38.5605 43.8228C42.3404 43.8228 44.2454 46.5215 45.7876 48.6744C47.3298 50.8274 48.3579 52.1616 50.384 52.1616C52.41 52.1616 53.4381 50.8274 54.9803 48.6744C56.5225 46.5215 58.4276 43.8228 62.2075 43.8228C65.9873 43.8228 67.8924 46.5215 69.4346 48.6744C70.9768 50.8274 72.0049 52.1616 74.0309 52.1616C76.057 52.1616 77.1153 50.8274 78.6273 48.6744C80.1695 46.5215 82.0745 43.8228 85.8544 43.8228C89.6343 43.8228 91.5696 46.5215 93.0816 48.6744C94.0795 50.0996 95.0471 51.4338 96.3474 51.9493C97.1941 52.2525 97.5872 53.1926 97.2848 54.0416C96.9824 54.8907 96.045 55.3152 95.1983 54.9816C92.9606 54.1326 91.6301 52.2525 90.4205 50.5545C88.8783 48.4015 87.8502 47.0673 85.8242 47.0673C83.7982 47.0673 82.7398 48.4015 81.2278 50.5545C79.6856 52.7074 77.7806 55.4061 74.0007 55.4061L74.0309 55.3758Z" fill="#2c221e"/>
<path d="M58.3973 62.9567C58.3973 64.7154 57.339 66.2922 55.8572 66.838V66.929C57.7925 67.5354 58.9114 69.1122 58.9114 71.2652C58.7904 74.0852 56.5527 76.3594 51.5331 76.3594C46.5134 76.3594 44.064 74.0852 44.064 71.2955V70.7497H48.5394C48.5394 71.9019 49.1442 72.842 51.2004 72.842C53.2567 72.842 53.8615 71.8413 53.8615 70.4768C53.8615 69.2335 53.0752 68.6271 52.0774 68.6271H50.2025V65.4735H51.654C52.6519 65.4735 53.4381 64.8973 53.4381 63.6238C53.4381 62.5625 52.6519 61.5921 51.2004 61.5921C49.6582 61.5921 48.872 62.4715 48.872 63.5328H44.6083V62.896C44.6083 60.2579 47.1181 58.105 51.6238 58.105C56.1294 58.105 58.3973 60.2882 58.3973 62.896V62.9567ZM75.936 67.2625C75.936 72.6903 74.3031 76.3594 68.4972 76.3594C62.6913 76.3594 61.0281 72.6903 61.0281 67.2625C61.0281 61.8347 62.6913 58.1656 68.4972 58.1656C74.3031 58.1656 75.936 61.8347 75.936 67.2625ZM66.0478 65.989V68.5058C66.0478 71.5987 66.7131 72.9026 68.4972 72.9026C70.2813 72.9026 70.8861 71.5987 70.8861 68.5058V65.989C70.8861 62.896 70.2813 61.6224 68.4972 61.6224C66.7131 61.6224 66.0478 62.896 66.0478 65.989Z" fill="#2c221e"/>
</g>
<defs>
<clipPath id="clip0_23_1002">
<rect width="86" height="46" fill="white" transform="translate(17 37)"/>
</clipPath>
</defs>
</svg>
