<svg width="209" height="21" viewBox="0 0 209 21" fill="none" xmlns="http://www.w3.org/2000/svg">
<path d="M18.133 5.10072C18.614 5.20384 19.4471 5.35847 19.4851 5.94752C20.6004 6.29147 21.6983 6.694 22.7647 7.14132C22.385 6.60755 22.1308 5.95661 22.5076 5.40526C22.5983 5.27431 22.7447 5.3087 22.8213 5.40512C22.8841 5.37753 22.9573 5.37404 23.027 5.42913C23.6751 5.91799 24.3265 6.85812 23.7475 7.56802C26.2045 8.67954 28.5254 10.0564 30.6858 11.6882C30.7241 11.7192 30.745 11.7536 30.7555 11.7915C33.9552 12.2378 37.2143 12.66 40.4282 12.6034C37.4172 11.0684 34.305 9.7712 31.0881 8.71515C30.3626 9.61114 28.9892 9.61178 27.975 9.27811C27.9541 9.27123 27.9401 9.25746 27.9227 9.24713C27.7728 9.22309 27.6509 9.06123 27.7799 8.91994C28.3066 8.35818 28.969 8.17186 29.6731 8.14397C28.7322 7.62769 27.9831 6.8254 27.5339 5.81628C27.4608 5.65441 27.6073 5.53032 27.7467 5.53715C27.7711 5.53369 27.792 5.53369 27.8199 5.54056C29.1235 5.84998 31.1483 6.71368 31.1545 8.2914C32.9738 8.88305 34.7548 9.55396 36.5078 10.3007C36.1838 9.85643 35.947 9.36049 35.7521 8.83697C35.5501 8.29967 35.2855 7.74174 35.4531 7.16982C35.474 7.10091 35.5159 7.06645 35.5612 7.0492C35.5996 6.94929 35.7042 6.88034 35.8297 6.94917C36.6312 7.38284 37.2618 8.05429 37.5716 8.9119C37.7701 9.46642 37.9509 10.3413 37.2989 10.6413C38.5988 11.216 39.8848 11.832 41.1464 12.4928C41.1882 12.5135 41.2126 12.5445 41.23 12.5755C43.8026 12.464 46.3439 12.0185 48.8019 11.0011C49.0565 10.8942 49.2166 11.2868 48.9621 11.3937C47.822 11.8662 46.6611 12.2147 45.4932 12.4667C45.4827 12.5115 45.4618 12.5528 45.4025 12.5838C41.6159 14.7352 37.4497 15.9256 33.0854 16.0792C33.0645 16.0792 33.0506 16.0723 33.0331 16.0689C33.0296 16.0724 33.0262 16.0758 33.0227 16.0793C32.0078 17.0408 30.8642 17.6959 29.5254 18.0961C29.4587 19.1537 28.3219 19.9534 27.2867 19.7782C27.2519 19.7714 27.224 19.7576 27.1996 19.7404C27.1334 19.7025 27.0881 19.6302 27.1091 19.5337C27.1964 19.1375 27.3918 18.7516 27.6917 18.4621C27.2211 18.4658 26.747 18.466 26.2799 18.4662C25.9311 18.9969 25.3523 19.4105 24.7039 19.466C23.8393 19.5353 23.1321 18.8432 22.5606 18.3061C22.5293 18.2751 22.5119 18.2441 22.5014 18.2062C22.4562 18.1132 22.4771 17.9961 22.5957 17.9547C22.6236 17.934 22.6549 17.9236 22.6898 17.9236C23.8961 17.5717 25.4197 16.8717 26.3533 18.0494C26.8832 18.0491 27.4165 18.0454 27.9429 18.0417C27.4724 17.8249 27.0717 17.4359 26.8349 16.9812C26.8349 16.9812 26.8279 16.9744 26.8244 16.9709C26.8175 16.964 26.814 16.9537 26.807 16.9399C26.7513 16.8297 26.8071 16.7401 26.8873 16.6953C26.8943 16.6884 26.9013 16.6815 26.9117 16.6781C26.9117 16.6781 26.9117 16.6781 26.9152 16.6746C26.9327 16.6643 26.9536 16.6505 26.978 16.647C27.5358 16.5365 28.0969 16.6224 28.5883 16.9081C28.8985 17.0905 29.2399 17.3522 29.3653 17.6966C30.5157 17.3516 31.5339 16.7999 32.4406 16.0278C30.3737 15.6189 28.2858 15.3133 26.1839 15.111C26.1805 15.1282 26.1804 15.1489 26.17 15.1661C25.7059 16.1344 24.646 16.6309 23.6108 16.4282C23.4713 16.5936 23.1541 16.4387 23.2553 16.2078C23.2553 16.2078 23.2588 16.2044 23.2623 16.201C23.2658 16.1424 23.2937 16.0873 23.3391 16.0425C23.5833 15.5876 23.953 15.2223 24.3958 14.9913C23.4163 14.8436 22.4335 14.472 22.1167 13.6489C22.0297 13.425 22.3225 13.2802 22.4654 13.4145C23.6715 13.2899 25.8572 13.2165 26.1423 14.6839C28.4254 14.8998 30.6841 15.2364 32.9252 15.6935C32.9531 15.6659 32.9915 15.6487 33.0403 15.6486C34.2046 15.6068 35.3619 15.4891 36.4949 15.2991C35.6828 15.0342 34.979 14.5316 34.3937 13.8636C34.3205 13.7775 34.3345 13.6879 34.3938 13.6224C34.4217 13.5742 34.467 13.5294 34.5402 13.5121C35.349 13.3257 36.1925 13.4563 36.9034 13.8762C37.3286 14.1309 37.8373 14.5372 37.851 15.0401C40.1031 14.543 42.2856 13.7496 44.3463 12.6705C39.5424 13.4512 34.5441 12.7371 29.72 12.0573C29.0438 11.9611 28.3641 11.8753 27.6844 11.7895C24.9269 12.3316 22.152 12.7257 19.3632 12.9819C19.248 13.4608 18.5958 14.0157 18.282 14.2914C17.6368 14.8601 16.8558 15.205 15.9879 15.2226C15.838 15.2261 15.7613 15.1021 15.7579 14.9953C15.744 14.954 15.737 14.9058 15.758 14.8507C16.093 13.9824 16.8253 13.4653 17.6516 13.1239C15.8738 13.2488 14.0925 13.3151 12.3077 13.3228C12.433 13.7499 11.9692 14.1187 11.5996 14.3187C10.8953 14.691 10.0935 14.781 9.31977 14.6229C9.27794 14.616 9.24658 14.5919 9.21871 14.5713C9.07923 14.6609 8.84572 14.5749 8.88765 14.3751C9.09379 13.3863 10.4429 13.0722 11.4295 12.9925C10.9659 12.8308 10.5094 12.6484 10.0668 12.4385C10.0563 12.4489 10.0528 12.4592 10.0424 12.4626C9.03108 13.3037 7.84282 12.4671 7.22276 11.5993C7.21579 11.5924 7.2158 11.5786 7.20883 11.5718C7.20883 11.5718 7.19488 11.5718 7.1914 11.5683C6.91953 11.5202 6.98596 11.1034 7.25783 11.1515C8.15012 11.3164 9.8166 10.792 10.1088 12.0045C10.1297 12.0044 10.1506 12.0113 10.175 12.0216C10.6176 12.2316 11.0707 12.4174 11.5342 12.5791C11.1753 12.314 10.8966 11.949 10.726 11.5184C10.6633 11.4702 10.6459 11.391 10.6669 11.3152C10.6705 11.1327 10.918 11.0257 11.0295 11.1566C11.751 11.2217 12.5178 11.3385 13.0544 11.8687C13.3157 12.127 13.5316 12.5747 13.3781 12.8986C17.718 12.8173 22.0336 12.395 26.3041 11.6317C20.4692 10.9455 14.6132 10.5624 8.74324 10.2345C8.72929 10.2482 8.71185 10.2655 8.68396 10.2724C7.95529 10.5518 7.23006 10.9035 6.43187 10.7695C5.69991 10.6458 5.09358 10.2189 4.69998 9.60251C4.64425 9.51297 4.66173 9.41996 4.71056 9.35793C4.47002 9.38215 4.43535 8.99635 4.68984 8.93767C6.29698 8.57521 7.78892 8.56761 8.96303 9.83131C12.5429 10.0329 16.1227 10.2482 19.6955 10.5393C17.7822 9.7376 15.8724 8.93242 13.959 8.13067C13.8265 8.38565 13.5928 8.58901 13.3139 8.70626C12.77 8.94077 12.1705 8.79636 11.6338 8.63126C11.5501 8.60374 11.5118 8.5452 11.5083 8.47975C11.4665 8.42465 11.4456 8.35577 11.4805 8.27996C11.7109 7.71491 12.1747 7.35987 12.6976 7.24939C12.5443 7.11856 12.4189 6.96016 12.3423 6.7604C12.1647 6.3161 12.287 5.7821 12.6984 5.51321C12.8414 5.42013 12.9947 5.51651 13.033 5.63706C13.5174 5.88831 13.9076 6.3015 14.0921 6.82158C14.1722 7.05235 14.2452 7.41402 14.151 7.65864C14.1545 7.68276 14.1544 7.71031 14.1475 7.73787C15.4683 8.29187 16.7892 8.84587 18.11 9.39986C17.7792 8.79028 17.7307 8.06001 17.9855 7.38815C18.0483 7.22277 18.2366 7.23646 18.3341 7.33976C18.3864 7.30873 18.4457 7.29837 18.5154 7.33967C19.4249 7.8663 19.6858 8.98575 19.0684 9.80246C19.7306 10.0777 20.3928 10.3599 21.055 10.6352C21.055 10.6352 21.0584 10.6386 21.0619 10.6421C23.2823 10.8374 25.4992 11.0775 27.716 11.3658C27.7439 11.3589 27.7753 11.3554 27.8032 11.3485C27.8799 11.3347 27.9356 11.3554 27.974 11.4001C28.2319 11.4344 28.4933 11.4653 28.7512 11.4997C29.1556 11.5546 29.5634 11.613 29.9712 11.6713C28.4415 10.5525 26.8419 9.55767 25.1657 8.7007C24.6111 9.44849 23.6455 9.41793 22.7985 9.32532C22.7532 9.32189 22.7218 9.30468 22.694 9.27714L22.687 9.27026C22.6731 9.25648 22.6591 9.24271 22.6487 9.22549C22.6417 9.2186 22.6417 9.21172 22.6382 9.20138C22.6313 9.18072 22.6278 9.1566 22.6243 9.13249C22.6243 9.11182 22.6243 9.09805 22.6313 9.07737C22.6805 8.34705 23.4195 8.16757 24.1306 8.20168C22.5833 7.47211 20.9871 6.84591 19.3385 6.3334C18.8328 6.90203 18.0554 7.09876 17.3165 6.88552C16.846 6.7514 15.7308 6.1663 15.7241 5.58757C15.7241 5.57379 15.7276 5.55657 15.7276 5.54279C15.5987 5.44984 15.5674 5.23972 15.7591 5.18796C16.5505 4.98434 17.3523 4.92886 18.1539 5.10072L18.133 5.10072ZM18.6991 9.54771C19.1281 8.94467 19.01 8.13174 18.3165 7.72903C18.313 7.72558 18.3095 7.72214 18.3061 7.7187C18.121 8.36986 18.2741 9.03119 18.7026 9.55116L18.6991 9.54771ZM13.6597 7.26961C13.705 7.27993 13.7363 7.30402 13.7642 7.33157C13.7225 7.08356 13.531 6.66683 13.4822 6.59107C13.3046 6.3259 13.0676 6.13311 12.7819 5.99545C12.6354 6.19531 12.6352 6.47778 12.7676 6.70508C12.9522 7.01847 13.3181 7.18021 13.6597 7.26961ZM13.5617 7.94484C13.5025 7.88631 13.4956 7.79674 13.527 7.72439C12.9276 7.46975 12.2582 7.70432 11.9337 8.27975C12.4948 8.42073 13.3105 8.47546 13.5617 7.94484ZM8.43664 9.9039C7.45407 9.00182 6.24099 9.03683 4.979 9.29234C4.99294 9.30611 5.01036 9.32333 5.02778 9.34055C5.89509 10.7077 7.17803 10.3833 8.43664 9.9039ZM12.9704 12.6611C12.9704 12.6611 12.9878 12.6645 12.9983 12.6679C13.0332 12.4819 12.7301 12.1548 12.6569 12.0963C12.5071 11.9689 12.3328 11.8725 12.1481 11.8002C11.8484 11.6833 11.5312 11.6317 11.214 11.6009C11.5588 12.2311 12.2209 12.658 12.9704 12.6611ZM9.69741 12.1907C9.56532 11.4191 8.52299 11.5539 7.73866 11.5922C8.22989 12.1741 8.98257 12.7043 9.69741 12.1907ZM11.865 13.3953C11.1888 13.4094 9.78739 13.541 9.39317 14.2198C9.794 14.2988 10.1914 14.3193 10.5992 14.2399C10.798 14.2019 12.1263 13.7914 11.865 13.3953ZM18.4427 13.5335C18.4915 13.4783 18.6275 13.3439 18.7426 13.2095C17.763 13.4752 16.7275 13.8925 16.253 14.7953C16.8073 14.7296 17.3093 14.5227 17.7661 14.1745C18.0137 13.985 18.2369 13.7713 18.4427 13.5335ZM37.4223 15.0782C37.4469 14.558 36.4815 14.1141 36.1226 13.9937C35.7462 13.8698 35.3627 13.8356 34.9758 13.8737C35.6482 14.5382 36.4602 14.9684 37.4223 15.0782ZM25.6927 14.6669C25.3655 13.6542 23.7062 13.7239 22.7022 13.8208C23.3049 14.5336 24.7724 14.6742 25.6927 14.6669ZM25.7168 15.1181C24.9535 15.0806 24.2492 15.4323 23.8341 16.0491C24.5869 16.1521 25.3435 15.7763 25.7168 15.1181ZM28.9713 17.8104C28.8529 17.5211 28.3546 17.2492 28.1281 17.1563C27.8736 17.0497 27.6157 17.0153 27.3508 17.0292C27.7096 17.5286 28.3543 17.9037 28.9713 17.8104ZM25.9315 18.2184C25.2172 17.4574 24.0318 17.9264 23.0975 18.23C23.4459 18.5537 23.8257 18.8808 24.2893 18.9942C24.9445 19.1593 25.5931 18.7662 25.9384 18.2184L25.9315 18.2184ZM29.0652 18.2823C28.4098 18.4549 27.838 18.7101 27.6006 19.3716C28.2595 19.3678 28.8906 18.9094 29.0652 18.2823ZM36.2749 8.98141C36.4733 9.46014 36.7241 9.89407 37.0551 10.2832C37.062 10.2763 37.0725 10.2659 37.0864 10.2659C37.7001 10.0314 37.1185 8.82944 36.8991 8.47472C36.6344 8.0408 36.2615 7.69305 35.8294 7.43145C35.756 7.91031 36.0973 8.55778 36.2714 8.98485L36.2749 8.98141ZM30.7224 8.12625C30.566 7.02743 29.1929 6.35978 28.1439 6.04679C28.7046 7.04208 29.621 7.78229 30.7224 8.12625ZM30.6141 8.59824C29.8403 8.50215 29.0176 8.48187 28.383 8.94377C29.1219 9.12944 30.0387 9.11868 30.6141 8.59824ZM24.5975 8.66307C24.0817 8.56686 23.2416 8.50869 23.0741 8.92215C23.6074 8.97357 24.1791 8.98019 24.5975 8.66307ZM23.4409 7.2788C23.8525 6.76188 23.2253 6.08699 22.7967 5.75994C22.5943 6.2492 23.089 6.90348 23.4409 7.2788ZM16.1982 5.50468C16.233 5.57356 16.219 5.63557 16.1877 5.68036C16.3897 6.01786 17.1459 6.37921 17.4003 6.45833C18.0172 6.6475 18.6622 6.49907 19.0668 5.98216C18.9903 5.5757 17.8122 5.44536 17.5089 5.42139C17.0662 5.3837 16.6305 5.41491 16.1982 5.50468Z" fill="#946D4E"/>
<path d="M59 10.5H150" stroke="#946D4E" stroke-linecap="round"/>
<path d="M111.942 10.4008C112.719 8.31784 112.322 5.37214 109.718 4.98772C109.24 3.6065 106.646 3.03882 105.043 3.84341C104.69 2.3728 102.828 3.14163 101.997 3.78083C101.72 3.99539 101.484 4.26359 101.305 4.56308C101.269 4.54073 101.229 4.52284 101.171 4.52731C98.9604 4.72846 96.2452 7.76356 97.7457 9.69458C96.5846 11.0758 96.9062 13.1052 97.844 14.5624C98.2191 15.1479 98.7684 15.6441 99.474 15.7558C99.6526 15.7827 99.8089 15.7827 99.9518 15.7558C100.01 16.5113 100.666 17.1147 101.43 17.213C101.917 17.2756 102.368 17.1371 102.77 16.8912C104.779 19.229 108.807 17.5438 109.616 14.8574C110.281 14.6428 110.879 14.1377 111.241 13.494C111.639 12.7833 112.099 11.4513 111.826 10.5171C111.871 10.4902 111.915 10.4545 111.938 10.3919L111.942 10.4008Z" fill="#F0E9E2"/>
<path d="M111.942 10.4008C112.719 8.31784 112.322 5.37214 109.718 4.98772C109.24 3.6065 106.646 3.03882 105.043 3.84341C104.69 2.3728 102.828 3.14163 101.997 3.78083C101.72 3.99539 101.484 4.26359 101.305 4.56308C101.269 4.54073 101.229 4.52284 101.171 4.52731C98.9604 4.72846 96.2452 7.76356 97.7457 9.69458C96.5846 11.0758 96.9062 13.1052 97.844 14.5624C98.2191 15.1479 98.7684 15.6441 99.474 15.7558C99.6526 15.7827 99.8089 15.7827 99.9518 15.7558C100.01 16.5113 100.666 17.1147 101.43 17.213C101.917 17.2756 102.368 17.1371 102.77 16.8912C104.779 19.229 108.807 17.5438 109.616 14.8574C110.281 14.6428 110.879 14.1377 111.241 13.494C111.639 12.7833 112.099 11.4513 111.826 10.5171C111.871 10.4902 111.915 10.4545 111.938 10.3919L111.942 10.4008ZM109.924 8.9928C110.25 8.96151 110.576 8.90787 110.897 8.84082C110.911 8.93022 110.92 9.02409 110.924 9.11796C110.817 9.09561 110.71 9.07326 110.603 9.05091C110.46 9.02409 110.402 9.24312 110.544 9.26994C110.674 9.29676 110.803 9.32358 110.937 9.3504C110.937 9.50685 110.937 9.66776 110.924 9.82868C110.674 9.74375 110.419 9.68117 110.151 9.64094C110.009 9.61859 109.951 9.83762 110.093 9.85997C110.37 9.9002 110.638 9.96725 110.897 10.0566C110.714 11.5809 109.843 13.047 108.428 13.123C108.401 12.8459 108.262 12.5598 107.977 12.2693C108.066 12.0592 108.16 11.8044 108.245 11.5228C108.49 11.7418 108.758 11.9251 109.057 12.0637C109.187 12.1262 109.303 11.9296 109.169 11.867C108.879 11.7284 108.615 11.5541 108.379 11.3395C108.356 11.3216 108.334 11.3127 108.307 11.3127C108.334 11.2099 108.361 11.1026 108.388 10.9953L109.191 11.1875C109.334 11.2233 109.392 11.0043 109.249 10.9685C108.977 10.9015 108.709 10.8389 108.437 10.7718C108.463 10.6377 108.49 10.5081 108.513 10.374C108.526 10.3785 108.539 10.383 108.557 10.383C108.754 10.3785 108.95 10.374 109.147 10.3695C109.294 10.3695 109.29 10.1371 109.147 10.1416C108.95 10.146 108.754 10.1505 108.557 10.155H108.548C108.629 9.55601 108.629 8.97045 108.49 8.52792C108.919 8.43405 109.334 8.3089 109.745 8.15245C109.879 8.09881 109.817 7.87978 109.683 7.93342C109.267 8.09434 108.843 8.2195 108.405 8.31337C108.392 8.28655 108.379 8.25973 108.361 8.23291C108.629 8.02729 108.897 7.8172 109.169 7.61158C109.285 7.52218 109.169 7.32998 109.053 7.41491C108.776 7.625 108.504 7.83955 108.227 8.04964C108.2 8.02282 108.173 7.996 108.146 7.97365C108.218 7.92448 108.267 7.83955 108.249 7.73675C108.195 7.38362 108.133 7.03943 108.035 6.70865C108.075 6.72206 108.115 6.731 108.169 6.71759C109.754 6.33764 110.616 7.3121 110.866 8.60839C110.553 8.67097 110.241 8.72461 109.924 8.7559C109.781 8.7693 109.781 8.99727 109.924 8.98386V8.9928ZM105.869 16.3906C105.346 16.4487 104.837 16.3459 104.395 16.109C104.833 16.0777 105.302 15.957 105.815 15.729C105.985 15.653 106.181 15.5592 106.391 15.4474C106.4 15.6083 106.472 15.7514 106.619 15.8497C106.74 15.9302 106.851 15.7335 106.731 15.653C106.646 15.5949 106.597 15.4966 106.615 15.3938C106.615 15.3714 106.615 15.3491 106.606 15.3312C106.981 15.1166 107.378 14.8484 107.704 14.549C107.718 14.5713 107.736 14.5937 107.753 14.616C107.816 15.6128 106.78 16.2967 105.869 16.395V16.3906ZM102.948 14.3702C102.792 14.6205 102.636 14.8753 102.484 15.1256C101.836 14.6652 101.336 13.9589 100.881 13.2661C101.559 13.2258 102.162 12.7252 102.671 12.229C102.752 12.305 102.837 12.3721 102.921 12.4257C103.172 12.5911 103.448 12.685 103.73 12.7207C103.658 13.056 103.591 13.3957 103.52 13.731C103.489 13.874 103.707 13.9321 103.739 13.7891C103.81 13.4404 103.886 13.0873 103.958 12.7386C104.016 12.7386 104.078 12.7386 104.136 12.7342C104.234 13.4493 104.44 14.6071 105.253 14.7143C106.195 14.8395 107.311 13.4538 107.767 12.7029C109.048 14.2718 104.654 15.662 104.06 15.653C103.984 15.653 103.913 15.6441 103.837 15.6396C103.837 15.6352 103.828 15.6307 103.824 15.6217C103.868 15.2418 103.908 14.8574 103.953 14.4774C103.971 14.3344 103.743 14.3389 103.725 14.4774C103.685 14.8261 103.645 15.1747 103.605 15.5279C103.573 15.5368 103.538 15.5547 103.511 15.5905C103.207 15.5234 102.926 15.4072 102.671 15.2507C102.828 14.996 102.988 14.7367 103.145 14.4819C103.221 14.3567 103.024 14.245 102.948 14.3702ZM99.9205 12.3989C99.4963 11.9921 99.2551 11.3485 99.1212 10.7897C99.0854 10.6377 99.0631 10.4902 99.0497 10.3472C99.4561 10.374 99.8625 10.3517 100.264 10.2846C100.407 10.2623 100.345 10.0432 100.202 10.0656C99.8133 10.1326 99.4248 10.146 99.0363 10.1192C99.0363 9.9449 99.0452 9.77057 99.0765 9.60072C99.3936 9.65883 99.7598 9.53813 100.032 9.3951C100.162 9.32805 100.046 9.13584 99.9161 9.19842C99.7821 9.26547 99.6392 9.31911 99.4918 9.3504C99.4114 9.36828 99.3311 9.37275 99.2507 9.37722C99.2283 9.37722 99.206 9.37722 99.1837 9.37722C99.1703 9.37275 99.1703 9.37722 99.1614 9.37722C99.1614 9.35487 99.1614 9.33251 99.1524 9.31016C99.2328 9.05091 99.3489 8.79612 99.5052 8.53686C99.5588 8.45194 99.9161 7.89766 100.309 7.51772C100.483 7.78144 100.613 8.06305 100.702 8.37148C100.742 8.51005 100.961 8.44747 100.921 8.3089C100.827 7.97365 100.68 7.65629 100.483 7.36574C100.773 7.14224 101.064 7.06178 101.256 7.37021C101.341 7.65628 101.421 7.93789 101.506 8.22397C101.546 8.36254 101.765 8.29996 101.725 8.16139C101.662 7.94683 101.6 7.73227 101.537 7.51772C101.559 7.50878 101.577 7.50431 101.595 7.4909C101.774 7.83508 102.118 8.12116 102.43 8.34913C102.006 8.66202 101.676 9.06879 101.568 9.58731C101.47 10.0745 101.631 10.6735 101.912 11.2144C101.693 11.3619 101.475 11.5094 101.256 11.6569C101.135 11.7374 101.251 11.934 101.372 11.8536C101.591 11.7061 101.805 11.563 102.024 11.4155C102.127 11.5854 102.238 11.7508 102.359 11.8983C101.684 12.5554 100.782 13.2214 99.925 12.3989H99.9205ZM105.168 5.19334C106.905 5.10394 107.561 6.32871 107.798 7.79932C107.606 7.75016 107.369 7.75462 107.088 7.82167C107.025 7.66075 106.914 7.50431 106.726 7.3568C106.275 7.00814 105.65 7.03496 105.11 7.15118C105.128 6.96344 105.145 6.7757 105.163 6.58796C105.177 6.44493 104.949 6.44493 104.936 6.58796C104.918 6.78464 104.895 6.98132 104.877 7.178C104.877 7.19141 104.877 7.20035 104.877 7.20929C104.748 7.26293 104.65 7.34786 104.574 7.45067C104.453 7.05284 104.346 6.65054 104.252 6.24378C104.234 6.16332 104.114 6.13203 104.06 6.19461C104.029 6.23484 103.993 6.27507 103.962 6.3153C103.886 6.41364 103.993 6.54326 104.083 6.50303C104.167 6.85616 104.261 7.20929 104.368 7.55794C104.351 7.55794 104.333 7.55794 104.31 7.55794C104.243 7.57135 104.176 7.58477 104.105 7.60265C104.118 7.56689 104.114 7.52665 104.074 7.49536C103.868 7.31657 103.694 7.10648 103.56 6.86957C103.489 6.74441 103.292 6.86063 103.364 6.98579C103.506 7.23611 103.69 7.45961 103.913 7.65182C103.542 7.75462 103.149 7.89766 102.792 8.09881C102.774 8.06305 102.752 8.02729 102.716 8.00047C100.765 6.63267 104.06 5.23804 105.159 5.17993L105.168 5.19334ZM107.427 12.3721C107.11 12.913 106.641 13.5566 106.074 13.8695C104.962 14.4774 104.703 13.5924 104.578 12.6582C104.985 12.5554 105.378 12.3497 105.69 12.0815C105.788 12.0011 105.873 11.9117 105.958 11.8178C106.016 12.0234 106.079 12.2335 106.137 12.4391C106.177 12.5777 106.396 12.5151 106.356 12.3766C106.293 12.162 106.235 11.9474 106.173 11.7374C106.159 11.6927 106.128 11.6703 106.092 11.6614C106.128 11.6167 106.159 11.5764 106.19 11.5317C106.195 11.5451 106.204 11.5586 106.213 11.5675C106.338 11.7061 106.463 11.8402 106.588 11.9787C106.686 12.086 106.842 11.9251 106.744 11.8178C106.619 11.6792 106.494 11.5451 106.369 11.4066C106.347 11.3842 106.324 11.3753 106.298 11.3708C106.396 11.2144 106.476 11.049 106.548 10.8791C106.749 10.9775 106.967 11.0222 107.195 11.0087C107.338 10.9998 107.338 10.7718 107.195 10.7808C106.994 10.7942 106.811 10.754 106.637 10.669C106.798 10.1639 106.833 9.61859 106.749 9.0822C106.95 8.82741 107.101 8.55475 107.142 8.28655C107.57 8.1748 107.834 8.30442 107.99 8.55474C107.838 8.64414 107.677 8.70225 107.503 8.7246C107.36 8.74248 107.36 8.97045 107.503 8.95257C107.713 8.92575 107.91 8.86317 108.088 8.76036C108.316 9.39957 108.129 10.4411 108.066 10.7316C107.941 11.3082 107.731 11.8715 107.436 12.381L107.427 12.3721ZM102.703 11.572C102.243 10.9328 101.747 10.0254 102.185 9.26994C102.609 8.54133 103.578 8.18821 104.359 8.02282C104.306 8.29996 104.288 8.59497 104.243 8.84082C104.23 8.90787 104.243 8.96598 104.279 9.01515C104.243 9.04197 104.208 9.06879 104.172 9.09561C104.069 9.17607 103.958 9.25653 103.855 9.34593C103.761 9.29676 103.667 9.23865 103.582 9.18054C103.529 9.14478 103.475 9.10455 103.422 9.06879C103.417 9.06879 103.404 9.05538 103.395 9.04644C103.386 9.03303 103.373 9.01962 103.359 9.00621C103.337 8.9928 103.314 8.97939 103.288 8.97045C103.252 8.95704 103.203 8.97045 103.176 9.00174C103.145 9.03303 103.131 9.10008 103.158 9.14031C103.23 9.23418 103.355 9.29676 103.448 9.36381C103.529 9.41745 103.614 9.47108 103.699 9.52025C103.681 9.5426 103.663 9.56496 103.645 9.58731C103.417 9.94937 103.556 10.2936 103.841 10.5215C103.6 10.7495 103.364 10.973 103.122 11.201C103.015 11.2993 103.18 11.4602 103.283 11.3574C103.533 11.1205 103.783 10.8836 104.033 10.6512C104.033 10.6512 104.042 10.6556 104.047 10.6601C104.056 10.6646 104.065 10.669 104.074 10.6735C103.917 10.9596 103.761 11.2457 103.605 11.5317C103.533 11.6614 103.73 11.7731 103.801 11.6435C103.962 11.3485 104.123 11.0579 104.284 10.7629C104.292 10.7629 104.301 10.7718 104.31 10.7718C104.319 11.0892 104.328 11.4021 104.337 11.7195C104.337 11.867 104.569 11.8625 104.565 11.7195C104.556 11.4289 104.547 11.1339 104.543 10.8434C104.837 10.9059 105.145 10.8881 105.346 10.6467C105.471 10.4947 105.516 10.307 105.543 10.1148C105.561 10.1103 105.574 10.1058 105.592 10.0969C105.806 9.95831 106.079 9.75716 106.338 9.51579C106.369 10.2042 106.164 10.8657 105.708 11.411C104.949 12.3229 103.515 12.7073 102.703 11.5809V11.572ZM105.007 7.7278C105.293 7.4462 106.016 7.45513 106.369 7.66075C107.213 8.16139 106.213 9.0822 105.61 9.52473C105.637 9.26547 105.655 9.00174 105.668 8.73801C105.668 8.66202 105.641 8.60838 105.596 8.57263L105.833 8.01835C105.891 7.88425 105.695 7.7725 105.637 7.9066C105.57 8.06752 105.498 8.2329 105.431 8.39382C105.369 8.30889 105.266 8.26867 105.159 8.34913C105.016 8.45641 104.873 8.56815 104.73 8.67543C104.77 8.33572 104.819 7.91554 105.016 7.7278H105.007ZM104.292 10.2667C104.065 10.1639 103.899 10.0656 104.074 9.7661C104.074 9.7661 104.078 9.76163 104.083 9.75716C104.194 9.84209 104.301 9.93149 104.413 10.0164C104.525 10.1058 104.685 9.9449 104.569 9.8555L104.239 9.59624C104.284 9.56048 104.333 9.52919 104.382 9.4979C104.476 9.66329 104.569 9.82421 104.668 9.9896C104.739 10.1148 104.936 9.99854 104.864 9.87338C104.766 9.70353 104.668 9.53367 104.569 9.36381C104.784 9.20289 104.994 9.04197 105.208 8.88105C105.19 9.22077 105.163 9.56048 105.119 9.89573C105.083 10.155 105.02 10.4545 104.685 10.3964C104.551 10.374 104.417 10.3248 104.297 10.2667H104.292ZM109.106 6.19014C109.106 6.19014 109.106 6.19908 109.106 6.20355C108.785 6.17226 108.432 6.19014 108.039 6.28401C107.981 6.29742 107.941 6.3287 107.914 6.36893C107.887 6.30635 107.856 6.24378 107.825 6.1812C108.191 6.00687 108.539 5.80572 108.879 5.57776C108.999 5.4973 108.879 5.30062 108.763 5.38108C108.432 5.60905 108.084 5.80572 107.722 5.98005C107.588 5.75208 107.41 5.542 107.186 5.35873C107.235 5.35873 107.289 5.34085 107.307 5.28274C107.351 5.15311 107.392 5.01901 107.436 4.88938C107.481 4.75081 107.262 4.69271 107.218 4.83128C107.173 4.9609 107.133 5.095 107.088 5.22463C107.084 5.24251 107.079 5.25592 107.084 5.26933C107.084 5.26933 107.079 5.26932 107.075 5.26485C106.329 4.72399 105.395 4.648 104.52 4.83574C105.695 3.07011 110.379 4.0088 109.111 6.19014H109.106ZM101.988 4.38428C102.234 4.12949 102.542 3.93281 102.859 3.77189C102.85 4.03562 102.872 4.29488 102.926 4.55413C102.957 4.69717 103.172 4.63459 103.145 4.49155C103.087 4.21442 103.073 3.93728 103.091 3.65568C103.243 3.57969 103.404 3.51264 103.556 3.49029C103.578 3.49029 103.609 3.49029 103.636 3.49029C103.632 3.60204 103.605 3.75401 103.605 3.7853C103.596 3.94175 103.587 4.09373 103.578 4.25018C103.569 4.39769 103.797 4.39322 103.806 4.25018C103.815 4.05797 103.828 3.87023 103.837 3.67803C103.837 3.62886 103.846 3.57521 103.855 3.52158C104.19 3.60203 104.601 3.82553 104.645 4.08032C104.645 4.08479 104.645 4.08926 104.65 4.09373C104.342 4.32617 104.092 4.62119 103.94 4.99666C103.94 5.00113 103.94 5.0056 103.94 5.01007C103.23 5.26933 102.006 5.77443 101.609 6.51644C101.216 5.84148 101.439 4.96537 101.997 4.39321L101.988 4.38428ZM101.099 4.98325C100.934 5.42131 100.89 5.89512 101.024 6.33765C100.729 6.23037 100.434 6.12309 100.139 6.01581C100.001 5.96664 99.9473 6.18567 100.081 6.23484C100.434 6.36447 100.787 6.48963 101.14 6.61926C101.162 6.66396 101.184 6.70865 101.211 6.75335C100.827 6.61925 100.363 6.82934 100.01 7.15118C99.2596 7.83955 98.6701 8.82741 98.5853 9.8555C96.3569 8.29102 99.0944 5.24251 101.095 4.98772L101.099 4.98325ZM98.3397 14.4417C97.4242 13.2035 97.0535 11.2769 98.0673 10.0209C98.2191 10.155 98.3933 10.2801 98.5942 10.3964C98.5942 10.4277 98.5987 10.4634 98.6031 10.4947C98.7103 11.2814 99.0676 12.2827 99.7196 12.8414C99.4829 12.9219 99.2507 13.0023 99.014 13.0873C98.8756 13.1364 98.9381 13.351 99.0765 13.3063C99.3578 13.208 99.6392 13.1141 99.9205 13.0158C99.925 13.0158 99.9295 13.0113 99.9384 13.0068C99.9964 13.047 100.059 13.0828 100.121 13.1096C100.153 13.123 100.184 13.1365 100.22 13.1499C99.9741 13.3823 99.724 13.6192 99.4784 13.8516C99.3712 13.95 99.5365 14.1109 99.6392 14.0081C99.8848 13.7757 100.13 13.5432 100.376 13.3108C100.684 13.7891 101.006 14.2316 101.345 14.616C101.14 14.6875 100.979 14.7948 100.765 14.911C99.8223 15.4251 99.0363 15.3804 98.3441 14.4372L98.3397 14.4417ZM100.412 15.6039C100.809 15.4072 101.153 15.1032 101.667 15.0004C101.676 15.0004 101.68 14.9915 101.689 14.9915C102.149 15.4385 102.645 15.7782 103.198 15.9615C102.872 16.3146 102.484 16.6185 102.01 16.7303C101.247 16.9091 100.403 16.4263 100.407 15.6083L100.412 15.6039ZM103.149 16.623C103.323 16.48 103.484 16.3235 103.627 16.1581C103.64 16.1581 103.658 16.1581 103.672 16.1581C104.476 16.8197 105.574 17.0387 106.574 16.6901C107.414 16.395 108.111 15.6977 108.195 14.8395C108.499 14.9513 108.807 14.9915 109.111 14.9647C108.249 17.1862 104.895 18.5406 103.149 16.6275V16.623ZM110.915 13.1499C110.607 13.7533 110.071 14.2495 109.455 14.4372C109.406 14.4372 109.357 14.4461 109.312 14.473C108.941 14.5534 108.548 14.5177 108.169 14.3255C108.164 14.2942 108.16 14.2629 108.151 14.2316C108.137 14.1824 108.115 14.1467 108.084 14.1243C108.218 13.95 108.321 13.7622 108.383 13.5745C108.401 13.5745 108.419 13.5745 108.437 13.5745C108.736 13.8069 109.035 14.0394 109.334 14.2718C109.45 14.3612 109.607 14.2003 109.491 14.1109C109.249 13.9232 109.004 13.7354 108.763 13.5477C109.111 13.4896 109.428 13.3644 109.709 13.1811C109.709 13.1811 109.714 13.1901 109.718 13.1946C109.808 13.2571 109.892 13.3242 109.982 13.3868C110.098 13.4717 110.21 13.275 110.093 13.1901C110.026 13.1409 109.964 13.0962 109.897 13.047C110.647 12.4615 111.125 11.4647 111.299 10.4142C111.706 11.116 111.196 12.5866 110.906 13.1633L110.915 13.1499ZM111.589 10.0298C111.527 9.95384 111.46 9.88232 111.38 9.81527C111.402 9.43533 111.384 9.05985 111.33 8.69778C111.348 8.65755 111.339 8.60838 111.308 8.57263C111.147 7.69651 110.745 6.93662 110.08 6.52092C110.343 6.48516 110.611 6.4494 110.875 6.41364C111.018 6.39576 111.018 6.16779 110.875 6.18567C110.589 6.2259 110.308 6.26166 110.022 6.30189C110.111 6.24378 110.245 6.17226 110.303 6.08286C110.388 5.94876 110.259 5.78337 110.111 5.87277C110.08 5.89065 110.053 5.93088 110.058 5.97111C110.058 5.97558 110.058 5.98005 110.058 5.98452C110.058 5.99346 110.058 5.99793 110.062 6.0024C110 6.05604 109.897 6.10521 109.857 6.13203C109.767 6.19014 109.674 6.23931 109.58 6.28401C109.58 6.28401 109.575 6.28401 109.571 6.28401C109.723 5.98452 109.799 5.70738 109.799 5.44812C111.898 5.89512 112.157 8.23738 111.589 10.0254V10.0298Z" fill="#946D4E"/>
<path d="M100.943 11.2949L101.528 11.1429C101.671 11.1071 101.609 10.8881 101.466 10.9239L100.881 11.0758C100.738 11.1116 100.8 11.3306 100.943 11.2949Z" fill="#946D4E"/>
<path d="M107.865 5.78784C108.106 5.54647 108.343 5.30508 108.584 5.06371C108.687 4.9609 108.526 4.79998 108.423 4.90726C108.182 5.14864 107.945 5.39001 107.704 5.63139C107.602 5.7342 107.762 5.89512 107.865 5.78784Z" fill="#946D4E"/>
<path d="M99.7553 7.19143C99.8312 7.31659 100.028 7.20037 99.9518 7.07521C99.858 6.9277 99.7687 6.77572 99.6749 6.62822C99.599 6.50306 99.4025 6.61928 99.4784 6.74444C99.5722 6.89195 99.6615 7.04393 99.7553 7.19143Z" fill="#946D4E"/>
<path d="M190.867 5.10072C190.386 5.20384 189.553 5.35847 189.515 5.94752C188.4 6.29147 187.302 6.694 186.235 7.14132C186.615 6.60755 186.869 5.95661 186.492 5.40526C186.402 5.27431 186.255 5.3087 186.179 5.40512C186.116 5.37753 186.043 5.37404 185.973 5.42913C185.325 5.91799 184.674 6.85812 185.253 7.56802C182.796 8.67954 180.475 10.0564 178.314 11.6882C178.276 11.7192 178.255 11.7536 178.245 11.7915C175.045 12.2378 171.786 12.66 168.572 12.6034C171.583 11.0684 174.695 9.7712 177.912 8.71515C178.637 9.61114 180.011 9.61178 181.025 9.27811C181.046 9.27123 181.06 9.25746 181.077 9.24713C181.227 9.22309 181.349 9.06123 181.22 8.91994C180.693 8.35818 180.031 8.17186 179.327 8.14397C180.268 7.62769 181.017 6.8254 181.466 5.81628C181.539 5.65441 181.393 5.53032 181.253 5.53715C181.229 5.53369 181.208 5.53369 181.18 5.54056C179.877 5.84998 177.852 6.71368 177.845 8.2914C176.026 8.88305 174.245 9.55396 172.492 10.3007C172.816 9.85643 173.053 9.36049 173.248 8.83697C173.45 8.29967 173.715 7.74174 173.547 7.16982C173.526 7.10091 173.484 7.06645 173.439 7.0492C173.4 6.94929 173.296 6.88034 173.17 6.94917C172.369 7.38284 171.738 8.05429 171.428 8.9119C171.23 9.46642 171.049 10.3413 171.701 10.6413C170.401 11.216 169.115 11.832 167.854 12.4928C167.812 12.5135 167.787 12.5445 167.77 12.5755C165.197 12.464 162.656 12.0185 160.198 11.0011C159.944 10.8942 159.783 11.2868 160.038 11.3937C161.178 11.8662 162.339 12.2147 163.507 12.4667C163.517 12.5115 163.538 12.5528 163.597 12.5838C167.384 14.7352 171.55 15.9256 175.915 16.0792C175.936 16.0792 175.949 16.0723 175.967 16.0689C175.97 16.0724 175.974 16.0758 175.977 16.0793C176.992 17.0408 178.136 17.6959 179.475 18.0961C179.541 19.1537 180.678 19.9534 181.713 19.7782C181.748 19.7714 181.776 19.7576 181.8 19.7404C181.867 19.7025 181.912 19.6302 181.891 19.5337C181.804 19.1375 181.608 18.7516 181.308 18.4621C181.779 18.4658 182.253 18.466 182.72 18.4662C183.069 18.9969 183.648 19.4105 184.296 19.466C185.161 19.5353 185.868 18.8432 186.439 18.3061C186.471 18.2751 186.488 18.2441 186.499 18.2062C186.544 18.1132 186.523 17.9961 186.404 17.9547C186.376 17.934 186.345 17.9236 186.31 17.9236C185.104 17.5717 183.58 16.8717 182.647 18.0494C182.117 18.0491 181.583 18.0454 181.057 18.0417C181.528 17.8249 181.928 17.4359 182.165 16.9812C182.165 16.9812 182.172 16.9744 182.176 16.9709C182.183 16.964 182.186 16.9537 182.193 16.9399C182.249 16.8297 182.193 16.7401 182.113 16.6953C182.106 16.6884 182.099 16.6815 182.088 16.6781C182.088 16.6781 182.088 16.6781 182.085 16.6746C182.067 16.6643 182.046 16.6505 182.022 16.647C181.464 16.5365 180.903 16.6224 180.412 16.9081C180.102 17.0905 179.76 17.3522 179.635 17.6966C178.484 17.3516 177.466 16.7999 176.559 16.0278C178.626 15.6189 180.714 15.3133 182.816 15.111C182.82 15.1282 182.82 15.1489 182.83 15.1661C183.294 16.1344 184.354 16.6309 185.389 16.4282C185.529 16.5936 185.846 16.4387 185.745 16.2078C185.745 16.2078 185.741 16.2044 185.738 16.201C185.734 16.1424 185.706 16.0873 185.661 16.0425C185.417 15.5876 185.047 15.2223 184.604 14.9913C185.584 14.8436 186.566 14.472 186.883 13.6489C186.97 13.425 186.677 13.2802 186.535 13.4145C185.328 13.2899 183.143 13.2165 182.858 14.6839C180.575 14.8998 178.316 15.2364 176.075 15.6935C176.047 15.6659 176.008 15.6487 175.96 15.6486C174.795 15.6068 173.638 15.4891 172.505 15.2991C173.317 15.0342 174.021 14.5316 174.606 13.8636C174.679 13.7775 174.666 13.6879 174.606 13.6224C174.578 13.5742 174.533 13.5294 174.46 13.5121C173.651 13.3257 172.807 13.4563 172.097 13.8762C171.671 14.1309 171.163 14.5372 171.149 15.0401C168.897 14.543 166.714 13.7496 164.654 12.6705C169.458 13.4512 174.456 12.7371 179.28 12.0573C179.956 11.9611 180.636 11.8753 181.316 11.7895C184.073 12.3316 186.848 12.7257 189.637 12.9819C189.752 13.4608 190.404 14.0157 190.718 14.2914C191.363 14.8601 192.144 15.205 193.012 15.2226C193.162 15.2261 193.239 15.1021 193.242 14.9953C193.256 14.954 193.263 14.9058 193.242 14.8507C192.907 13.9824 192.175 13.4653 191.348 13.1239C193.126 13.2488 194.908 13.3151 196.692 13.3228C196.567 13.7499 197.031 14.1187 197.4 14.3187C198.105 14.691 198.906 14.781 199.68 14.6229C199.722 14.616 199.753 14.5919 199.781 14.5713C199.921 14.6609 200.154 14.5749 200.112 14.3751C199.906 13.3863 198.557 13.0722 197.571 12.9925C198.034 12.8308 198.491 12.6484 198.933 12.4385C198.944 12.4489 198.947 12.4592 198.958 12.4626C199.969 13.3037 201.157 12.4671 201.777 11.5993C201.784 11.5924 201.784 11.5786 201.791 11.5718C201.791 11.5718 201.805 11.5718 201.809 11.5683C202.08 11.5202 202.014 11.1034 201.742 11.1515C200.85 11.3164 199.183 10.792 198.891 12.0045C198.87 12.0044 198.849 12.0113 198.825 12.0216C198.382 12.2316 197.929 12.4174 197.466 12.5791C197.825 12.314 198.103 11.949 198.274 11.5184C198.337 11.4702 198.354 11.391 198.333 11.3152C198.33 11.1327 198.082 11.0257 197.971 11.1566C197.249 11.2217 196.482 11.3385 195.946 11.8687C195.684 12.127 195.468 12.5747 195.622 12.8986C191.282 12.8173 186.966 12.395 182.696 11.6317C188.531 10.9455 194.387 10.5624 200.257 10.2345C200.271 10.2482 200.288 10.2655 200.316 10.2724C201.045 10.5518 201.77 10.9035 202.568 10.7695C203.3 10.6458 203.906 10.2189 204.3 9.60251C204.356 9.51297 204.338 9.41996 204.289 9.35793C204.53 9.38215 204.565 8.99635 204.31 8.93767C202.703 8.57521 201.211 8.56761 200.037 9.83131C196.457 10.0329 192.877 10.2482 189.304 10.5393C191.218 9.7376 193.128 8.93242 195.041 8.13067C195.174 8.38565 195.407 8.58901 195.686 8.70626C196.23 8.94077 196.83 8.79636 197.366 8.63126C197.45 8.60374 197.488 8.5452 197.492 8.47975C197.533 8.42465 197.554 8.35577 197.519 8.27996C197.289 7.71491 196.825 7.35987 196.302 7.24939C196.456 7.11856 196.581 6.96016 196.658 6.7604C196.835 6.3161 196.713 5.7821 196.302 5.51321C196.159 5.42013 196.005 5.51651 195.967 5.63706C195.483 5.88831 195.092 6.3015 194.908 6.82158C194.828 7.05235 194.755 7.41402 194.849 7.65864C194.846 7.68276 194.846 7.71031 194.853 7.73787C193.532 8.29187 192.211 8.84587 190.89 9.39986C191.221 8.79028 191.269 8.06001 191.014 7.38815C190.952 7.22277 190.763 7.23646 190.666 7.33976C190.614 7.30873 190.554 7.29837 190.485 7.33967C189.575 7.8663 189.314 8.98575 189.932 9.80246C189.269 10.0777 188.607 10.3599 187.945 10.6352C187.945 10.6352 187.942 10.6386 187.938 10.6421C185.718 10.8374 183.501 11.0775 181.284 11.3658C181.256 11.3589 181.225 11.3554 181.197 11.3485C181.12 11.3347 181.064 11.3554 181.026 11.4001C180.768 11.4344 180.507 11.4653 180.249 11.4997C179.844 11.5546 179.437 11.613 179.029 11.6713C180.559 10.5525 182.158 9.55767 183.834 8.7007C184.389 9.44849 185.354 9.41793 186.201 9.32532C186.247 9.32189 186.278 9.30468 186.306 9.27714L186.313 9.27026C186.327 9.25648 186.341 9.24271 186.351 9.22549C186.358 9.2186 186.358 9.21172 186.362 9.20138C186.369 9.18072 186.372 9.1566 186.376 9.13249C186.376 9.11182 186.376 9.09805 186.369 9.07737C186.32 8.34705 185.58 8.16757 184.869 8.20168C186.417 7.47211 188.013 6.84591 189.661 6.3334C190.167 6.90203 190.945 7.09876 191.684 6.88552C192.154 6.7514 193.269 6.1663 193.276 5.58757C193.276 5.57379 193.272 5.55657 193.272 5.54279C193.401 5.44984 193.433 5.23972 193.241 5.18796C192.449 4.98434 191.648 4.92886 190.846 5.10072L190.867 5.10072ZM190.301 9.54771C189.872 8.94467 189.99 8.13174 190.683 7.72903C190.687 7.72558 190.69 7.72214 190.694 7.7187C190.879 8.36986 190.726 9.03119 190.297 9.55116L190.301 9.54771ZM195.34 7.26961C195.295 7.27993 195.264 7.30402 195.236 7.33157C195.278 7.08356 195.469 6.66683 195.518 6.59107C195.695 6.3259 195.932 6.13311 196.218 5.99545C196.365 6.19531 196.365 6.47778 196.232 6.70508C196.048 7.01847 195.682 7.18021 195.34 7.26961ZM195.438 7.94484C195.497 7.88631 195.504 7.79674 195.473 7.72439C196.072 7.46975 196.742 7.70432 197.066 8.27975C196.505 8.42073 195.689 8.47546 195.438 7.94484ZM200.563 9.9039C201.546 9.00182 202.759 9.03683 204.021 9.29234C204.007 9.30611 203.99 9.32333 203.972 9.34055C203.105 10.7077 201.822 10.3833 200.563 9.9039ZM196.03 12.6611C196.03 12.6611 196.012 12.6645 196.002 12.6679C195.967 12.4819 196.27 12.1548 196.343 12.0963C196.493 11.9689 196.667 11.8725 196.852 11.8002C197.152 11.6833 197.469 11.6317 197.786 11.6009C197.441 12.2311 196.779 12.658 196.03 12.6611ZM199.303 12.1907C199.435 11.4191 200.477 11.5539 201.261 11.5922C200.77 12.1741 200.017 12.7043 199.303 12.1907ZM197.135 13.3953C197.811 13.4094 199.213 13.541 199.607 14.2198C199.206 14.2988 198.809 14.3193 198.401 14.2399C198.202 14.2019 196.874 13.7914 197.135 13.3953ZM190.557 13.5335C190.508 13.4783 190.372 13.3439 190.257 13.2095C191.237 13.4752 192.273 13.8925 192.747 14.7953C192.193 14.7296 191.691 14.5227 191.234 14.1745C190.986 13.985 190.763 13.7713 190.557 13.5335ZM171.578 15.0782C171.553 14.558 172.518 14.1141 172.877 13.9937C173.254 13.8698 173.637 13.8356 174.024 13.8737C173.352 14.5382 172.54 14.9684 171.578 15.0782ZM183.307 14.6669C183.635 13.6542 185.294 13.7239 186.298 13.8208C185.695 14.5336 184.228 14.6742 183.307 14.6669ZM183.283 15.1181C184.047 15.0806 184.751 15.4323 185.166 16.0491C184.413 16.1521 183.656 15.7763 183.283 15.1181ZM180.029 17.8104C180.147 17.5211 180.645 17.2492 180.872 17.1563C181.126 17.0497 181.384 17.0153 181.649 17.0292C181.29 17.5286 180.646 17.9037 180.029 17.8104ZM183.069 18.2184C183.783 17.4574 184.968 17.9264 185.903 18.23C185.554 18.5537 185.174 18.8808 184.711 18.9942C184.055 19.1593 183.407 18.7662 183.062 18.2184L183.069 18.2184ZM179.935 18.2823C180.59 18.4549 181.162 18.7101 181.399 19.3716C180.741 19.3678 180.109 18.9094 179.935 18.2823ZM172.725 8.98141C172.527 9.46014 172.276 9.89407 171.945 10.2832C171.938 10.2763 171.927 10.2659 171.914 10.2659C171.3 10.0314 171.881 8.82944 172.101 8.47472C172.366 8.0408 172.738 7.69305 173.171 7.43145C173.244 7.91031 172.903 8.55778 172.729 8.98485L172.725 8.98141ZM178.278 8.12625C178.434 7.02743 179.807 6.35978 180.856 6.04679C180.295 7.04208 179.379 7.78229 178.278 8.12625ZM178.386 8.59824C179.16 8.50215 179.982 8.48187 180.617 8.94377C179.878 9.12944 178.961 9.11868 178.386 8.59824ZM184.402 8.66307C184.918 8.56686 185.758 8.50869 185.926 8.92215C185.393 8.97357 184.821 8.98019 184.402 8.66307ZM185.559 7.2788C185.148 6.76188 185.775 6.08699 186.203 5.75994C186.406 6.2492 185.911 6.90348 185.559 7.2788ZM192.802 5.50468C192.767 5.57356 192.781 5.63557 192.812 5.68036C192.61 6.01786 191.854 6.37921 191.6 6.45833C190.983 6.6475 190.338 6.49907 189.933 5.98216C190.01 5.5757 191.188 5.44536 191.491 5.42139C191.934 5.3837 192.37 5.41491 192.802 5.50468Z" fill="#946D4E"/>
</svg>
