<svg width="140" height="28" viewBox="0 0 140 28" fill="none" xmlns="http://www.w3.org/2000/svg">
<path d="M36.6791 20.5848C36.6791 21.3011 36.3526 22.1191 35.6996 23.046C35.208 23.7482 34.5866 24.4259 33.8388 25.0859C33.1927 25.6617 32.7995 25.9496 32.6626 25.9496C32.2483 26.8063 32.0411 27.2733 32.0411 27.3575C32.0411 27.3856 32.0482 27.3996 32.0622 27.3996C32.0833 27.3996 32.1114 27.3856 32.1465 27.3575C32.2307 27.2943 32.5221 27.0556 33.0242 26.6378C33.5263 26.22 33.7931 25.9953 33.8282 25.9601C33.8914 25.8969 33.9511 25.8654 34.0073 25.8654C34.0845 25.8654 34.1231 25.911 34.1231 26.0023C34.1231 26.0304 34.0951 26.0901 34.0389 26.1813C33.8072 26.4973 33.6913 26.7887 33.6913 27.0556C33.6913 27.3224 33.7896 27.4664 33.9862 27.4664C34.1688 27.4664 34.5339 27.2803 35.0781 26.9081C35.1132 26.88 35.1624 26.8484 35.2256 26.8133C35.2467 26.7922 35.2677 26.7817 35.2888 26.7817C35.3099 26.7817 35.3204 26.7958 35.3204 26.8238C35.3204 26.8519 35.2677 26.9081 35.1624 26.9924C34.5515 27.4839 34.1091 27.7297 33.8388 27.7297C33.6843 27.7297 33.5614 27.677 33.4666 27.5787C33.3718 27.4769 33.3262 27.3575 33.3262 27.2171C33.3262 27.0977 33.3542 26.9538 33.4139 26.7817C33.4736 26.6097 33.5017 26.5043 33.5017 26.4622C33.5017 26.4552 33.4982 26.4482 33.4912 26.4412C32.3009 27.4453 31.669 27.9438 31.5988 27.9438C31.5496 27.9438 31.525 27.8947 31.525 27.7964C32.1851 26.3323 32.796 25.0719 33.3648 24.0221C34.7095 21.5117 35.7031 20.2583 36.3421 20.2583C36.5668 20.2583 36.6791 20.3707 36.6791 20.5954V20.5848ZM36.3737 20.7428C36.3737 20.5813 36.3105 20.5006 36.1841 20.5006C35.5521 20.6621 34.4146 22.4106 32.7679 25.7495C32.9645 25.6863 33.3472 25.3738 33.9125 24.8121C34.5655 24.166 35.1062 23.5165 35.5416 22.8564C36.0963 22.0279 36.3737 21.3257 36.3737 20.7428Z" fill="#2C221E"/>
<path d="M38.6031 26.8203C38.6031 26.9046 38.3855 27.0661 37.9501 27.3048C37.4937 27.5576 37.1672 27.684 36.9705 27.684C36.6054 27.684 36.4228 27.4909 36.4228 27.1047C36.4228 26.9994 36.479 26.88 36.5914 26.7466C36.5914 26.7396 36.5914 26.7361 36.5808 26.7361C36.5878 26.7361 36.3982 26.88 36.012 27.1714C35.6258 27.4628 35.3485 27.6068 35.1799 27.6068C35.0114 27.6068 34.9377 27.5401 34.9377 27.4067C34.9377 27.0837 35.208 26.708 35.7487 26.2796C36.2613 25.8654 36.6581 25.6582 36.946 25.6582C36.9881 25.6652 37.0337 25.6863 37.0864 25.7214C37.1391 25.7565 37.1636 25.7846 37.1636 25.8057C37.1636 25.8127 37.1601 25.8197 37.1531 25.8267C36.7599 25.8267 36.2578 26.1357 35.6504 26.7466C35.4538 26.9432 35.3555 27.1117 35.3555 27.2452C35.3555 27.2943 35.3801 27.3189 35.4292 27.3189C35.5837 27.3189 35.8786 27.1398 36.314 26.7817C36.6651 26.4868 36.9144 26.2516 37.0618 26.076C37.132 25.9917 37.1812 25.9496 37.2093 25.9496C37.2795 25.9496 37.3146 25.9988 37.3146 26.0971C37.3146 26.1322 37.269 26.2129 37.1777 26.3358C36.8757 26.7466 36.7248 27.0064 36.7248 27.1188C36.7248 27.3119 36.8336 27.4102 37.0513 27.4102C37.4094 27.4102 37.8939 27.2065 38.5013 26.7993C38.5224 26.7782 38.5434 26.7677 38.5645 26.7677C38.5856 26.7677 38.5961 26.7817 38.5961 26.8098L38.6031 26.8203Z" fill="#2C221E"/>
<path d="M42.8093 26.8203C42.7672 26.9397 42.5109 27.1188 42.0404 27.3575C41.5699 27.5963 41.2223 27.7156 41.0011 27.7156C40.8818 27.7156 40.8221 27.6735 40.8221 27.5892C40.8221 27.4769 40.9379 27.2522 41.1697 26.9151C41.4014 26.5781 41.5173 26.3569 41.5173 26.2515C41.5173 26.1322 41.4611 26.0725 41.3487 26.0725C41.1802 26.0725 40.8467 26.3007 40.3446 26.7571C40.004 27.0661 39.7021 27.3645 39.4458 27.6524C39.3475 27.7578 39.2702 27.8104 39.2141 27.8104C39.1228 27.8104 39.0771 27.7613 39.0771 27.663C39.0771 27.6349 39.1017 27.5647 39.1509 27.4523C39.3194 27.2206 39.4844 26.9889 39.6459 26.7571C39.8917 26.406 40.0146 26.1568 40.0146 26.0093C40.0146 25.9461 39.9935 25.9145 39.9514 25.9145C39.9303 25.9145 39.8882 25.9285 39.825 25.9566C39.4669 26.2235 38.9578 26.6026 38.3012 27.0907H38.2275C38.1783 27.0907 38.1537 27.0836 38.1537 27.0696C38.1537 27.0485 38.1924 27.0134 38.2696 26.9643C38.7611 26.5781 39.3018 26.1603 39.8987 25.7144C39.983 25.6442 40.0918 25.609 40.2252 25.609C40.3657 25.609 40.4359 25.6722 40.4359 25.7986C40.4359 25.9461 40.3341 26.1673 40.1374 26.4657C39.9373 26.7641 39.839 26.9257 39.839 26.9537C39.839 26.9608 39.846 26.9643 39.8601 26.9643C39.8531 26.9643 40.0883 26.7677 40.5658 26.3709C41.0433 25.9742 41.3663 25.7776 41.5313 25.7776C41.7911 25.7776 41.921 25.8653 41.921 26.0409C41.921 26.1954 41.8087 26.4482 41.584 26.7993C41.3593 27.1504 41.2469 27.3505 41.2469 27.3996C41.2469 27.4558 41.282 27.4839 41.3522 27.4839C41.4857 27.4839 41.742 27.3821 42.1211 27.1784C42.381 27.031 42.5811 26.9081 42.7215 26.8098C42.7426 26.7887 42.7637 26.7782 42.7847 26.7782C42.8058 26.7782 42.8163 26.7922 42.8163 26.8203H42.8093Z" fill="#2C221E"/>
<path d="M48.634 20.3847C48.634 20.9675 48.1179 21.9822 47.0856 23.4287C46.1868 24.6821 45.3337 25.7003 44.5226 26.4833C44.4735 26.6307 44.4489 26.8379 44.4489 27.1012C44.4489 27.2065 44.484 27.3048 44.5542 27.3996C44.6244 27.4944 44.6982 27.5401 44.7754 27.5401C44.9861 27.5401 45.2669 27.4382 45.611 27.2276C45.8147 27.0907 46.0218 26.9467 46.236 26.8028C46.257 26.7817 46.2781 26.7712 46.2992 26.7712C46.3202 26.7712 46.3308 26.7852 46.3308 26.8133C46.3308 26.8976 46.1131 27.0801 45.6777 27.361C45.2213 27.6559 44.8948 27.8034 44.6982 27.8034C44.326 27.8034 44.1399 27.4909 44.1399 26.866C44.1399 26.8308 44.1329 26.8133 44.1189 26.8133C43.9152 26.9678 43.7081 27.1258 43.5044 27.2873C43.2306 27.4839 43.0059 27.5822 42.8374 27.5822C42.6688 27.5822 42.5951 27.4874 42.5951 27.2978C42.5951 26.9186 42.8022 26.5289 43.2165 26.1251C43.6308 25.7214 44.0486 25.5212 44.47 25.5212C44.6947 24.8823 45.2353 23.8957 46.092 22.5545C47.1383 20.9219 47.9212 20.1038 48.4409 20.1038C48.5673 20.1038 48.6305 20.1951 48.6305 20.3777L48.634 20.3847ZM44.4173 25.7284C44.4173 25.6863 44.4032 25.6652 44.3752 25.6652C44.0943 25.7424 43.7888 25.9636 43.4588 26.3358C43.1568 26.6764 42.9883 26.9537 42.9532 27.1609C42.9602 27.2732 43.0164 27.3294 43.1217 27.3294C43.199 27.3294 43.3886 27.2276 43.6905 27.0275C43.845 26.9151 43.9995 26.8028 44.154 26.6939C44.1891 26.5394 44.2768 26.2199 44.4173 25.7319V25.7284ZM48.2337 20.5111C48.2337 20.4549 48.2126 20.4198 48.1705 20.4058C47.5631 20.7428 46.8469 21.6416 46.0218 23.1092C45.4565 24.1239 45.0247 25.0192 44.7333 25.7916C44.7052 25.8829 44.656 26.0514 44.5858 26.2972C45.3828 25.4967 46.1622 24.5276 46.9241 23.3831C47.7984 22.0735 48.2337 21.115 48.2337 20.5111Z" fill="#2C221E"/>
<path d="M52.7032 26.8203C52.7032 26.8625 52.6506 26.9186 52.5452 26.9889C52.0467 27.3259 51.7693 27.512 51.7131 27.5471C51.3971 27.7367 51.1338 27.8315 50.9232 27.8315C50.8038 27.8315 50.7055 27.7894 50.6247 27.7051C50.544 27.6208 50.5054 27.519 50.5054 27.3996C50.5054 27.0485 50.7301 26.5465 51.1795 25.8969C51.2146 25.8478 51.2321 25.8162 51.2321 25.8022C51.2321 25.7951 51.2286 25.7916 51.2216 25.7916C51.1935 25.7916 51.1443 25.8162 51.0741 25.8654C50.6809 26.1603 50.2455 26.4868 49.7716 26.8449C49.5679 27.0205 49.2695 27.2662 48.8798 27.5822C48.8236 27.6243 48.7464 27.663 48.648 27.6981C48.5989 27.6981 48.5743 27.663 48.5743 27.5927C48.5743 27.4523 48.6902 27.2276 48.9254 26.9151C49.1607 26.6027 49.2765 26.385 49.2765 26.2586C49.2765 26.1392 49.2203 26.0795 49.108 26.0795C48.9395 26.0795 48.6024 26.3112 48.0968 26.7712C47.7528 27.0837 47.4508 27.3856 47.191 27.677C47.0927 27.7823 47.0154 27.835 46.9593 27.835C46.868 27.835 46.8223 27.7858 46.8223 27.6875C46.8223 27.6595 46.8469 27.5892 46.8961 27.4734C47.0646 27.2381 47.2296 27.0064 47.3911 26.7712C47.6369 26.4166 47.7598 26.1638 47.7598 26.0163C47.7598 25.9531 47.7387 25.9215 47.6966 25.9215C47.6755 25.9215 47.6334 25.9356 47.5702 25.9637C47.2121 26.2305 46.703 26.6097 46.0464 27.0977H45.9727C45.9235 27.0977 45.899 27.0907 45.899 27.0766C45.899 27.0556 45.9376 27.0205 46.0148 26.9713C46.5064 26.5851 47.047 26.1673 47.6439 25.7214C47.7282 25.6512 47.837 25.6161 47.9704 25.6161C48.1109 25.6161 48.1811 25.6793 48.1811 25.8057C48.1811 25.8337 48.1741 25.8759 48.16 25.9321C48.0196 26.1778 47.8405 26.4903 47.6228 26.8695C47.5948 26.9186 47.5807 26.9502 47.5807 26.9643C47.5807 26.9713 47.5877 26.9748 47.6018 26.9748L47.6334 26.9643C47.8932 26.7396 48.153 26.5149 48.4128 26.2902C48.8131 25.9531 49.101 25.7846 49.2765 25.7846C49.5082 25.7846 49.6241 25.8583 49.6241 26.0058C49.6241 26.1322 49.5574 26.3218 49.4205 26.5781C49.2835 26.8344 49.2168 26.9713 49.2168 26.9924C49.2168 27.0134 49.2238 27.024 49.2379 27.024C49.266 27.024 49.3151 26.9994 49.3854 26.9502L51.5727 25.2966C51.6429 25.2404 51.7166 25.2123 51.7939 25.2123C51.843 25.2123 51.8781 25.2193 51.8992 25.2369C51.9203 25.2544 51.9308 25.2825 51.9308 25.3247C51.9308 25.3738 51.9168 25.4159 51.8887 25.4511C51.6921 25.7319 51.4919 26.0163 51.2883 26.3042C51.0496 26.6694 50.9302 26.9854 50.9302 27.2522C50.9302 27.4207 51.0215 27.5015 51.204 27.4944C51.4217 27.4874 51.6675 27.3996 51.9413 27.2311C52.166 27.0907 52.3907 26.9502 52.6154 26.8098C52.6365 26.7887 52.6576 26.7782 52.6786 26.7782C52.6997 26.7782 52.7102 26.7922 52.7102 26.8203H52.7032Z" fill="#2C221E"/>
<path d="M55.986 26.8203C55.986 26.9046 55.7683 27.0661 55.3329 27.3048C54.8765 27.5576 54.55 27.684 54.3533 27.684C53.9882 27.684 53.8056 27.4909 53.8056 27.1047C53.8056 26.9994 53.8618 26.88 53.9742 26.7466C53.9742 26.7396 53.9742 26.7361 53.9636 26.7361C53.9706 26.7361 53.7811 26.88 53.3949 27.1714C53.0086 27.4628 52.7313 27.6068 52.5628 27.6068C52.3942 27.6068 52.3205 27.5401 52.3205 27.4067C52.3205 27.0837 52.5908 26.708 53.1315 26.2796C53.6441 25.8654 54.0409 25.6582 54.3288 25.6582C54.3709 25.6652 54.4165 25.6863 54.4692 25.7214C54.5219 25.7565 54.5465 25.7846 54.5465 25.8057C54.5465 25.8127 54.5429 25.8197 54.5359 25.8267C54.1427 25.8267 53.6406 26.1357 53.0332 26.7466C52.8366 26.9432 52.7383 27.1117 52.7383 27.2452C52.7383 27.2943 52.7629 27.3189 52.812 27.3189C52.9665 27.3189 53.2614 27.1398 53.6968 26.7817C54.0479 26.4868 54.2972 26.2516 54.4446 26.076C54.5149 25.9917 54.564 25.9496 54.5921 25.9496C54.6623 25.9496 54.6974 25.9988 54.6974 26.0971C54.6974 26.1322 54.6518 26.2129 54.5605 26.3358C54.2585 26.7466 54.1076 27.0064 54.1076 27.1188C54.1076 27.3119 54.2164 27.4102 54.4341 27.4102C54.7922 27.4102 55.2767 27.2065 55.8841 26.7993C55.9052 26.7782 55.9263 26.7677 55.9473 26.7677C55.9684 26.7677 55.9789 26.7817 55.9789 26.8098L55.986 26.8203Z" fill="#2C221E"/>
<path d="M61.8212 20.3847C61.8212 20.9675 61.3051 21.9822 60.2728 23.4287C59.374 24.6821 58.5209 25.7003 57.7098 26.4833C57.6607 26.6307 57.6361 26.8379 57.6361 27.1012C57.6361 27.2065 57.6712 27.3048 57.7414 27.3996C57.8117 27.4944 57.8854 27.5401 57.9626 27.5401C58.1733 27.5401 58.4542 27.4382 58.7982 27.2276C59.0019 27.0907 59.209 26.9467 59.4232 26.8028C59.4443 26.7817 59.4653 26.7712 59.4864 26.7712C59.5075 26.7712 59.518 26.7852 59.518 26.8133C59.518 26.8976 59.3003 27.0801 58.865 27.361C58.4085 27.6559 58.082 27.8034 57.8854 27.8034C57.5132 27.8034 57.3271 27.4909 57.3271 26.866C57.3271 26.8308 57.3201 26.8133 57.3061 26.8133C57.1024 26.9678 56.8953 27.1258 56.6917 27.2873C56.4178 27.4839 56.1931 27.5822 56.0246 27.5822C55.856 27.5822 55.7823 27.4874 55.7823 27.2978C55.7823 26.9186 55.9895 26.5289 56.4038 26.1251C56.8181 25.7214 57.2359 25.5212 57.6572 25.5212C57.8819 24.8823 58.4226 23.8957 59.2792 22.5545C60.3255 20.9219 61.1085 20.1038 61.6281 20.1038C61.7545 20.1038 61.8177 20.1951 61.8177 20.3777L61.8212 20.3847ZM57.6045 25.7284C57.6045 25.6863 57.5905 25.6652 57.5624 25.6652C57.2815 25.7424 56.976 25.9636 56.646 26.3358C56.3441 26.6764 56.1755 26.9537 56.1404 27.1609C56.1475 27.2732 56.2036 27.3294 56.309 27.3294C56.3862 27.3294 56.5758 27.2276 56.8777 27.0275C57.0322 26.9151 57.1867 26.8028 57.3412 26.6939C57.3763 26.5394 57.4641 26.2199 57.6045 25.7319V25.7284ZM61.4209 20.5111C61.4209 20.4549 61.3999 20.4198 61.3577 20.4058C60.7503 20.7428 60.0341 21.6416 59.209 23.1092C58.6438 24.1239 58.2119 25.0192 57.9205 25.7916C57.8924 25.8829 57.8433 26.0514 57.773 26.2972C58.57 25.4967 59.3495 24.5276 60.1113 23.3831C60.9856 22.0735 61.4209 21.115 61.4209 20.5111Z" fill="#2C221E"/>
<path d="M62.0002 26.8203C62.0002 26.8695 61.8563 26.9853 61.5684 27.1679C60.8592 27.6173 60.3536 27.842 60.0446 27.842C59.5882 27.842 59.36 27.5752 59.36 27.0415C59.36 26.6483 59.5496 26.255 59.9323 25.8583C60.315 25.4616 60.6766 25.265 61.0207 25.265C61.126 25.265 61.1787 25.3141 61.1787 25.4124C61.1787 25.6512 60.9715 25.9847 60.5572 26.4166C60.2272 26.7571 59.9568 26.9924 59.7462 27.1187C59.7673 27.4277 59.9147 27.5787 60.1886 27.5787C60.4484 27.5787 60.8837 27.4066 61.4911 27.0591C61.5403 27.031 61.6772 26.9467 61.9019 26.8098C61.923 26.7887 61.9441 26.7782 61.9651 26.7782C61.9862 26.7782 61.9967 26.7922 61.9967 26.8203H62.0002ZM60.8557 25.6125C60.8557 25.5283 60.8311 25.4861 60.7819 25.4861C60.6064 25.4861 60.3922 25.6617 60.1394 26.0128C59.8866 26.3639 59.7567 26.6799 59.7497 26.9608C59.8831 26.9186 60.0938 26.7361 60.3817 26.413C60.6977 26.0619 60.8557 25.7951 60.8557 25.6125Z" fill="#2C221E"/>
<path d="M68.4885 20.5848C68.4885 21.3011 68.1515 22.1367 67.4774 23.0987C66.9648 23.836 66.3223 24.5557 65.5534 25.265C64.8863 25.8759 64.486 26.1813 64.3456 26.1813C64.0156 26.8624 63.8505 27.2557 63.8505 27.3575C64.2508 26.9713 64.6545 26.5851 65.0583 26.2024C65.8588 25.4932 66.4451 25.1386 66.8243 25.1386C66.9718 25.1596 67.0455 25.2228 67.0455 25.3282C67.0455 25.6301 66.9051 25.8899 66.6242 26.1076C66.3644 26.2691 66.1011 26.4271 65.8342 26.5816C65.5534 26.7571 65.4129 26.9432 65.4129 27.1398C65.4129 27.4488 65.5358 27.6033 65.7816 27.6033C66.0695 27.6033 66.5786 27.3715 67.3053 26.9081C67.3404 26.88 67.3896 26.8484 67.4528 26.8133C67.4739 26.7922 67.4949 26.7817 67.516 26.7817C67.5371 26.7817 67.5476 26.7957 67.5476 26.8238C67.5476 26.8308 67.5019 26.88 67.4107 26.9713C67.2421 27.1398 66.9507 27.3259 66.5364 27.533C66.1221 27.7402 65.8132 27.842 65.6095 27.842C65.2303 27.842 65.0408 27.6594 65.0408 27.2943C65.0408 27.0134 65.1812 26.7782 65.4586 26.5886C65.7078 26.4411 65.9677 26.2902 66.238 26.1322C66.5083 25.9742 66.6418 25.7881 66.6418 25.5704C66.6418 25.4721 66.5961 25.4229 66.5048 25.4229C66.2801 25.4229 65.7429 25.8267 64.8863 26.6307C64.0296 27.4382 63.5697 27.8385 63.5065 27.8385C63.4222 27.8315 63.3801 27.7929 63.3801 27.7226C63.3801 27.6735 63.4011 27.6138 63.4433 27.5436C63.7803 26.8554 64.1174 26.1673 64.4544 25.4791C65.1636 24.0396 65.7886 22.895 66.3363 22.0454C67.1157 20.8446 67.7161 20.2443 68.1445 20.2443C68.3692 20.2443 68.4815 20.3566 68.4815 20.5813L68.4885 20.5848ZM68.1831 20.7428C68.1831 20.5813 68.1199 20.5006 67.9935 20.5006C67.3615 20.6621 66.1818 22.4878 64.4509 25.9777C64.6405 25.9145 65.0337 25.5809 65.6271 24.9806C66.3012 24.2924 66.863 23.6078 67.3194 22.9196C67.8952 22.0489 68.1831 21.3256 68.1831 20.7428Z" fill="#2C221E"/>
<path d="M71.7572 26.8203C71.7151 26.9397 71.4588 27.1188 70.9883 27.3575C70.5179 27.5963 70.1703 27.7156 69.9491 27.7156C69.8297 27.7156 69.77 27.6735 69.77 27.5892C69.77 27.4769 69.8859 27.2522 70.1176 26.9151C70.3493 26.5781 70.4652 26.3569 70.4652 26.2515C70.4652 26.1322 70.409 26.0725 70.2967 26.0725C70.1281 26.0725 69.7946 26.3007 69.2925 26.7571C68.952 27.0661 68.65 27.3645 68.3937 27.6524C68.2954 27.7578 68.2182 27.8104 68.162 27.8104C68.0707 27.8104 68.0251 27.7613 68.0251 27.663C68.0251 27.6349 68.0497 27.5647 68.0988 27.4523C68.2673 27.2206 68.4323 26.9889 68.5938 26.7571C68.8396 26.406 68.9625 26.1568 68.9625 26.0093C68.9625 25.9461 68.9414 25.9145 68.8993 25.9145C68.8782 25.9145 68.8361 25.9285 68.7729 25.9566C68.4148 26.2235 67.9057 26.6026 67.2491 27.0907H67.1754C67.1263 27.0907 67.1017 27.0836 67.1017 27.0696C67.1017 27.0485 67.1403 27.0134 67.2175 26.9643C67.7091 26.5781 68.2498 26.1603 68.8466 25.7144C68.9309 25.6442 69.0397 25.609 69.1732 25.609C69.3136 25.609 69.3838 25.6722 69.3838 25.7986C69.3838 25.9461 69.282 26.1673 69.0854 26.4657C68.8853 26.7641 68.787 26.9257 68.787 26.9537C68.787 26.9608 68.794 26.9643 68.808 26.9643C68.801 26.9643 69.0362 26.7677 69.5137 26.3709C69.9912 25.9742 70.3142 25.7776 70.4792 25.7776C70.7391 25.7776 70.869 25.8653 70.869 26.0409C70.869 26.1954 70.7566 26.4482 70.5319 26.7993C70.3072 27.1504 70.1948 27.3505 70.1948 27.3996C70.1948 27.4558 70.23 27.4839 70.3002 27.4839C70.4336 27.4839 70.6899 27.3821 71.0691 27.1784C71.3289 27.031 71.529 26.9081 71.6695 26.8098C71.6905 26.7887 71.7116 26.7782 71.7327 26.7782C71.7537 26.7782 71.7643 26.7922 71.7643 26.8203H71.7572Z" fill="#2C221E"/>
<path d="M73.5373 26.8203C73.5373 26.8624 73.4671 26.9327 73.3266 27.031C72.7789 27.4242 72.3471 27.6208 72.0346 27.6208C71.7221 27.6208 71.5606 27.4874 71.5606 27.2206C71.5606 26.9397 71.68 26.6096 71.9187 26.2305C72.0732 25.9847 72.2242 25.7881 72.3716 25.6406C72.4208 25.5774 72.498 25.5458 72.6034 25.5458C72.6595 25.5599 72.6876 25.5774 72.6876 25.5985C72.6876 25.6055 72.5683 25.8091 72.326 26.2094C72.0837 26.6097 71.9644 26.9046 71.9644 27.0942C71.9644 27.3118 72.0592 27.4207 72.2452 27.4207C72.4945 27.4207 72.8948 27.217 73.446 26.8098C73.4671 26.7887 73.4881 26.7782 73.5092 26.7782C73.5303 26.7782 73.5408 26.7922 73.5408 26.8203H73.5373ZM73.3793 24.3591C73.3793 24.4223 73.3442 24.489 73.2704 24.5522C73.1967 24.6154 73.1335 24.6505 73.0773 24.6505C72.965 24.6505 72.9053 24.5873 72.8983 24.4609C72.8983 24.3767 72.9369 24.3065 73.0142 24.2503C73.0703 24.2011 73.13 24.1765 73.1932 24.1765C73.3196 24.1765 73.3828 24.2362 73.3828 24.3556L73.3793 24.3591Z" fill="#2C221E"/>
<path d="M76.9219 23.1513C76.9219 23.1865 76.9078 23.2286 76.8797 23.2777C76.5567 23.8325 76.1144 24.6681 75.5561 25.7916C75.9774 25.7916 76.2864 25.7705 76.483 25.7284C76.49 25.7495 76.4935 25.7776 76.4935 25.8127C76.4935 25.8478 76.4655 25.8724 76.4093 25.8864C76.2688 25.9145 75.9634 25.9285 75.4929 25.9285C75.1137 26.6869 74.7732 27.3224 74.4747 27.842C74.4115 27.9473 74.3554 28 74.3062 28C74.229 28 74.1903 27.9544 74.1903 27.8631C74.1903 27.8139 74.2114 27.7402 74.2535 27.6419C74.415 27.2627 74.5344 26.7115 74.6117 25.9917C74.0288 26.5324 73.5022 26.9432 73.0352 27.2206C73.0001 27.2065 72.9826 27.189 72.9826 27.1679C72.9826 27.1187 73.0352 27.0661 73.1406 27.0099C73.5829 26.729 74.071 26.3323 74.6011 25.8232C74.0394 25.6898 73.5829 25.4756 73.2354 25.1807C72.7789 24.8015 72.5507 24.331 72.5507 23.7728C72.5507 23.5621 72.635 23.3655 72.807 23.1829C72.9791 23.0004 73.1722 22.9091 73.3898 22.9091C73.7831 22.9091 74.1096 23.1233 74.3694 23.5516C74.6433 24.008 74.7802 24.6119 74.7802 25.3703V25.6547C75.3103 25.121 75.7773 24.5908 76.1811 24.0677C76.3496 23.7868 76.5497 23.4463 76.7885 23.046C76.8095 23.046 76.8376 23.0601 76.8727 23.0882C76.9078 23.1162 76.9254 23.1373 76.9254 23.1513H76.9219ZM74.6503 25.3703C74.6503 24.8858 74.5485 24.4153 74.3448 23.9624C74.092 23.4076 73.762 23.1303 73.3547 23.1303C73.0036 23.1303 72.8281 23.3234 72.8281 23.7096C72.8281 24.1871 73.0282 24.6119 73.4285 24.9806C73.7515 25.2895 74.1552 25.5213 74.6362 25.6757C74.6362 25.6336 74.6362 25.5809 74.6468 25.5177V25.3703H74.6503ZM75.1875 25.918C75.0576 25.9039 74.9136 25.8829 74.7626 25.8548C74.7416 26.1638 74.6889 26.5184 74.6081 26.9221L74.545 27.2171L74.6749 26.9502L75.1875 25.918ZM75.7527 24.8015L75.5737 25.0016C75.3349 25.2685 75.1032 25.5142 74.8785 25.7389C75.033 25.774 75.1559 25.7916 75.2471 25.7916L75.7527 24.8015Z" fill="#2C221E"/>
<path d="M79.3515 26.8203C79.3515 26.8835 79.2075 26.9994 78.9196 27.1679C78.0419 27.6805 77.3608 27.9368 76.8692 27.9368C76.5041 27.9368 76.3215 27.7893 76.3215 27.4944C76.3215 27.361 76.3742 27.2451 76.483 27.1468C76.5918 27.0485 76.6866 26.9994 76.7709 26.9994C76.8341 26.9994 76.8657 27.0239 76.8657 27.0731C76.8657 27.1222 76.8306 27.189 76.7569 27.2767C76.6831 27.3645 76.648 27.4382 76.648 27.4909C76.648 27.6033 76.7042 27.677 76.8166 27.7121C77.0342 27.6419 77.2765 27.4347 77.5468 27.0871C77.8172 26.7396 77.9506 26.4587 77.9506 26.241C77.9506 26.0584 77.8769 25.9671 77.7294 25.9671C77.5819 25.9671 77.4134 26.0339 77.2028 26.1673C77.1115 26.2305 76.8446 26.4271 76.4023 26.7571C76.1776 26.9256 76.0266 27.038 75.9493 27.0942H75.8756C75.8265 27.0942 75.8019 27.0871 75.8019 27.0731C75.8019 27.052 75.844 27.0169 75.9213 26.9678C76.002 26.9186 76.1319 26.8238 76.3145 26.6834C76.5883 26.4797 76.8587 26.2726 77.1255 26.0619C77.4696 25.8372 77.7505 25.7249 77.9682 25.7249C78.235 25.7249 78.3684 25.8337 78.3684 26.0514C78.3684 26.6553 77.919 27.2135 77.0237 27.7332C77.5152 27.7121 78.1191 27.4874 78.8424 27.0591C78.9196 27.0169 79.0566 26.9327 79.2532 26.8063C79.2742 26.7852 79.2953 26.7747 79.3164 26.7747C79.3374 26.7747 79.348 26.7887 79.348 26.8168L79.3515 26.8203Z" fill="#2C221E"/>
<path d="M84.46 26.8203C84.46 26.9046 84.2423 27.0661 83.8069 27.3048C83.3505 27.5576 83.024 27.684 82.8274 27.684C82.4622 27.684 82.2796 27.4909 82.2796 27.1047C82.2796 26.9994 82.3358 26.88 82.4482 26.7466C82.4482 26.7396 82.4482 26.7361 82.4376 26.7361C82.4447 26.7361 82.2551 26.88 81.8689 27.1714C81.4826 27.4628 81.2053 27.6068 81.0368 27.6068C80.8682 27.6068 80.7945 27.5401 80.7945 27.4067C80.7945 27.0837 81.0648 26.708 81.6055 26.2796C82.1181 25.8654 82.5149 25.6582 82.8028 25.6582C82.8449 25.6652 82.8905 25.6863 82.9432 25.7214C82.9959 25.7565 83.0205 25.7846 83.0205 25.8057C83.0205 25.8127 83.0169 25.8197 83.0099 25.8267C82.6167 25.8267 82.1146 26.1357 81.5072 26.7466C81.3106 26.9432 81.2123 27.1117 81.2123 27.2452C81.2123 27.2943 81.2369 27.3189 81.286 27.3189C81.4405 27.3189 81.7354 27.1398 82.1708 26.7817C82.5219 26.4868 82.7712 26.2516 82.9186 26.076C82.9889 25.9917 83.038 25.9496 83.0661 25.9496C83.1363 25.9496 83.1714 25.9988 83.1714 26.0971C83.1714 26.1322 83.1258 26.2129 83.0345 26.3358C82.7326 26.7466 82.5816 27.0064 82.5816 27.1188C82.5816 27.3119 82.6904 27.4102 82.9081 27.4102C83.2662 27.4102 83.7507 27.2065 84.3581 26.7993C84.3792 26.7782 84.4003 26.7677 84.4213 26.7677C84.4424 26.7677 84.4529 26.7817 84.4529 26.8098L84.46 26.8203Z" fill="#2C221E"/>
<path d="M88.6661 26.8203C88.624 26.9397 88.3677 27.1188 87.8972 27.3575C87.4267 27.5963 87.0791 27.7156 86.858 27.7156C86.7386 27.7156 86.6789 27.6735 86.6789 27.5892C86.6789 27.4769 86.7948 27.2522 87.0265 26.9151C87.2582 26.5781 87.3741 26.3569 87.3741 26.2515C87.3741 26.1322 87.3179 26.0725 87.2055 26.0725C87.037 26.0725 86.7035 26.3007 86.2014 26.7571C85.8608 27.0661 85.5589 27.3645 85.3026 27.6524C85.2043 27.7578 85.127 27.8104 85.0709 27.8104C84.9796 27.8104 84.9339 27.7613 84.9339 27.663C84.9339 27.6349 84.9585 27.5647 85.0077 27.4523C85.1762 27.2206 85.3412 26.9889 85.5027 26.7571C85.7485 26.406 85.8714 26.1568 85.8714 26.0093C85.8714 25.9461 85.8503 25.9145 85.8082 25.9145C85.7871 25.9145 85.745 25.9285 85.6818 25.9566C85.3237 26.2235 84.8146 26.6026 84.158 27.0907H84.0843C84.0351 27.0907 84.0106 27.0836 84.0106 27.0696C84.0106 27.0485 84.0492 27.0134 84.1264 26.9643C84.618 26.5781 85.1586 26.1603 85.7555 25.7144C85.8398 25.6442 85.9486 25.609 86.082 25.609C86.2225 25.609 86.2927 25.6722 86.2927 25.7986C86.2927 25.9461 86.1909 26.1673 85.9943 26.4657C85.7941 26.7641 85.6958 26.9257 85.6958 26.9537C85.6958 26.9608 85.7028 26.9643 85.7169 26.9643C85.7099 26.9643 85.9451 26.7677 86.4226 26.3709C86.9001 25.9742 87.2231 25.7776 87.3881 25.7776C87.6479 25.7776 87.7778 25.8653 87.7778 26.0409C87.7778 26.1954 87.6655 26.4482 87.4408 26.7993C87.2161 27.1504 87.1037 27.3505 87.1037 27.3996C87.1037 27.4558 87.1388 27.4839 87.2091 27.4839C87.3425 27.4839 87.5988 27.3821 87.978 27.1784C88.2378 27.031 88.4379 26.9081 88.5783 26.8098C88.5994 26.7887 88.6205 26.7782 88.6415 26.7782C88.6626 26.7782 88.6731 26.7922 88.6731 26.8203H88.6661Z" fill="#2C221E"/>
<path d="M94.4943 20.3847C94.4943 20.9675 93.9782 21.9822 92.9459 23.4287C92.0471 24.6821 91.194 25.7003 90.3829 26.4833C90.3338 26.6307 90.3092 26.8379 90.3092 27.1012C90.3092 27.2065 90.3443 27.3048 90.4145 27.3996C90.4848 27.4944 90.5585 27.5401 90.6357 27.5401C90.8464 27.5401 91.1273 27.4382 91.4713 27.2276C91.675 27.0907 91.8821 26.9467 92.0963 26.8028C92.1174 26.7817 92.1384 26.7712 92.1595 26.7712C92.1806 26.7712 92.1911 26.7852 92.1911 26.8133C92.1911 26.8976 91.9734 27.0801 91.538 27.361C91.0816 27.6559 90.7551 27.8034 90.5585 27.8034C90.1863 27.8034 90.0002 27.4909 90.0002 26.866C90.0002 26.8308 89.9932 26.8133 89.9792 26.8133C89.7755 26.9678 89.5684 27.1258 89.3648 27.2873C89.0909 27.4839 88.8662 27.5822 88.6977 27.5822C88.5291 27.5822 88.4554 27.4874 88.4554 27.2978C88.4554 26.9186 88.6626 26.5289 89.0769 26.1251C89.4912 25.7214 89.909 25.5212 90.3303 25.5212C90.555 24.8823 91.0957 23.8957 91.9523 22.5545C92.9986 20.9219 93.7816 20.1038 94.3012 20.1038C94.4276 20.1038 94.4908 20.1951 94.4908 20.3777L94.4943 20.3847ZM90.2776 25.7284C90.2776 25.6863 90.2636 25.6652 90.2355 25.6652C89.9546 25.7424 89.6491 25.9636 89.3191 26.3358C89.0172 26.6764 88.8486 26.9537 88.8135 27.1609C88.8206 27.2732 88.8767 27.3294 88.9821 27.3294C89.0593 27.3294 89.2489 27.2276 89.5508 27.0275C89.7053 26.9151 89.8598 26.8028 90.0143 26.6939C90.0494 26.5394 90.1372 26.2199 90.2776 25.7319V25.7284ZM94.094 20.5111C94.094 20.4549 94.073 20.4198 94.0308 20.4058C93.4234 20.7428 92.7072 21.6416 91.8821 23.1092C91.3169 24.1239 90.885 25.0192 90.5936 25.7916C90.5655 25.8829 90.5163 26.0514 90.4461 26.2972C91.2431 25.4967 92.0226 24.5276 92.7844 23.3831C93.6587 22.0735 94.094 21.115 94.094 20.5111Z" fill="#2C221E"/>
<path d="M100.403 26.8203C100.403 26.8625 100.351 26.9186 100.245 26.9889C99.7467 27.3259 99.4693 27.512 99.4132 27.5471C99.0972 27.7367 98.8339 27.8315 98.6232 27.8315C98.5038 27.8315 98.4055 27.7894 98.3248 27.7051C98.244 27.6208 98.2054 27.519 98.2054 27.3996C98.2054 27.0485 98.4301 26.5465 98.8795 25.8969C98.9146 25.8478 98.9322 25.8162 98.9322 25.8022C98.9322 25.7951 98.9287 25.7916 98.9216 25.7916C98.8935 25.7916 98.8444 25.8162 98.7742 25.8654C98.3809 26.1603 97.9456 26.4868 97.4716 26.8449C97.268 27.0205 96.9695 27.2662 96.5798 27.5822C96.5236 27.6243 96.4464 27.663 96.3481 27.6981C96.2989 27.6981 96.2744 27.663 96.2744 27.5927C96.2744 27.4523 96.3902 27.2276 96.6255 26.9151C96.8607 26.6027 96.9766 26.385 96.9766 26.2586C96.9766 26.1392 96.9204 26.0795 96.808 26.0795C96.6395 26.0795 96.3025 26.3112 95.7969 26.7712C95.4528 27.0837 95.1508 27.3856 94.891 27.677C94.7927 27.7823 94.7155 27.835 94.6593 27.835C94.568 27.835 94.5224 27.7858 94.5224 27.6875C94.5224 27.6595 94.547 27.5892 94.5961 27.4734C94.7646 27.2381 94.9297 27.0064 95.0912 26.7712C95.3369 26.4166 95.4598 26.1638 95.4598 26.0163C95.4598 25.9531 95.4387 25.9215 95.3966 25.9215C95.3755 25.9215 95.3334 25.9356 95.2702 25.9637C94.9121 26.2305 94.403 26.6097 93.7465 27.0977H93.6727C93.6236 27.0977 93.599 27.0907 93.599 27.0766C93.599 27.0556 93.6376 27.0205 93.7149 26.9713C94.2064 26.5851 94.7471 26.1673 95.344 25.7214C95.4282 25.6512 95.5371 25.6161 95.6705 25.6161C95.8109 25.6161 95.8811 25.6793 95.8811 25.8057C95.8811 25.8337 95.8741 25.8759 95.8601 25.9321C95.7196 26.1778 95.5406 26.4903 95.3229 26.8695C95.2948 26.9186 95.2808 26.9502 95.2808 26.9643C95.2808 26.9713 95.2878 26.9748 95.3018 26.9748L95.3334 26.9643C95.5932 26.7396 95.853 26.5149 96.1129 26.2902C96.5131 25.9531 96.801 25.7846 96.9766 25.7846C97.2083 25.7846 97.3241 25.8583 97.3241 26.0058C97.3241 26.1322 97.2574 26.3218 97.1205 26.5781C96.9836 26.8344 96.9169 26.9713 96.9169 26.9924C96.9169 27.0134 96.9239 27.024 96.9379 27.024C96.966 27.024 97.0152 26.9994 97.0854 26.9502L99.2727 25.2966C99.3429 25.2404 99.4167 25.2123 99.4939 25.2123C99.5431 25.2123 99.5782 25.2193 99.5992 25.2369C99.6203 25.2544 99.6308 25.2825 99.6308 25.3247C99.6308 25.3738 99.6168 25.4159 99.5887 25.4511C99.3921 25.7319 99.192 26.0163 98.9883 26.3042C98.7496 26.6694 98.6302 26.9854 98.6302 27.2522C98.6302 27.4207 98.7215 27.5015 98.9041 27.4944C99.1218 27.4874 99.3675 27.3996 99.6414 27.2311C99.8661 27.0907 100.091 26.9502 100.315 26.8098C100.337 26.7887 100.358 26.7782 100.379 26.7782C100.4 26.7782 100.41 26.7922 100.41 26.8203H100.403Z" fill="#2C221E"/>
<path d="M103.682 26.8203C103.682 26.9046 103.465 27.0661 103.029 27.3048C102.573 27.5576 102.246 27.684 102.05 27.684C101.685 27.684 101.502 27.4909 101.502 27.1047C101.502 26.9994 101.558 26.88 101.671 26.7466C101.671 26.7396 101.671 26.7361 101.66 26.7361C101.667 26.7361 101.478 26.88 101.091 27.1714C100.705 27.4628 100.428 27.6068 100.259 27.6068C100.091 27.6068 100.017 27.5401 100.017 27.4067C100.017 27.0837 100.287 26.708 100.828 26.2796C101.341 25.8654 101.737 25.6582 102.025 25.6582C102.067 25.6652 102.113 25.6863 102.166 25.7214C102.218 25.7565 102.243 25.7846 102.243 25.8057C102.243 25.8127 102.239 25.8197 102.232 25.8267C101.839 25.8267 101.337 26.1357 100.73 26.7466C100.533 26.9432 100.435 27.1117 100.435 27.2452C100.435 27.2943 100.459 27.3189 100.509 27.3189C100.663 27.3189 100.958 27.1398 101.393 26.7817C101.744 26.4868 101.994 26.2516 102.141 26.076C102.211 25.9917 102.261 25.9496 102.289 25.9496C102.359 25.9496 102.394 25.9988 102.394 26.0971C102.394 26.1322 102.348 26.2129 102.257 26.3358C101.955 26.7466 101.804 27.0064 101.804 27.1188C101.804 27.3119 101.913 27.4102 102.131 27.4102C102.489 27.4102 102.973 27.2065 103.581 26.7993C103.602 26.7782 103.623 26.7677 103.644 26.7677C103.665 26.7677 103.675 26.7817 103.675 26.8098L103.682 26.8203Z" fill="#2C221E"/>
<path d="M105.944 26.8203C105.944 26.8484 105.891 26.9046 105.786 26.9889C105.505 27.1714 105.227 27.354 104.953 27.5366C104.553 27.7753 104.227 27.8947 103.974 27.8947C103.826 27.8947 103.697 27.842 103.584 27.7367C103.472 27.6314 103.416 27.512 103.416 27.3786C103.416 26.9151 103.64 26.4903 104.09 26.1076C104.49 25.7635 104.862 25.5915 105.203 25.5915C105.42 25.5915 105.529 25.6793 105.529 25.8548C105.529 25.9531 105.385 26.1462 105.097 26.4341C105.069 26.4622 105.038 26.4763 105.003 26.4763C104.946 26.4763 104.918 26.4447 104.918 26.3815C104.918 26.3534 104.929 26.3323 104.95 26.3148C104.971 26.2972 105.013 26.22 105.076 26.083C105.14 25.9461 105.171 25.8443 105.171 25.7741C105.171 25.753 105.147 25.7425 105.097 25.7425C104.922 25.7425 104.666 25.8864 104.329 26.1743C103.921 26.5184 103.718 26.873 103.718 27.2346C103.718 27.5015 103.833 27.6349 104.065 27.6349C104.423 27.6349 104.968 27.3926 105.694 26.9081C105.729 26.88 105.779 26.8484 105.842 26.8133C105.863 26.7922 105.884 26.7817 105.905 26.7817C105.926 26.7817 105.937 26.7958 105.937 26.8238L105.944 26.8203Z" fill="#2C221E"/>
<path d="M109.121 26.8203C109.121 26.9467 108.802 27.1925 108.163 27.5576C107.882 27.7191 107.601 27.7999 107.32 27.7999C106.99 27.7999 106.825 27.6594 106.825 27.3786C106.825 27.203 106.948 26.9783 107.193 26.7045C107.404 26.4727 107.52 26.3569 107.541 26.3569C107.415 26.3569 107.316 26.2831 107.246 26.1357C107.176 25.9882 107.123 25.9145 107.088 25.9145C107.06 25.9145 107.021 25.9391 106.972 25.9882C106.874 26.1357 106.684 26.3218 106.404 26.5465C106.256 26.6658 106.049 26.8168 105.782 26.9994C105.761 27.0204 105.74 27.031 105.719 27.031C105.705 27.031 105.698 26.9923 105.698 26.9151C105.733 26.894 105.859 26.8028 106.077 26.6412C106.569 26.2761 106.965 25.8653 107.264 25.4124C107.32 25.3211 107.394 25.2755 107.485 25.2755C107.527 25.2755 107.548 25.2966 107.548 25.3387C107.548 25.3668 107.534 25.4265 107.506 25.5212C107.478 25.616 107.464 25.6828 107.464 25.7249C107.464 25.8513 107.531 25.9636 107.667 26.0619C107.804 26.1602 107.871 26.227 107.871 26.2621C107.871 26.3253 107.762 26.4517 107.545 26.6448C107.327 26.8379 107.218 27.0169 107.218 27.1855C107.218 27.4312 107.33 27.5541 107.555 27.5541C107.766 27.5541 108.047 27.4488 108.391 27.2381C108.594 27.0977 108.802 26.9537 109.016 26.8063C109.037 26.7852 109.058 26.7747 109.079 26.7747C109.1 26.7747 109.11 26.7887 109.11 26.8168L109.121 26.8203Z" fill="#2C221E"/>
<path d="M112.411 26.8203C112.411 26.9046 112.193 27.0661 111.758 27.3048C111.301 27.5576 110.975 27.684 110.778 27.684C110.413 27.684 110.23 27.4909 110.23 27.1047C110.23 26.9994 110.287 26.88 110.399 26.7466C110.399 26.7396 110.399 26.7361 110.388 26.7361C110.395 26.7361 110.206 26.88 109.82 27.1714C109.433 27.4628 109.156 27.6068 108.988 27.6068C108.819 27.6068 108.745 27.5401 108.745 27.4067C108.745 27.0837 109.016 26.708 109.556 26.2796C110.069 25.8654 110.466 25.6582 110.754 25.6582C110.796 25.6652 110.841 25.6863 110.894 25.7214C110.947 25.7565 110.971 25.7846 110.971 25.8057C110.971 25.8127 110.968 25.8197 110.961 25.8267C110.568 25.8267 110.065 26.1357 109.458 26.7466C109.261 26.9432 109.163 27.1117 109.163 27.2452C109.163 27.2943 109.188 27.3189 109.237 27.3189C109.391 27.3189 109.686 27.1398 110.122 26.7817C110.473 26.4868 110.722 26.2516 110.869 26.076C110.94 25.9917 110.989 25.9496 111.017 25.9496C111.087 25.9496 111.122 25.9988 111.122 26.0971C111.122 26.1322 111.077 26.2129 110.985 26.3358C110.683 26.7466 110.532 27.0064 110.532 27.1188C110.532 27.3119 110.641 27.4102 110.859 27.4102C111.217 27.4102 111.702 27.2065 112.309 26.7993C112.33 26.7782 112.351 26.7677 112.372 26.7677C112.393 26.7677 112.404 26.7817 112.404 26.8098L112.411 26.8203Z" fill="#2C221E"/>
<path d="M118.762 26.8203C118.762 26.8625 118.709 26.9186 118.604 26.9889C118.106 27.3259 117.828 27.512 117.772 27.5471C117.456 27.7367 117.193 27.8315 116.982 27.8315C116.863 27.8315 116.764 27.7894 116.684 27.7051C116.603 27.6208 116.564 27.519 116.564 27.3996C116.564 27.0485 116.789 26.5465 117.238 25.8969C117.273 25.8478 117.291 25.8162 117.291 25.8022C117.291 25.7951 117.288 25.7916 117.281 25.7916C117.252 25.7916 117.203 25.8162 117.133 25.8654C116.74 26.1603 116.304 26.4868 115.83 26.8449C115.627 27.0205 115.328 27.2662 114.939 27.5822C114.883 27.6243 114.805 27.663 114.707 27.6981C114.658 27.6981 114.633 27.663 114.633 27.5927C114.633 27.4523 114.749 27.2276 114.984 26.9151C115.22 26.6027 115.335 26.385 115.335 26.2586C115.335 26.1392 115.279 26.0795 115.167 26.0795C114.998 26.0795 114.661 26.3112 114.156 26.7712C113.812 27.0837 113.51 27.3856 113.25 27.677C113.152 27.7823 113.074 27.835 113.018 27.835C112.927 27.835 112.881 27.7858 112.881 27.6875C112.881 27.6595 112.906 27.5892 112.955 27.4734C113.124 27.2381 113.289 27.0064 113.45 26.7712C113.696 26.4166 113.819 26.1638 113.819 26.0163C113.819 25.9531 113.798 25.9215 113.756 25.9215C113.734 25.9215 113.692 25.9356 113.629 25.9637C113.271 26.2305 112.762 26.6097 112.105 27.0977H112.032C111.982 27.0977 111.958 27.0907 111.958 27.0766C111.958 27.0556 111.997 27.0205 112.074 26.9713C112.565 26.5851 113.106 26.1673 113.703 25.7214C113.787 25.6512 113.896 25.6161 114.029 25.6161C114.17 25.6161 114.24 25.6793 114.24 25.8057C114.24 25.8337 114.233 25.8759 114.219 25.9321C114.079 26.1778 113.899 26.4903 113.682 26.8695C113.654 26.9186 113.64 26.9502 113.64 26.9643C113.64 26.9713 113.647 26.9748 113.661 26.9748L113.692 26.9643C113.952 26.7396 114.212 26.5149 114.472 26.2902C114.872 25.9531 115.16 25.7846 115.335 25.7846C115.567 25.7846 115.683 25.8583 115.683 26.0058C115.683 26.1322 115.616 26.3218 115.479 26.5781C115.342 26.8344 115.276 26.9713 115.276 26.9924C115.276 27.0134 115.283 27.024 115.297 27.024C115.325 27.024 115.374 26.9994 115.444 26.9502L117.632 25.2966C117.702 25.2404 117.776 25.2123 117.853 25.2123C117.902 25.2123 117.937 25.2193 117.958 25.2369C117.979 25.2544 117.99 25.2825 117.99 25.3247C117.99 25.3738 117.976 25.4159 117.948 25.4511C117.751 25.7319 117.551 26.0163 117.347 26.3042C117.108 26.6694 116.989 26.9854 116.989 27.2522C116.989 27.4207 117.08 27.5015 117.263 27.4944C117.481 27.4874 117.726 27.3996 118 27.2311C118.225 27.0907 118.45 26.9502 118.674 26.8098C118.695 26.7887 118.717 26.7782 118.738 26.7782C118.759 26.7782 118.769 26.7922 118.769 26.8203H118.762Z" fill="#2C221E"/>
<path d="M121.223 26.8203C121.223 26.8695 121.079 26.9853 120.791 27.1679C120.082 27.6173 119.577 27.842 119.268 27.842C118.811 27.842 118.583 27.5752 118.583 27.0415C118.583 26.6483 118.773 26.255 119.155 25.8583C119.538 25.4616 119.9 25.265 120.244 25.265C120.349 25.265 120.402 25.3141 120.402 25.4124C120.402 25.6512 120.195 25.9847 119.78 26.4166C119.45 26.7571 119.18 26.9924 118.969 27.1187C118.99 27.4277 119.138 27.5787 119.412 27.5787C119.671 27.5787 120.107 27.4066 120.714 27.0591C120.763 27.031 120.9 26.9467 121.125 26.8098C121.146 26.7887 121.167 26.7782 121.188 26.7782C121.209 26.7782 121.22 26.7922 121.22 26.8203H121.223ZM120.079 25.6125C120.079 25.5283 120.054 25.4861 120.005 25.4861C119.829 25.4861 119.615 25.6617 119.363 26.0128C119.11 26.3639 118.98 26.6799 118.973 26.9608C119.106 26.9186 119.317 26.7361 119.605 26.413C119.921 26.0619 120.079 25.7951 120.079 25.6125Z" fill="#2C221E"/>
<path d="M13.1451 0.249279C12.8256 0.779435 12.313 1.22884 11.6108 1.59749C10.9086 1.96615 10.231 2.15222 9.58495 2.15222C8.93893 2.15222 8.04715 1.96614 6.88853 1.59047C5.73693 1.2148 4.9926 1.02871 4.65555 1.02871C4.02708 1.02871 3.48639 1.27097 3.03348 1.75548C2.58056 2.24 2.35586 2.82282 2.35586 3.50746C2.35586 4.1921 2.56301 4.71875 2.9773 5.14357C3.3916 5.5684 3.90771 5.90194 4.52564 6.1442C5.14006 6.38645 6.10207 6.6884 7.40815 7.05354C8.71423 7.40815 9.76401 7.75925 10.5575 8.09981C11.351 8.44038 12.0251 8.95298 12.5763 9.6341C13.1275 10.3152 13.4049 11.207 13.4049 12.3095C13.4049 13.9631 12.7273 15.4307 11.372 16.7192C10.0168 18.0078 8.33856 18.6503 6.34081 18.6503C4.51511 18.6503 3.00188 18.1693 1.80113 17.2108C0.600376 16.2523 0 15.1112 0 13.7876C0 12.8115 0.351097 11.997 1.05329 11.344C1.75549 10.6909 2.66483 10.3644 3.77781 10.3644C4.94696 10.3644 5.93354 10.6874 6.74107 11.3299C7.54859 11.9724 7.95235 12.7378 7.95235 13.6226C7.95235 14.2265 7.7452 14.7215 7.3274 15.1077C6.9131 15.4974 6.41103 15.6905 5.82821 15.6905C4.85918 15.6905 4.13944 15.2446 3.66545 14.3493L4.00602 14.1562C4.3536 14.5108 4.7363 14.6899 5.15762 14.6899C5.60351 14.6899 5.97567 14.5319 6.27411 14.2194C6.56903 13.9034 6.72 13.5102 6.72 13.0362C6.72 12.4429 6.47072 11.9478 5.97567 11.5511C5.48063 11.1544 4.87674 10.9542 4.17455 10.9542C3.35298 10.9542 2.67185 11.2562 2.12765 11.8566C1.58345 12.4569 1.3131 13.1802 1.3131 14.0193C1.3131 15.1253 1.79762 16.0732 2.77016 16.8667C3.7427 17.6602 4.96803 18.0569 6.44614 18.0569C8.02608 18.0569 9.33918 17.5619 10.389 16.5718C11.4387 15.5817 11.9619 14.4196 11.9619 13.0854C11.9619 12.1725 11.7161 11.4317 11.2316 10.8665C10.7436 10.3012 10.1608 9.87636 9.47962 9.59197C8.79849 9.30759 7.85404 8.99511 6.63925 8.65104C5.42445 8.30696 4.47649 7.99097 3.79536 7.71009C3.11423 7.42922 2.54545 7.01843 2.08201 6.47774C1.62207 5.94057 1.39034 5.23486 1.39034 4.36765C1.39034 3.18094 1.86081 2.16276 2.80176 1.30608C3.7427 0.452916 4.8311 0.0245767 6.07398 0.0245767C6.64978 0.0245767 7.47135 0.175549 8.53868 0.477492C9.61655 0.768903 10.3925 0.916364 10.8665 0.916364C11.6424 0.916364 12.3165 0.610909 12.8923 0L13.1381 0.245767L13.1451 0.249279Z" fill="#2C221E"/>
<path d="M15.0059 16.0908C16.1926 14.395 17.1651 13.3031 17.9235 12.808C18.6819 12.313 19.4754 12.0672 20.3075 12.0672C21.1396 12.0672 21.7259 12.2779 22.1753 12.6992C22.6247 13.1205 22.8529 13.7068 22.8529 14.4547C22.8529 15.5255 22.4246 16.5016 21.5644 17.3828C20.7077 18.2641 19.7071 18.7064 18.566 18.7064C17.8252 18.7064 17.2354 18.4853 16.793 18.0429C16.3506 17.6005 16.1294 17.0352 16.1294 16.3506C16.1294 15.9854 16.1575 15.6554 16.2102 15.364C16.0732 15.5185 15.8204 15.8766 15.4553 16.4313L15.0024 16.0908H15.0059ZM19.4578 17.8041C20.153 17.8041 20.7042 17.5548 21.115 17.0493C21.5258 16.5472 21.7294 15.8801 21.7294 15.0515C21.7294 14.3318 21.5363 13.7665 21.1536 13.3592C20.7709 12.952 20.2618 12.7483 19.6334 12.7483C18.9663 12.7483 18.4361 12.9906 18.0394 13.4751C17.6426 13.9596 17.4425 14.6337 17.4425 15.5009C17.4425 17.0352 18.1131 17.8006 19.4543 17.8006L19.4578 17.8041ZM24.4013 16.175C23.671 17.2143 22.9828 17.9024 22.3333 18.236C21.6838 18.5695 21.0377 18.7732 20.3882 18.8469L20.2794 18.5309C21.7856 18.1938 23.0074 17.2985 23.9483 15.8485L24.4013 16.1785V16.175Z" fill="#2C221E"/>
<path d="M23.8922 15.9819C24.0642 15.7081 24.2397 15.4202 24.4118 15.1112C24.5838 14.8058 24.8366 14.3107 25.1666 13.6261C25.4967 12.9414 25.6582 12.5482 25.6582 12.4499V6.30219C25.6582 5.23485 26.0128 4.2904 26.7185 3.46883C27.4242 2.64726 28.2317 2.23648 29.134 2.23648C30.2014 2.23648 30.735 2.73504 30.735 3.72864C30.735 4.60639 30.4893 5.62457 29.9942 6.78319C29.4992 7.94181 28.5091 9.7008 27.0239 12.0532V17.776C27.4523 17.748 27.842 17.6216 28.1861 17.3933C28.5337 17.1651 29.0428 16.5612 29.7204 15.5852L30.1452 15.9258C29.0849 17.6777 28.0456 18.5555 27.0239 18.5555V23.2918C27.0239 24.3416 26.7325 25.1842 26.1532 25.8197C25.5739 26.4552 24.8542 26.7711 23.9975 26.7711C23.0952 26.7711 22.386 26.3779 21.8769 25.595L23.0004 24.4855L23.2181 24.6786C23.1619 24.8507 23.1373 24.9841 23.1373 25.0754C23.1373 25.4229 23.2461 25.7179 23.4673 25.9671C23.6885 26.2164 23.9694 26.3358 24.317 26.3358C25.2123 26.3358 25.6582 25.4264 25.6582 23.6113V18.559C25.2018 18.4853 24.7348 18.2816 24.2608 17.9446C24.3521 17.5513 24.5557 17.1581 24.8752 16.7684C25.1315 17.1792 25.3913 17.4355 25.6547 17.5338V13.9069C25.2895 14.7917 24.8331 15.6098 24.2854 16.3576L23.8886 15.989L23.8922 15.9819ZM27.0275 10.712C28.7513 7.94532 29.615 5.73341 29.615 4.07272C29.615 3.24062 29.3131 2.82632 28.7127 2.82632C28.2668 2.82632 27.8736 3.06156 27.5365 3.53203C27.1995 4.0025 27.031 4.62043 27.031 5.38933V10.7155L27.0275 10.712Z" fill="#2C221E"/>
<path d="M36.0928 16.1329C35.0606 17.7866 33.9722 18.6117 32.8206 18.6117C32.2729 18.6117 31.9288 18.4817 31.7954 18.2254C31.6585 17.9656 31.5918 17.5513 31.5918 16.9791V13.6858C30.9808 14.718 30.3805 15.6203 29.7976 16.3927L29.3377 16.0732C29.6783 15.5712 29.9662 15.1358 30.2049 14.7601C30.4437 14.388 30.7351 13.8964 31.0791 13.2925C31.4232 12.6886 31.5953 12.3481 31.5953 12.2744V6.67084L32.9645 5.32965V10.5259L35.0676 7.22909L35.6083 7.62934L32.9645 11.7934V16.0065C32.9645 16.649 32.9926 17.0738 33.0453 17.2915C33.098 17.5092 33.2489 17.6145 33.4982 17.6145C34.1197 17.6145 34.857 17.0036 35.7171 15.7783L36.0998 16.1329H36.0928Z" fill="#2C221E"/>
<path d="M49.5117 15.845C48.8376 16.8843 48.0582 17.6321 47.1769 18.085C46.2957 18.5379 45.1757 18.7626 43.8169 18.7626C41.6155 18.7626 39.853 18.0885 38.5259 16.7368C37.1987 15.3851 36.5352 13.6085 36.5352 11.4107C36.5352 9.55687 37.0091 7.74872 37.9536 5.98972C38.898 4.22721 40.1409 2.81229 41.6787 1.74495C43.2165 0.677618 44.7614 0.143951 46.3132 0.143951C47.4437 0.143951 48.3426 0.45994 49.0026 1.0884C49.6627 1.71687 49.9962 2.58056 49.9962 3.67599C49.9962 5.28401 49.4169 6.72351 48.2583 7.99448C47.0997 9.26897 45.8427 9.90445 44.4945 9.90445C43.8099 9.90445 43.2516 9.6938 42.8163 9.27599C42.3809 8.85468 42.1668 8.30696 42.1668 7.63285C42.1668 6.55499 42.7742 5.54383 43.989 4.59235L44.2768 4.93643C43.6203 5.36477 43.2903 6.04238 43.2903 6.96226C43.2903 7.52752 43.4834 7.99097 43.8731 8.3526C44.2593 8.71423 44.7508 8.89329 45.3442 8.89329C46.2641 8.89329 47.0856 8.49305 47.8019 7.69605C48.5181 6.89906 48.8762 5.93355 48.8762 4.7995C48.8762 3.66546 48.5392 2.82283 47.8616 2.15574C47.1874 1.48866 46.2957 1.15511 45.1897 1.15511C43.3464 1.15511 41.7103 2.01881 40.2884 3.7427C38.8629 5.46658 38.1537 7.54157 38.1537 9.96063C38.1537 12.1866 38.7892 14.0439 40.0637 15.5255C41.3382 17.0107 42.9462 17.7515 44.8913 17.7515C45.8568 17.7515 46.6643 17.5794 47.3068 17.2389C47.9493 16.8983 48.5357 16.319 49.0658 15.508L49.5187 15.852L49.5117 15.845Z" fill="#2C221E"/>
<path d="M58.9176 16.1751C57.8152 17.8006 56.7654 18.6117 55.7648 18.6117C55.4277 18.6117 55.1714 18.4993 54.9924 18.2746C54.8133 18.0499 54.7255 17.5654 54.7255 16.8176V15.666C53.7389 17.116 53.0473 17.9902 52.6435 18.2887C52.2433 18.5836 51.8641 18.7346 51.506 18.7346C51.1303 18.7346 50.8424 18.6082 50.6352 18.3519C50.4281 18.0956 50.3263 17.5022 50.3263 16.5718V14.3248C49.933 15.2025 49.5328 15.8942 49.122 16.4068L48.6691 16.0908C49.4801 14.9216 50.0349 13.7455 50.3263 12.5588L51.6956 11.8601V16.8176C51.6956 17.1722 51.7166 17.4144 51.7588 17.5373C51.8009 17.6602 51.9097 17.7234 52.0958 17.7234C52.2959 17.7234 52.5593 17.5689 52.8823 17.2564C53.2053 16.9475 53.595 16.4489 54.0479 15.7643C54.5008 15.0796 54.7255 14.704 54.7255 14.6408V12.5588L56.1088 11.8601V16.147C56.1088 16.7122 56.1299 17.0984 56.1685 17.3056C56.2107 17.5092 56.3265 17.6146 56.5161 17.6146C56.962 17.6146 57.6221 17.0177 58.5033 15.8205L58.9141 16.1751H58.9176Z" fill="#2C221E"/>
<path d="M65.6411 16.1751C64.6089 17.8006 63.5732 18.6117 62.5339 18.6117C61.4947 18.6117 60.9329 18.0043 60.9329 16.7895C60.9329 15.8029 61.4034 14.732 62.3443 13.5734C62.1793 13.6085 61.8879 13.6296 61.4666 13.6296C61.1927 13.6296 60.9048 13.5734 60.6029 13.4646C60.1359 14.4793 59.5215 15.4694 58.7561 16.4349L58.3313 16.0943C59.188 14.8514 59.9393 13.4435 60.5783 11.8636C61.4561 12.2744 62.1442 12.478 62.6463 12.478C63.1203 12.478 63.531 12.2919 63.8786 11.9162L64.1104 12.0813C63.5486 12.7764 63.0992 13.4751 62.7586 14.1843C62.4181 14.8936 62.2495 15.6695 62.2495 16.5191C62.2495 16.7825 62.3373 17.0317 62.5094 17.2635C62.6849 17.4952 62.8745 17.611 63.0887 17.611C63.4363 17.611 63.7733 17.4706 64.0928 17.1862C64.4123 16.9053 64.795 16.4559 65.2339 15.845L65.6447 16.1751H65.6411Z" fill="#2C221E"/>
<path d="M72.3787 16.1751C71.3465 17.8006 70.3107 18.6117 69.2715 18.6117C68.2322 18.6117 67.6705 18.0043 67.6705 16.7895C67.6705 15.8029 68.1409 14.732 69.0819 13.5734C68.9169 13.6085 68.6255 13.6296 68.2041 13.6296C67.9303 13.6296 67.6424 13.5734 67.3404 13.4646C66.8735 14.4793 66.2591 15.4694 65.4937 16.4349L65.0688 16.0943C65.9255 14.8514 66.6769 13.4435 67.3159 11.8636C68.1936 12.2744 68.8818 12.478 69.3838 12.478C69.8578 12.478 70.2686 12.2919 70.6162 11.9162L70.8479 12.0813C70.2861 12.7764 69.8367 13.4751 69.4962 14.1843C69.1556 14.8936 68.9871 15.6695 68.9871 16.5191C68.9871 16.7825 69.0749 17.0317 69.2469 17.2635C69.4225 17.4952 69.612 17.611 69.8262 17.611C70.1738 17.611 70.5109 17.4706 70.8304 17.1862C71.1499 16.9053 71.5325 16.4559 71.9714 15.845L72.3822 16.1751H72.3787Z" fill="#2C221E"/>
<path d="M79.7026 16.175C79.1654 17.0528 78.5756 17.6883 77.9366 18.085C77.2976 18.4817 76.4584 18.6819 75.4157 18.6819C74.6573 18.6819 74.0569 18.4572 73.6145 18.0043C73.1722 17.5513 72.951 16.9158 72.951 16.0943C72.951 15.8766 72.9685 15.6414 73.0072 15.3956C72.6771 15.8169 72.4278 16.154 72.2523 16.4103L71.7994 16.0943C72.9861 14.416 73.8989 13.3136 74.5379 12.7869C75.1769 12.2638 75.8335 12.0005 76.5111 12.0005C76.8868 12.0005 77.1922 12.1093 77.4345 12.3305C77.6767 12.5482 77.7961 12.8326 77.7961 13.1802C77.7961 14.3669 76.7498 15.536 74.6608 16.6841C74.9452 17.3407 75.5315 17.6707 76.4268 17.6707C76.8552 17.6707 77.3327 17.5162 77.8593 17.2037C78.386 16.8948 78.8599 16.4419 79.2918 15.8485L79.7026 16.1785V16.175ZM74.4045 16.1469C75.9213 15.4061 76.6761 14.5846 76.6761 13.6822C76.6761 13.4084 76.6024 13.1837 76.4514 13.0116C76.3004 12.8396 76.0968 12.7518 75.8405 12.7518C75.3735 12.7518 74.9838 12.966 74.6643 13.3943C74.3448 13.8227 74.1833 14.3388 74.1833 14.9427C74.1833 15.2727 74.2184 15.5501 74.2922 15.7783C74.3659 15.996 74.401 16.1224 74.401 16.1469H74.4045Z" fill="#2C221E"/>
<path d="M89.0417 16.1751C87.9358 17.8006 86.8825 18.6117 85.8784 18.6117C85.5483 18.6117 85.299 18.5028 85.127 18.2887C84.955 18.0745 84.8672 17.583 84.8672 16.8176V13.6823C84.8672 13.1977 84.7162 12.9555 84.4143 12.9555C84.2668 12.9555 84.1158 13.0117 83.9543 13.1205C83.7928 13.2293 83.6243 13.3908 83.4417 13.605C83.2592 13.8192 83.0029 14.1773 82.6693 14.6724C82.3358 15.1709 82.1708 15.4448 82.1708 15.5009V17.9657L80.8015 18.8434V14.244C80.5171 14.9638 80.0888 15.6941 79.513 16.4349L79.0881 16.0943C80.0115 14.7988 80.5908 13.6296 80.8261 12.5903L82.1673 11.9478V14.4933C82.8343 13.5278 83.3715 12.8782 83.7823 12.5482C84.1931 12.2182 84.6074 12.0567 85.0287 12.0567C85.4114 12.0567 85.7098 12.1936 85.9205 12.4675C86.1311 12.7413 86.2365 13.4154 86.2365 14.4933V16.3295C86.2365 16.8211 86.2575 17.1616 86.2997 17.3442C86.3418 17.5268 86.4542 17.6181 86.6367 17.6181C87.0826 17.6181 87.7462 17.0212 88.6239 15.824L89.0488 16.1786L89.0417 16.1751Z" fill="#2C221E"/>
<path d="M95.1474 16.1329C94.1151 17.7866 93.0267 18.6117 91.8751 18.6117C91.3274 18.6117 90.9833 18.4817 90.8499 18.2254C90.713 17.9656 90.6463 17.5513 90.6463 16.9791V13.6858C90.0354 14.718 89.435 15.6203 88.8522 16.3927L88.3922 16.0732C88.7328 15.5712 89.0207 15.1358 89.2595 14.7601C89.4982 14.388 89.7896 13.8964 90.1337 13.2925C90.4778 12.6886 90.6498 12.3481 90.6498 12.2744V6.67084L92.0191 5.32965V10.5259L94.1221 7.22909L94.6628 7.62934L92.0191 11.7934V16.0065C92.0191 16.649 92.0472 17.0738 92.0998 17.2915C92.1525 17.5092 92.3035 17.6145 92.5527 17.6145C93.1742 17.6145 93.9115 17.0036 94.7717 15.7783L95.1544 16.1329H95.1474Z" fill="#2C221E"/>
<path d="M108.759 0.249279C108.44 0.779435 107.927 1.22884 107.225 1.59749C106.523 1.96615 105.845 2.15222 105.199 2.15222C104.553 2.15222 103.661 1.96614 102.503 1.59047C101.351 1.2148 100.607 1.02871 100.27 1.02871C99.6414 1.02871 99.1007 1.27097 98.6478 1.75548C98.1949 2.24 97.9702 2.82282 97.9702 3.50746C97.9702 4.1921 98.1773 4.71875 98.5916 5.14357C99.0059 5.5684 99.522 5.90194 100.14 6.1442C100.754 6.38645 101.716 6.6884 103.022 7.05354C104.329 7.40815 105.378 7.75925 106.172 8.09981C106.965 8.44038 107.639 8.95298 108.191 9.6341C108.742 10.3152 109.019 11.207 109.019 12.3095C109.019 13.9631 108.342 15.4307 106.986 16.7192C105.631 18.0078 103.953 18.6503 101.955 18.6503C100.129 18.6503 98.6162 18.1693 97.4154 17.2108C96.2147 16.2523 95.6143 15.1112 95.6143 13.7876C95.6143 12.8115 95.9654 11.997 96.6676 11.344C97.3698 10.6909 98.2791 10.3644 99.3921 10.3644C100.561 10.3644 101.548 10.6874 102.355 11.3299C103.163 11.9724 103.567 12.7378 103.567 13.6226C103.567 14.2265 103.36 14.7215 102.942 15.1077C102.527 15.4974 102.025 15.6905 101.443 15.6905C100.473 15.6905 99.7537 15.2446 99.2797 14.3493L99.6203 14.1562C99.9679 14.5108 100.351 14.6899 100.772 14.6899C101.218 14.6899 101.59 14.5319 101.888 14.2194C102.183 13.9034 102.334 13.5102 102.334 13.0362C102.334 12.4429 102.085 11.9478 101.59 11.5511C101.095 11.1544 100.491 10.9542 99.7888 10.9542C98.9673 10.9542 98.2861 11.2562 97.7419 11.8566C97.1977 12.4569 96.9274 13.1802 96.9274 14.0193C96.9274 15.1253 97.4119 16.0732 98.3845 16.8667C99.357 17.6602 100.582 18.0569 102.06 18.0569C103.64 18.0569 104.953 17.5619 106.003 16.5718C107.053 15.5817 107.576 14.4196 107.576 13.0854C107.576 12.1725 107.33 11.4317 106.846 10.8665C106.358 10.3012 105.775 9.87636 105.094 9.59197C104.413 9.30759 103.468 8.99511 102.254 8.65104C101.039 8.30696 100.091 7.99097 99.4097 7.71009C98.7285 7.42922 98.1598 7.01843 97.6963 6.47774C97.2364 5.94057 97.0046 5.23486 97.0046 4.36765C97.0046 3.18094 97.4751 2.16276 98.416 1.30608C99.357 0.452916 100.445 0.0245767 101.688 0.0245767C102.264 0.0245767 103.086 0.175549 104.153 0.477492C105.231 0.768903 106.007 0.916364 106.481 0.916364C107.257 0.916364 107.931 0.610909 108.507 0L108.752 0.245767L108.759 0.249279Z" fill="#2C221E"/>
<path d="M121.192 16.175C120.079 17.8006 119.001 18.6116 117.962 18.6116C117.653 18.6116 117.417 18.4958 117.256 18.2676C117.094 18.0394 117.017 17.5548 117.017 16.8175V13.8192C117.017 13.2995 116.814 13.0397 116.403 13.0397C116.083 13.0397 115.739 13.1977 115.378 13.5137C115.012 13.8297 114.686 14.258 114.398 14.8022C114.11 15.3464 113.966 15.7046 113.966 15.8766V17.9726L112.583 18.8504V14.0298C112.109 14.9602 111.607 15.7642 111.077 16.4384L110.652 16.0978C110.88 15.7607 111.091 15.4377 111.28 15.1253C111.473 14.8163 111.737 14.3283 112.074 13.6612C112.411 12.9941 112.579 12.5938 112.579 12.4569V6.54093C112.579 5.24538 112.899 4.18155 113.538 3.34945C114.177 2.51735 114.925 2.10306 115.785 2.10306C116.807 2.10306 117.319 2.72801 117.319 3.97792C117.319 5.61052 116.199 8.21215 113.966 11.7828V14.3564C114.623 13.4891 115.184 12.8853 115.651 12.5412C116.118 12.1971 116.61 12.0286 117.13 12.0286C117.969 12.0286 118.39 12.6254 118.39 13.8227V16.5753C118.39 17.2705 118.523 17.6145 118.787 17.6145C119.261 17.6145 119.924 17.0177 120.77 15.8204L121.195 16.175H121.192ZM113.963 10.5996C114.868 8.97052 115.497 7.68199 115.841 6.7235C116.185 5.76851 116.357 4.89779 116.357 4.11133C116.357 3.65491 116.266 3.27572 116.083 2.9808C115.901 2.68237 115.665 2.53491 115.374 2.53491C114.939 2.53491 114.595 2.8193 114.338 3.38457C114.086 3.95334 113.959 4.73278 113.959 5.72989V10.5996H113.963Z" fill="#2C221E"/>
<path d="M120.549 16.0908C121.736 14.395 122.708 13.3031 123.467 12.808C124.225 12.313 125.019 12.0672 125.851 12.0672C126.683 12.0672 127.269 12.2779 127.719 12.6992C128.168 13.1205 128.396 13.7068 128.396 14.4547C128.396 15.5255 127.968 16.5016 127.108 17.3828C126.251 18.2641 125.25 18.7064 124.109 18.7064C123.369 18.7064 122.779 18.4853 122.336 18.0429C121.894 17.6005 121.673 17.0352 121.673 16.3506C121.673 15.9854 121.701 15.6554 121.753 15.364C121.617 15.5185 121.364 15.8766 120.999 16.4313L120.546 16.0908H120.549ZM124.998 17.8041C125.693 17.8041 126.244 17.5548 126.655 17.0493C127.066 16.5472 127.269 15.8801 127.269 15.0515C127.269 14.3318 127.076 13.7665 126.693 13.3592C126.311 12.952 125.802 12.7483 125.173 12.7483C124.506 12.7483 123.976 12.9906 123.579 13.4751C123.182 13.9596 122.982 14.6337 122.982 15.5009C122.982 17.0352 123.653 17.8006 124.994 17.8006L124.998 17.8041ZM129.941 16.175C129.211 17.2143 128.523 17.9024 127.873 18.236C127.224 18.5695 126.578 18.7732 125.928 18.8469L125.819 18.5309C127.325 18.1938 128.547 17.2985 129.488 15.8485L129.941 16.1785V16.175Z" fill="#2C221E"/>
<path d="M132.487 13.4084C133.417 12.4675 134.326 11.997 135.211 11.997C135.913 11.997 136.471 12.2428 136.889 12.7378C137.304 13.2293 137.511 13.8824 137.511 14.6969C137.511 15.7362 137.17 16.6455 136.489 17.4214C135.808 18.1974 135.036 18.5871 134.168 18.5871C133.54 18.5871 132.978 18.401 132.483 18.0253V23.2953C132.483 24.3802 132.181 25.2334 131.581 25.8478C130.98 26.4622 130.243 26.7712 129.376 26.7712C128.463 26.7712 127.75 26.3779 127.241 25.595L128.365 24.4855L128.596 24.6786C128.533 24.8436 128.502 24.9735 128.502 25.0754C128.502 25.4124 128.614 25.7073 128.839 25.9601C129.063 26.2094 129.344 26.3358 129.681 26.3358C130.584 26.3358 131.037 25.4265 131.037 23.6113V14.2721C130.706 15.0305 130.278 15.7502 129.748 16.4349L129.351 16.0943C130.099 15.0726 130.661 13.914 131.037 12.6149L132.487 11.8882V13.4084ZM132.487 17.3231C132.954 17.769 133.505 17.9937 134.144 17.9937C134.737 17.9937 135.243 17.7374 135.657 17.2283C136.071 16.7157 136.278 16.0767 136.278 15.3114C136.278 14.6548 136.099 14.1282 135.738 13.7384C135.376 13.3452 134.92 13.1486 134.361 13.1486C133.642 13.1486 133.017 13.5313 132.487 14.3002V17.3267V17.3231ZM139.582 16.1751C138.578 17.762 137.244 18.6538 135.583 18.8469L135.46 18.5309C136.931 18.2009 138.167 17.3091 139.171 15.8485L139.582 16.1786V16.1751Z" fill="#2C221E"/>
</svg>
