<svg width="147" height="120" viewBox="0 0 147 120" fill="none" xmlns="http://www.w3.org/2000/svg">
<g filter="url(#filter0_d_18_672)">
<rect x="13.1" y="42" width="116" height="37" rx="12" fill="#946D4E" shape-rendering="crispEdges"/>
<path d="M46.036 65V56.54H47.56V60.14H49L48.688 60.344L51.184 56.54H52.888L50.104 60.632L49.516 60.2C50.06 60.28 50.512 60.468 50.872 60.764C51.24 61.052 51.56 61.46 51.832 61.988L53.332 65H51.664L50.5 62.564C50.3 62.14 50.06 61.84 49.78 61.664C49.508 61.488 49.16 61.4 48.736 61.4H47.56V65H46.036ZM55.6171 65L57.1051 62.18L57.1291 62.66L53.2171 56.54H54.8731L57.8851 61.316H57.5851L60.0931 56.54H61.6891L57.2251 65H55.6171ZM62.4657 65V56.54H69.8697V65H68.3337V57.8H63.9897V65H62.4657ZM71.7352 65V56.54H73.1632V62.924H72.8752L77.7712 56.54H78.9352V65H77.4952V58.616H77.7832L72.8752 65H71.7352ZM82.7858 65V57.812H79.9898V56.54H87.1298V57.812H84.3338V65H82.7858ZM88.2235 65V56.54H89.6515V62.924H89.3635L94.2595 56.54H95.4235V65H93.9835V58.616H94.2715L89.3635 65H88.2235Z" fill="white"/>
</g>
<defs>
<filter id="filter0_d_18_672" x="-2.47955e-05" y="28.9" width="146.2" height="67.2" filterUnits="userSpaceOnUse" color-interpolation-filters="sRGB">
<feFlood flood-opacity="0" result="BackgroundImageFix"/>
<feColorMatrix in="SourceAlpha" type="matrix" values="0 0 0 0 0 0 0 0 0 0 0 0 0 0 0 0 0 0 127 0" result="hardAlpha"/>
<feOffset dx="2" dy="2"/>
<feGaussianBlur stdDeviation="7.55"/>
<feComposite in2="hardAlpha" operator="out"/>
<feColorMatrix type="matrix" values="0 0 0 0 0.580392 0 0 0 0 0.427451 0 0 0 0 0.305882 0 0 0 1 0"/>
<feBlend mode="normal" in2="BackgroundImageFix" result="effect1_dropShadow_18_672"/>
<feBlend mode="normal" in="SourceGraphic" in2="effect1_dropShadow_18_672" result="shape"/>
</filter>
</defs>
</svg>
