<svg width="120" height="120" viewBox="0 0 120 120" fill="none" xmlns="http://www.w3.org/2000/svg">
<path d="M30.675 44.2126C28.05 45.3376 25.875 49.0313 24.9375 51.9563C24 54.8813 24.3 59.9813 24.9375 60.8063C25.575 61.6313 27.3375 60.6188 27.225 59.7376C26.8899 57.4236 26.966 55.0687 27.45 52.7813C27.6297 51.369 28.1504 50.0216 28.967 48.8555C29.7837 47.6893 30.8718 46.7393 32.1375 46.0876C33.5438 45.0001 31.1625 44.0063 30.675 44.2126ZM105.675 60.3188C106.069 55.4626 106.931 44.6813 97.5563 36.6376C88.1813 28.5938 77.475 30.2438 68.25 33.2063C59.025 36.1688 57.3188 39.6188 57.3188 39.6188C57.3188 39.6188 56.2313 38.5126 53.8125 36.2438C52.054 34.6816 49.9988 33.4896 47.7696 32.739C45.5404 31.9884 43.1828 31.6946 40.8375 31.8751C34.5938 32.1938 25.9875 35.8688 22.0875 41.2501C18.1875 46.6313 16.3875 56.7188 16.875 62.5876C17.3625 68.4563 20.625 77.5876 26.7188 86.5688C32.8125 95.5501 41.25 101.25 49.275 106.481C57.3 111.713 64.65 113.1 65.0625 112.819C79.275 102.9 84.825 96.8813 94.125 85.3126C103.425 73.7438 105.206 65.1563 105.6 60.3188H105.675ZM92.7938 79.4626C92.0063 79.9313 89.0438 72.1126 88.1813 71.4938C87.3188 70.8751 86.625 72.1126 86.5313 72.8063C87.8656 75.7581 89.466 78.5823 91.3125 81.2438C92.25 82.5751 89.1938 84.9938 88.575 85.3876C87.9563 85.7813 84.6563 77.4188 84.1125 76.8751C83.5688 76.3313 81.9375 77.1001 81.8438 77.5688C81.75 78.0376 87.1688 85.3126 87.5625 86.2501C87.9563 87.1876 84.5813 89.8501 84.1875 89.8501C83.7938 89.8501 79.8938 81.6376 79.35 81.5626C78.8063 81.4876 78.8063 81.4126 78.1875 82.1813C77.5688 82.9501 82.7063 90.0001 83.25 90.7876C83.7938 91.5751 80.3625 94.6876 79.8938 95.1563C79.425 95.6251 75.375 87.0376 75.375 87.0376C75.375 87.0376 73.3313 87.8813 73.4063 88.4438C73.4813 89.0063 78.3375 95.3813 78.6563 96.0938C78.975 96.8063 76.5375 98.5876 76.0688 98.8313C75.6 99.0751 71.5313 90.3938 71.2313 90.2251C70.9313 90.0563 69.9 90.7876 69.5813 91.4063C69.2625 92.0251 74.7375 99.9188 74.7375 100.163C73.894 101.072 72.9505 101.883 71.925 102.581C71.1563 103.125 67.7813 95.0813 67.1625 94.9126C66.5438 94.7438 65.625 95.6251 65.625 96.0938C65.625 96.5626 70.3125 103.05 70.3125 103.594C70.3125 104.138 67.5 105.938 67.1813 105.938C66.8625 105.938 62.9625 98.4376 62.6438 98.4376C62.3379 98.538 62.0555 98.6995 61.8138 98.9122C61.5721 99.1249 61.3761 99.3844 61.2375 99.6751C61.0125 100.313 66.0938 106.8 66.2438 107.175C66.3938 107.55 64.3688 108.356 64.1438 108.506C63.9188 108.656 59.1375 100.706 58.8938 100.706C58.3451 101.068 57.9148 101.583 57.6563 102.188C57.6563 102.488 63.0375 109.05 63.0375 109.05C58.3108 106.938 53.7427 104.488 49.3688 101.719C42.4125 97.2563 38.8313 93.6751 30.6188 83.9813C22.4063 74.2876 21.7875 65.6251 21.5625 57.7313C21.3375 49.8376 24.225 44.0626 29.0625 40.6876C31.2831 38.852 33.8928 37.5468 36.6934 36.871C39.4939 36.1952 42.4117 36.1667 45.225 36.7876C52.9688 37.9688 55.8563 45.0751 56.25 45.6938C56.6438 46.3126 58.125 45.8438 59.1375 45.5438C60.15 45.2438 60.8625 42.0188 61.95 41.2501C65.611 38.7118 69.6744 36.81 73.9688 35.6251C77.6105 34.4355 81.488 34.1554 85.2629 34.8091C89.0377 35.4627 92.5953 37.0303 95.625 39.3751C97.572 41.0878 99.1398 43.1883 100.228 45.5421C101.316 47.8959 101.9 50.451 101.944 53.0438C101.944 53.7563 98.0438 48.2813 97.65 48.2813C97.2563 48.2813 97.1063 49.2188 97.0313 49.7626C96.9563 50.3063 101.944 56.1751 102.188 56.6438C102.285 58.9699 102.153 61.2999 101.794 63.6001C101.55 63.9001 96.1688 54.2251 96 54.2251C95.8313 54.2251 94.6875 55.3126 94.6875 55.7063C94.6875 56.1001 100.931 65.0813 101.156 65.3063C100.864 66.7067 100.254 68.0215 99.375 69.1501C98.9813 69.3001 94.8375 60.6188 94.6875 60.3188C94.5375 60.0188 93.2063 60.9376 92.8125 61.8001C92.4188 62.6626 98.4375 70.6313 98.4375 70.8563C97.798 72.2268 97.0388 73.5381 96.1688 74.7751C95.775 75.1501 91.725 66.7126 91.2563 66.6376C90.7875 66.5626 89.925 67.8938 89.925 68.1188C89.925 68.3438 95.1563 76.4813 95.1563 76.7251C94.5215 77.759 93.7237 78.6834 92.7938 79.4626ZM94.2563 45.7126C94.4813 45.8251 95.4188 44.8876 95.6063 44.3063C95.7938 43.7251 94.725 42.2438 91.2563 39.4876C89.1704 37.7148 86.491 36.7971 83.7563 36.9188C83.1188 37.2001 82.4813 38.2688 83.175 38.6813C83.8688 39.0938 85.4625 39.6188 88.3875 40.7813C90.6513 42.0357 92.6456 43.7241 94.2563 45.7501V45.7126ZM61.0875 26.4563C63.4313 26.7001 65.3625 25.5188 69 22.7063C72.6375 19.8938 75 16.2188 75 14.2126C75 12.2063 73.7063 7.8938 69.8438 7.23755C68.7301 7.04561 67.5858 7.1412 66.5194 7.51526C65.453 7.88932 64.4998 8.52947 63.75 9.37505C63.467 9.06829 63.1528 8.7918 62.8125 8.55005C61.4356 7.79338 59.9155 7.33351 58.35 7.20005C56.9922 7.278 55.6827 7.73115 54.5671 8.50906C53.4516 9.28698 52.5737 10.3592 52.0313 11.6063C51.0375 14.3063 51.15 16.2938 53.9063 20.9813C54.6601 22.3405 55.6875 23.5286 56.9234 24.471C58.1594 25.4133 59.5772 26.0893 61.0875 26.4563ZM54.9938 10.8751C56.5125 9.00005 57.9188 9.30005 59.85 9.7688C61.7813 10.2376 61.9688 12.8063 63.1312 13.1251C64.2938 13.4438 63.675 13.4251 65.3063 11.7751C66.9375 10.1251 67.8188 9.78755 69.1688 9.78755C70.5188 9.78755 71.8688 11.4188 72.2813 12.6563C72.4161 13.2321 72.4341 13.8291 72.3343 14.412C72.2344 14.9949 72.0188 15.5519 71.7 16.0501C71.3438 16.3501 70.7063 13.7063 70.2938 13.6501C69.8813 13.5938 69.1125 14.3626 69.0563 15.0001C69 15.6376 70.8188 17.1751 70.8188 17.1751C70.2625 18.2007 69.5961 19.1626 68.8313 20.0438C68.0625 20.6813 66.825 16.0501 66.5438 15.6938C66.2625 15.3376 65.7188 15.8813 65.25 16.2938C64.7812 16.7063 67.125 20.3813 67.35 21.0376C67.575 21.6938 65.775 21.9751 65.1375 22.1438C64.5 22.3126 63.075 18.1688 62.9062 17.8688C62.7375 17.5688 61.725 18.5063 61.4438 18.9188C61.1625 19.3313 63.3188 22.6688 63.4875 23.1376C63.6563 23.6063 62.4938 23.7376 62.2688 23.7376C61.354 22.0185 60.528 20.2536 59.7938 18.4501C59.5688 17.9813 58.6313 18.3376 58.275 19.1063C57.9188 19.8751 60.5625 24.0001 60.5625 24.0001C59.325 24.0001 57.5813 22.5938 55.1625 18.9001C52.7438 15.2063 53.475 12.6938 54.9938 10.8751ZM26.8688 27.9376C28.7629 25.1247 29.7986 21.822 29.85 18.4313C30.0007 17.6403 29.9577 16.8247 29.7245 16.054C29.4914 15.2832 29.0752 14.5804 28.5114 14.0056C27.9476 13.4307 27.253 13.0009 26.487 12.7529C25.7209 12.5049 24.9062 12.446 24.1125 12.5813C23.1021 12.6587 22.1289 12.9964 21.2877 13.5616C20.4465 14.1267 19.7661 14.9001 19.3125 15.8063C18.9029 15.3516 18.3934 14.998 17.824 14.7735C17.2547 14.549 16.641 14.4597 16.0313 14.5126C14.6428 14.5274 13.2982 15.0005 12.2063 15.8584C11.1145 16.7162 10.3367 17.9108 9.99375 19.2563C8.5875 23.0063 10.9875 25.4063 13.7438 27.9376C16.2806 29.8794 19.2221 31.2252 22.35 31.8751C23.475 31.8751 24.7688 30.7501 26.8125 27.9376H26.8688ZM15.5625 26.2501C12.8063 24.0188 11.8125 22.0313 12.3938 19.8563C12.6471 19.0453 13.1128 18.3169 13.7425 17.7465C14.3722 17.1762 15.143 16.7846 15.975 16.6126C16.9125 16.5001 19.0688 19.2001 19.95 19.2001C20.8313 19.2001 21.3 16.2188 22.65 15.4501C23.2301 15.086 23.9161 14.9287 24.5968 15.0035C25.2775 15.0784 25.913 15.3811 26.4 15.8626C27.2813 16.8001 27.6938 17.7376 27.225 21.0751C27.0216 23.1626 26.1616 25.1319 24.7688 26.7001C23.6233 25.2514 22.5831 23.7225 21.6563 22.1251C21.3563 21.7688 20.7188 22.2938 20.475 23.0063C20.2313 23.7188 23.5875 27.6938 23.6438 28.1063C23.7 28.5188 23.1188 28.9313 22.7063 29.1001C22.2938 29.2688 19.6688 24.8251 19.2563 24.3751C19.1167 24.242 18.9457 24.1464 18.7592 24.0972C18.5727 24.0479 18.3768 24.0466 18.1897 24.0934C18.0026 24.1402 17.8304 24.2335 17.6891 24.3647C17.5477 24.4959 17.4418 24.6607 17.3813 24.8438C16.9688 25.7813 20.775 29.5313 20.775 29.5313C19.4813 30.0001 18.3188 28.4626 15.5625 26.2501ZM26.0438 22.8563C26.4 22.4438 23.7563 20.1001 23.3625 20.3251C22.35 20.9251 24.5813 23.8501 24.825 24.0751C25.0688 24.3001 25.7063 23.2501 26.0438 22.8376V22.8563ZM110.081 102.225C109.97 101.784 109.772 101.37 109.499 101.006C109.225 100.643 108.882 100.338 108.489 100.109C108.096 99.88 107.661 99.732 107.21 99.6736C106.759 99.6152 106.301 99.6476 105.863 99.7688C105.863 99.7688 104.513 96.3001 102.806 95.6626C101.777 95.3678 100.688 95.3477 99.6489 95.6042C98.6094 95.8608 97.6552 96.3852 96.8813 97.1251C94.9792 99.1751 93.8634 101.832 93.7313 104.625C93.7618 106.999 94.4079 109.325 95.6063 111.375C97.2185 111.554 98.8406 111.63 100.463 111.6C103.176 111.424 105.816 110.642 108.188 109.313C110.25 107.906 110.888 105.506 110.081 102.225ZM107.269 107.081C107.025 107.269 106.725 104.269 106.725 103.988C106.725 103.706 105.206 103.575 104.85 103.875C104.701 105.336 104.861 106.811 105.319 108.206C105.675 109.144 104.325 108.375 103.988 108.375C103.65 108.375 103.744 105.338 103.575 104.4C103.406 103.463 101.569 103.988 101.288 104.4C101.411 105.928 101.706 107.438 102.169 108.9C102.169 109.256 101.4 109.256 100.819 109.256C100.238 109.256 100.35 106.144 100.163 105.263C100.086 105.042 99.953 104.846 99.7774 104.692C99.6019 104.538 99.3895 104.432 99.161 104.385C98.9325 104.338 98.6956 104.351 98.4735 104.422C98.2514 104.494 98.0516 104.622 97.8938 104.794C97.0688 105.619 98.1188 109.369 98.1188 109.369C97.6975 109.5 97.2463 109.5 96.825 109.369C96.3563 109.144 96.075 107.963 95.9438 107.025C95.7428 104.733 96.0899 102.426 96.9563 100.294C98.1188 97.7063 100.988 96.6563 102.581 98.2313C104.175 99.8063 103.463 102.113 103.65 102.394C103.838 102.675 104.813 102.281 106.05 102.281C107.288 102.281 107.738 102.638 108.094 103.631C108.185 104.839 107.897 106.045 107.269 107.081Z" fill="#946D4E"/>
</svg>
