<svg width="120" height="120" viewBox="0 0 120 120" fill="none" xmlns="http://www.w3.org/2000/svg">
<path d="M107.906 7.64999C107.325 6.95624 90.8626 6.89999 84.9938 6.95624C79.1251 7.01249 79.2001 6.59999 75.2626 6.65624C71.3251 6.71249 65.3626 6.48749 61.1438 6.48749C56.9251 6.48749 51.2438 5.36249 39.9938 5.77499C28.7438 6.18749 16.6688 7.49999 15.0938 7.70624C14.2694 7.87583 13.5091 8.2732 12.8993 8.85322C12.2894 9.43324 11.8545 10.1727 11.6438 10.9875C11.6438 12.3375 12.4688 31.7625 12.5813 32.025C12.8063 32.6062 21.825 33.6187 22.8938 33.0187C23.9625 32.4187 23.4188 27.1125 24.6375 25.1812C25.8563 23.25 29.6813 22.425 34.0125 22.0687C38.3438 21.7125 46.2 20.8875 50.1375 23.3625C54.075 25.8375 55.4625 30.8625 55.4625 35.1937C55.4625 39.525 55.4625 53.475 55.4625 64.425C55.4625 75.375 54.8251 89.7937 54.6376 94.8375C54.4501 99.8812 52.2938 102.337 50.0251 103.331C47.7563 104.325 39.1688 105.562 38.3625 106.088C37.5563 106.612 38.0625 109.556 38.0063 111.187C37.9501 112.819 38.0063 113.887 39.8813 114.169C41.7563 114.45 51.0188 114.169 63.1501 114.3C75.2813 114.431 82.5001 114 83.4188 113.531C84.3376 113.062 84.0001 108.431 83.9438 106.387C83.8876 104.344 83.0063 104.044 81.8251 103.519C79.1309 102.771 76.4879 101.851 73.9125 100.762C71.6438 99.4688 70.9875 97.65 70.1625 94.1437C69.3375 90.6375 69.375 76.5 69.375 66.1875C69.375 55.875 69.4875 33.7875 70.0688 30.5625C70.65 27.3375 73.2938 22.5937 82.4438 20.25C91.5938 17.9062 95.5688 23.175 96.8438 25.9875C98.1188 28.8 97.6688 32.2687 98.3813 32.7937C99.0938 33.3187 102 32.55 102.938 32.4375C103.875 32.325 105.338 33.5437 106.819 32.4375C108.3 31.3312 108.281 24.9375 108.338 18.075C108.394 11.2125 108.488 8.36249 107.906 7.64999ZM76.9688 106.088C77.8646 106.944 78.6517 107.908 79.3125 108.956C79.3125 109.2 79.6126 111.487 79.2001 111.544C78.7876 111.6 78.0188 111.956 77.7375 111.656C76.446 109.744 75.287 107.746 74.2688 105.675C75.1828 105.696 76.0903 105.834 76.9688 106.088ZM104.156 27.75C104.156 28.7437 103.988 29.0437 103.8 29.0437C103.613 29.0437 101.813 28.9312 101.813 28.6312C101.813 28.3312 100.931 19.3687 94.7251 17.4937C88.6809 15.7331 82.2025 16.233 76.5 18.9C71.7563 21.3562 68.1188 24.1125 66.8813 27.525C65.6438 30.9375 65.3626 52.1812 65.3626 58.8C65.3626 65.4187 65.55 80.0812 65.8876 87.8063C66.225 95.5312 67.2375 100.931 69.3 102.45C70.4334 103.373 71.6232 104.225 72.8626 105C72.8626 105 71.8688 106.35 72.2813 106.987C73.435 108.548 74.4752 110.19 75.3938 111.9C75.0938 111.9 73.1625 112.256 72.9188 111.9C72.675 111.544 69.9375 105.731 69.375 105.619C68.8125 105.506 67.5001 106.612 67.7813 107.081C68.8788 108.711 69.8624 110.415 70.7251 112.181L68.6063 112.294C67.5296 109.789 66.2765 107.364 64.8563 105.037C64.3876 105.037 63.3376 105.806 63.5626 106.444C63.7876 107.081 67.1438 112.069 66.5063 112.181C65.7886 112.31 65.0605 112.373 64.3313 112.369C64.0876 112.237 60.8813 106.856 60.8813 106.856C60.8813 106.856 59.0063 107.606 59.2313 108.075C59.4563 108.544 61.6875 112.125 61.4625 112.125C61.2375 112.125 59.5875 112.369 59.5875 112.369C59.5875 112.369 57.0563 108.619 56.5313 108.731C56.0063 108.844 54.7688 109.369 55.1813 110.025C55.5938 110.681 57.0563 112.425 56.6438 112.425H43.8188C43.1813 112.425 42.3 112.781 42.3 112.312C42.3 111.844 41.5875 107.737 42.4688 107.494C43.35 107.25 49.9688 106.387 52.2001 105.206C53.5654 104.298 54.7102 103.096 55.5506 101.688C56.3909 100.28 56.9054 98.7015 57.0563 97.0687C57.3001 93.6187 58.2376 76.0312 57.9938 65.8312C57.75 55.6312 58.125 42.5812 57.7125 35.3625C57.3 28.1437 55.6313 22.95 50.3626 20.625C45.0938 18.3 35.9438 19.5 31.3875 20.2687C26.8313 21.0375 23.1188 21.5062 22.0125 25.0125C20.9063 28.5187 21.3563 30.9937 21.0188 30.9937C19.4014 30.7965 17.8067 30.4449 16.2563 29.9437C16.0688 29.5312 15 10.65 15.45 10.2937C22.572 9.18417 29.7532 8.49547 36.9563 8.23124C43.5894 7.88913 50.2357 7.88913 56.8688 8.23124C59.77 8.62289 62.6999 8.76091 65.625 8.64374C70.1813 8.41874 72.5813 8.88749 74.4001 8.77499C76.2188 8.66249 81.2626 8.94374 88.5188 9.11249C95.775 9.28124 103.931 9.82499 104.119 9.99374C104.306 10.1625 104.213 26.7562 104.156 27.75ZM45.7875 107.85C45.0938 107.85 44.3813 108.787 44.3813 109.256C44.3813 109.725 45.0938 110.906 45.45 110.962C46.5 111.075 46.6125 110.494 46.9688 109.669C47.0243 109.471 47.037 109.264 47.0061 109.061C46.9752 108.858 46.9013 108.664 46.7896 108.492C46.6778 108.32 46.5306 108.174 46.3578 108.063C46.185 107.952 45.9906 107.88 45.7875 107.85ZM96.0188 12.225C94.8938 12.6937 95.3063 14.5125 95.8876 14.7375C97.163 14.6751 98.4242 14.4417 99.6376 14.0437C99.8028 15.5004 99.8842 16.9653 99.8813 18.4312C99.9938 19.2 101.756 18.7875 102.113 18.7312C102.469 18.675 102.394 16.8562 102.525 15.75C102.656 14.6437 102.994 12.5812 102.394 11.8125C101.794 11.0437 97.125 11.8125 96.0188 12.2812V12.225ZM19.725 11.9812C19.0125 11.8687 18.2438 12.3375 18.2063 12.8625C18.1688 13.3875 17.1375 25.2937 17.4375 26.25C17.7375 27.2062 19.425 26.25 19.725 25.8375C20.025 25.425 20.1375 14.2875 20.1938 13.7625C20.25 13.2375 20.4188 12.1125 19.725 11.9812Z" fill="#946D4E"/>
</svg>
