<svg width="120" height="120" viewBox="0 0 120 120" fill="none" xmlns="http://www.w3.org/2000/svg">
<path d="M88.3313 17.8875C85.8375 17.8875 51.6188 57.2625 51 57.2625C50.3813 57.2625 39.375 39.7687 36.3 37.5C33.225 35.2312 13.125 52.275 13.125 52.275C13.7438 54.15 25.9312 68.0437 34.2188 78.6749C42.5063 89.3062 50.0062 102.112 53.7562 102.112C57.5062 102.112 61.0875 96.7875 70.4625 85.3875C79.8375 73.9874 105.844 41.25 106.875 38.8312C107.906 36.4124 90.8438 17.8875 88.3313 17.8875ZM90.45 54.225C90.45 54.225 88.275 50.0062 87.75 50.0625C87.225 50.1187 86.2875 50.7 86.5312 51C87.448 52.2937 88.2095 53.6908 88.8 55.1625C88.6312 55.4437 87.3937 57.6187 87.1125 57.0375C86.8312 56.4562 85.2375 53.2875 84.7687 53.2875C84.3 53.2875 83.5312 54.3375 83.7188 54.75C83.9062 55.1625 85.5938 58.5 85.5938 58.5C85.5938 58.5 84.7312 60.3749 84.6 60.1874C83.9711 58.7269 83.2314 57.3165 82.3875 55.9687C82.0312 55.9687 80.9062 56.9812 81.0375 57.2062C81.9961 58.6817 82.8122 60.245 83.475 61.875C83.3063 62.2874 81.6 64.6312 81.4313 64.3312C80.5086 62.6358 79.4881 60.9956 78.375 59.4187C78.0938 59.4187 76.8 60.5249 77.0813 60.9375C77.3625 61.3499 80.3063 65.9812 80.025 66.3187C79.7438 66.6562 79.1438 68.85 78.4875 68.55C77.8313 68.25 75.15 62.5687 74.7375 62.5125C74.325 62.4562 73.5187 63.45 73.4625 63.6937C73.4062 63.9375 77.325 69.9562 76.9688 70.425C76.3727 71.4511 75.7152 72.4404 75 73.3874C74.7562 73.3874 70.95 66.9375 70.95 66.9375C70.95 66.9375 69.6 68.2312 69.7312 68.5125C69.8625 68.7937 73.4812 75.1312 73.4812 75.1312C73.4812 75.1312 71.9437 77.6062 71.7188 77.5312C71.4938 77.4562 68.3812 70.7437 67.8562 70.7437C67.3312 70.7437 66.675 71.3249 66.7875 71.8499C66.9 72.375 70.5375 78.7124 70.3687 79.0687C70.2 79.4249 69.075 81.8249 68.6063 81.5812C68.1375 81.3374 64.6312 74.4375 64.275 74.4375C63.9187 74.4375 62.9813 75.6562 63.225 75.9562C63.4688 76.2562 67.5 82.7625 67.2562 83.2312C66.7598 83.9312 66.2147 84.5953 65.625 85.2187L61.1063 77.3062C61.1063 77.3062 59.8875 77.9437 60.1125 78.5437C61.582 81.2545 62.8966 84.0465 64.05 86.9062C63.5926 87.6651 63.0586 88.3751 62.4563 89.0249C62.4563 89.0249 58.7062 81.1687 58.0687 81.1687C57.751 81.2224 57.4628 81.388 57.2565 81.6356C57.0502 81.8832 56.9392 82.1964 56.9438 82.5187C58.5148 85.2193 59.9479 87.9979 61.2375 90.8437C60.9938 91.2 59.5875 93.1875 59.3625 92.8875C59.1375 92.5874 55.8375 83.6999 54.9562 83.7562C54.7499 83.7898 54.5531 83.8672 54.3792 83.9833C54.2053 84.0994 54.0583 84.2514 53.9482 84.4291C53.838 84.6068 53.7672 84.806 53.7406 85.0134C53.7139 85.2207 53.7321 85.4314 53.7938 85.6312C54.0187 86.3812 58.2938 94.1249 58.0125 94.4062C57.7313 94.6874 56.8875 95.7562 56.8875 95.7562C56.8875 95.7562 51.15 87.0937 50.7938 87.0374C50.4375 86.9812 48.9188 88.0874 49.3312 88.5C51.4362 91.2519 53.3771 94.1257 55.1437 97.1062C54.9562 97.4062 54.2625 98.1562 54.0187 98.0999C53.775 98.0437 45.2062 87.45 37.5 77.1374C29.7937 66.8249 18.15 51.9937 18.15 51.9937C18.15 51.9937 34.0875 40.8562 34.8938 41.5687C35.7 42.2812 47.6813 63.4687 49.8938 63.1312C52.1063 62.7937 73.6875 38.5125 78.2625 33C82.8375 27.4875 87.6375 22.6875 88.3313 22.6875C89.025 22.6875 101.925 38.2875 101.7 38.625L90.45 54.225ZM28.875 49.5375C29.3438 49.1812 28.2188 48.1875 27.6938 48C25.7986 48.7854 24.0444 49.8747 22.5 51.2249C22.0312 51.8249 28.125 59.4937 28.125 59.4937C28.7409 59.2106 29.2951 58.8092 29.7563 58.3125C28.6354 56.1503 27.3831 54.0589 26.0062 52.05C25.65 51.6375 28.4062 49.875 28.875 49.5375ZM88.125 29.025C89.9251 31.7042 91.9647 34.2145 94.2188 36.525C94.5012 36.4759 94.7711 36.3711 95.0125 36.2166C95.254 36.062 95.4622 35.8609 95.625 35.625C95.7375 35.1562 90.2625 27.0375 89.4187 27.6562C88.9875 27.8437 87.9938 28.3125 88.125 29.025Z" fill="#946D4E"/>
</svg>
