<svg width="191" height="120" viewBox="0 0 191 120" fill="none" xmlns="http://www.w3.org/2000/svg">
<path d="M9.32397 100.284C9.60072 100.222 9.90823 100.192 10.185 100.161C12.7065 98.9604 15.3203 97.8216 17.9341 96.7443C12.276 94.3127 7.78642 88.0029 11.415 81.97C14.5823 76.6451 21.9624 75.8448 27.4668 77.6608C26.1753 75.1061 25.222 72.2436 24.73 68.8886C24.5762 67.8729 25.345 67.3496 26.1138 67.3189C26.3598 67.1957 26.6365 67.1342 26.9748 67.1957C40.5358 70.0275 50.622 80.708 52.6208 94.4051C65.3515 94.9283 78.5128 91.5118 90.6285 88.1568C103.267 84.6171 115.26 79.4461 124.915 70.4584C109.294 64.8565 92.781 61.9324 75.8989 61.84C74.8534 66.1184 71.4094 69.258 67.1351 70.4584C61.5692 71.9974 55.8496 69.9351 50.8065 67.6266C49.5149 68.3038 47.793 66.7033 48.9307 65.4413C50.4068 63.81 52.0365 62.4556 53.8201 61.3168C50.5297 58.8236 48.9307 54.4529 50.991 50.4207C52.8668 46.7579 57.2641 45.3421 60.8004 46.8811C60.3391 45.1266 60.0932 43.2798 60.0624 41.4023C60.0624 40.4173 60.862 39.8633 61.6615 39.8325C61.7845 39.8325 61.9075 39.7709 62.0305 39.7709C72.2089 40.1403 79.2508 49.0664 77.498 58.9468C106.865 59.47 134.879 68.2422 159.264 84.5555C159.448 84.4632 159.633 84.4324 159.817 84.4324C158.803 72.2128 154.59 60.9166 147.425 51.0671C147.302 51.0671 147.179 51.0363 147.056 50.9748C146.564 50.8517 146.072 50.7593 145.58 50.6362C134.141 59.8393 115.752 44.7573 107.541 37.2162C107.019 36.7545 106.957 36.1389 107.142 35.6157C106.926 34.9385 107.111 34.1074 107.91 33.7073C109.725 32.8455 111.508 32.2607 113.261 31.8297C110.832 26.5972 112.338 20.1026 117.228 16.6553C122.548 12.9002 129.651 14.1622 134.479 18.0404C134.448 16.1013 134.479 14.1621 134.663 12.1922C134.786 10.961 136.047 10.7148 136.877 11.2073C137.123 11.1457 137.431 11.2073 137.646 11.4535C138.138 12.0691 138.63 12.6539 139.122 13.2695C153.821 18.1943 159.91 34.6307 151.422 48.0815C150.992 48.7586 150.377 48.7894 149.823 48.5432C149.946 48.8202 149.946 49.0972 149.854 49.3434C157.695 60.0856 162.185 72.5822 162.923 85.9714C162.923 86.1561 162.923 86.2792 162.862 86.4331C173.747 95.39 183.003 105.701 190.691 117.613C191.736 119.214 189.338 120.968 188.292 119.367C180.851 107.825 171.902 97.76 161.355 89.0494C156.435 97.6369 141.152 96.5596 132.695 97.3291C132.726 99.6992 131.681 101.977 129.866 103.701C126.73 106.655 122.209 107.025 118.12 107.086C117.628 107.086 117.258 106.902 116.982 106.594C116.059 106.594 115.075 105.701 115.536 104.532C115.782 103.854 116.121 103.239 116.459 102.623C113.384 101.023 111.539 97.206 112.707 93.8202C113.845 90.4652 117.197 88.7416 120.518 89.0186C120.272 88.2799 120.118 87.4796 120.057 86.6793C119.534 85.9714 119.565 84.8018 120.61 84.3093C127.683 80.9543 134.725 87.1718 133.372 94.282C140.844 93.7587 154.436 94.2204 158.71 87.6643C149.055 81.0774 138.784 75.691 128.052 71.5972C117.812 81.4776 105.358 87.0795 91.7355 90.8962C78.6358 94.559 64.7365 98.1294 51.0525 97.2676C47.9774 102.069 40.136 102.9 35.0007 103.639C31.3414 104.162 27.6513 104.347 23.9305 104.255C19.8407 104.131 15.1358 102.623 11.046 102.993C10.923 103.054 10.8307 103.085 10.7077 103.147C10.308 103.331 9.93895 103.331 9.63145 103.177C7.81717 103.547 7.50967 100.623 9.35471 100.222L9.32397 100.284Z" fill="#F0E9E2"/>
<path d="M16.0274 69.5047C15.0742 70.2742 13.6597 69.8125 13.2599 68.6736C12.7679 67.227 14.3669 66.7345 15.5047 66.7961C15.7507 66.7961 15.9044 66.9192 16.0274 67.0731C16.8885 67.5964 16.8577 68.8583 16.0274 69.5047Z" fill="#F0E9E2"/>
<path d="M1.7902 78.0921C0.806179 77.9998 -0.0855932 77.1687 0.00665855 76.153C0.0681598 75.4759 0.560137 74.9834 1.17515 74.7371C1.23665 74.3985 1.51343 74.0908 1.97469 74.1831C4.31174 74.5525 4.37325 78.3383 1.7902 78.0921Z" fill="#F0E9E2"/>
<path d="M4.24998 86.8023C4.03473 86.6176 3.8195 86.433 3.60425 86.2791C2.86623 85.6635 3.78876 84.5246 4.52677 85.1094C4.74203 85.2941 4.95726 85.448 5.17251 85.6327C5.91052 86.2483 4.988 87.3871 4.24998 86.8023Z" fill="#F0E9E2"/>
<path d="M47.3625 60.6086C46.194 60.6086 45.4868 59.5929 45.5483 58.5156C45.579 57.9615 46.071 57.8076 46.5015 57.9615C47.1165 57.7153 47.7315 57.6537 48.4081 57.7461C48.7463 57.8076 48.9616 58.0847 49.0231 58.3925C49.2384 59.439 48.4696 60.5778 47.3625 60.6086Z" fill="#F0E9E2"/>
<path d="M46.163 49.4973C45.7325 50.6977 44.1027 51.0978 43.1802 50.2052C42.9034 49.9282 42.8112 49.4357 43.0572 49.1279C42.9342 48.7893 43.0572 48.3892 43.4877 48.2353C44.3795 47.9275 45.2097 48.0506 45.9785 48.6354C46.2552 48.8509 46.3167 49.1895 46.1937 49.4973H46.163Z" fill="#F0E9E2"/>
<path d="M45.8249 37.0008C45.9172 37.955 44.4412 38.1089 44.3489 37.1547C44.3489 36.9701 44.3182 36.7546 44.2874 36.5699C44.1952 35.6157 45.6712 35.4619 45.7634 36.416C45.7634 36.6007 45.7942 36.8161 45.8249 37.0008Z" fill="#F0E9E2"/>
<path d="M56.5568 41.1563C57.4486 42.449 56.157 43.8341 54.7732 43.8341C53.3895 43.8341 52.4669 42.2951 52.9897 41.0332C52.9897 41.0024 52.9897 40.9408 53.0512 40.91C53.0512 40.91 53.0512 40.8792 53.0512 40.8485C53.7892 39.5865 55.419 39.802 56.1877 40.8177C56.3107 40.9408 56.4338 41.0639 56.526 41.187L56.5568 41.1563Z" fill="#F0E9E2"/>
<path d="M123.839 6.25194C123.839 6.25194 123.685 6.49818 123.562 6.59052C122.824 7.11378 121.656 6.49817 121.471 5.66712C121.102 3.97423 124.208 3.85113 124.085 5.72869C124.085 5.97493 123.962 6.12882 123.808 6.22116L123.839 6.25194Z" fill="#F0E9E2"/>
<path d="M112.769 2.03504C112.769 3.45091 110.985 4.0973 109.909 3.32781C108.894 2.58909 108.525 0.803869 109.848 0.157493C110.524 -0.181085 111.17 0.0651387 111.57 0.526836C112.246 0.680735 112.8 1.23476 112.8 2.03504H112.769Z" fill="#F0E9E2"/>
<path d="M111.754 12.9617C111.6 13.1772 111.324 13.2695 111.078 13.2388C110.217 13.0849 109.694 12.4077 109.786 11.5151C109.817 11.0842 110.155 10.8995 110.493 10.8995C110.739 10.7456 111.016 10.6532 111.385 10.7456C112.431 11.0226 112.308 12.2846 111.785 12.9617H111.754Z" fill="#F0E9E2"/>
<path d="M106.311 19.2714C106.219 19.9485 105.604 20.441 104.958 20.5641C104.097 20.718 103.39 20.2255 102.744 19.7023C102.498 19.4868 102.406 19.1482 102.529 18.8404C102.59 18.6558 102.713 18.5326 102.836 18.4095C102.867 18.194 102.99 17.9786 103.298 17.8863C104.435 17.5169 106.588 17.5477 106.342 19.3021L106.311 19.2714Z" fill="#F0E9E2"/>
<path d="M9.32397 100.284C9.60072 100.222 9.90823 100.192 10.185 100.161C12.7065 98.9604 15.3203 97.8216 17.9341 96.7443C12.276 94.3127 7.78642 88.0029 11.415 81.97C14.5823 76.6451 21.9624 75.8448 27.4668 77.6608C26.1753 75.1061 25.222 72.2436 24.73 68.8886C24.5762 67.8729 25.345 67.3496 26.1138 67.3189C26.3598 67.1957 26.6365 67.1342 26.9748 67.1957C40.5358 70.0275 50.622 80.708 52.6208 94.4051C65.3515 94.9283 78.5128 91.5118 90.6285 88.1568C103.267 84.6171 115.26 79.4461 124.915 70.4584C109.294 64.8565 92.781 61.9324 75.8989 61.84C74.8534 66.1184 71.4094 69.258 67.1351 70.4584C61.5692 71.9974 55.8496 69.9351 50.8065 67.6266C49.5149 68.3038 47.793 66.7033 48.9307 65.4413C50.4068 63.81 52.0365 62.4556 53.8201 61.3168C50.5297 58.8236 48.9307 54.4529 50.991 50.4207C52.8668 46.7579 57.2641 45.3421 60.8004 46.8811C60.3391 45.1266 60.0932 43.2798 60.0624 41.4023C60.0624 40.4173 60.862 39.8633 61.6615 39.8325C61.7845 39.8325 61.9075 39.7709 62.0305 39.7709C72.2089 40.1403 79.2508 49.0664 77.498 58.9468C106.865 59.47 134.879 68.2422 159.264 84.5555C159.448 84.4632 159.633 84.4324 159.817 84.4324C158.803 72.2128 154.59 60.9166 147.425 51.0671C147.302 51.0671 147.179 51.0363 147.056 50.9748C146.564 50.8517 146.072 50.7593 145.58 50.6362C134.141 59.8393 115.752 44.7573 107.541 37.2162C107.019 36.7545 106.957 36.1389 107.142 35.6157C106.926 34.9385 107.111 34.1074 107.91 33.7073C109.725 32.8455 111.508 32.2607 113.261 31.8297C110.832 26.5972 112.338 20.1026 117.228 16.6553C122.548 12.9002 129.651 14.1622 134.479 18.0404C134.448 16.1013 134.479 14.1621 134.663 12.1922C134.786 10.961 136.047 10.7148 136.877 11.2073C137.123 11.1457 137.431 11.2073 137.646 11.4535C138.138 12.0691 138.63 12.6539 139.122 13.2695C153.821 18.1943 159.91 34.6307 151.422 48.0815C150.992 48.7586 150.377 48.7894 149.823 48.5432C149.946 48.8202 149.946 49.0972 149.854 49.3434C157.695 60.0856 162.185 72.5822 162.923 85.9714C162.923 86.1561 162.923 86.2792 162.862 86.4331C173.747 95.39 183.003 105.701 190.691 117.613C191.736 119.214 189.338 120.968 188.292 119.367C180.851 107.825 171.902 97.76 161.355 89.0494C156.435 97.6369 141.152 96.5596 132.695 97.3291C132.726 99.6992 131.681 101.977 129.866 103.701C126.73 106.655 122.209 107.025 118.12 107.086C117.628 107.086 117.258 106.902 116.982 106.594C116.059 106.594 115.075 105.701 115.536 104.532C115.782 103.854 116.121 103.239 116.459 102.623C113.384 101.023 111.539 97.206 112.707 93.8202C113.845 90.4652 117.197 88.7416 120.518 89.0186C120.272 88.2799 120.118 87.4796 120.057 86.6793C119.534 85.9714 119.565 84.8018 120.61 84.3093C127.683 80.9543 134.725 87.1718 133.372 94.282C140.844 93.7587 154.436 94.2204 158.71 87.6643C149.055 81.0774 138.784 75.691 128.052 71.5972C117.812 81.4776 105.358 87.0795 91.7355 90.8962C78.6358 94.559 64.7365 98.1294 51.0525 97.2676C47.9774 102.069 40.136 102.9 35.0007 103.639C31.3414 104.162 27.6513 104.347 23.9305 104.255C19.8407 104.131 15.1358 102.623 11.046 102.993C10.923 103.054 10.8307 103.085 10.7077 103.147C10.308 103.331 9.93895 103.331 9.63145 103.177C7.81717 103.547 7.50967 100.623 9.35471 100.222L9.32397 100.284ZM141.613 49.7436C139.922 49.3742 138.23 48.9741 136.539 48.6047C135.617 48.3893 135.832 46.9118 136.754 47.1273C138.077 47.4351 139.368 47.7121 140.69 48.0199C137.554 46.9118 134.387 45.8038 131.25 44.6957C130.358 44.3879 130.942 43.0028 131.834 43.3414C134.571 44.2956 137.339 45.2805 140.075 46.2347C141.275 46.6656 142.474 47.0657 143.673 47.4967C143.673 47.4351 143.673 47.3736 143.704 47.312C135.094 37.8318 123.255 30.814 110.493 35.9235C117.258 42.0179 132.173 54.2066 141.613 49.7744V49.7436ZM124.147 17.4248C124.885 17.7634 125.623 18.102 126.33 18.4713C127.191 18.8715 126.607 20.2566 125.746 19.8256C124.362 19.1793 123.009 18.5329 121.625 17.8865C121.256 17.9788 120.918 18.0712 120.549 18.2251C120.272 18.3482 120.026 18.5329 119.749 18.6868C125.469 21.5801 130.481 25.366 134.848 30.1061C135.494 30.814 134.294 31.6758 133.649 30.9679C129.343 26.2586 124.331 22.5342 118.611 19.7333C119.227 21.2415 120.057 22.5958 121.102 23.8886C121.717 24.6273 120.518 25.4891 119.903 24.7504C118.857 23.4884 118.027 22.0726 117.381 20.5951C114.952 23.4577 114.276 27.7668 116.244 31.1218C116.274 31.1834 116.274 31.2449 116.305 31.3373C125.008 30.3523 133.187 34.0459 140.075 39.7401C137.123 34.1382 135.34 28.0438 134.725 21.7032C134.387 21.734 134.048 21.6416 133.71 21.3338C131.127 18.8715 127.652 17.2709 124.147 17.4248ZM141.336 17.3632C141.336 17.3632 141.182 17.4248 141.09 17.4556C143.704 21.457 145.857 25.7046 147.517 30.26C147.855 31.1526 146.472 31.7066 146.133 30.7832C144.534 26.4125 142.474 22.3188 139.983 18.4405C140.813 20.6259 141.49 22.8728 141.982 25.2121C142.197 26.1355 140.721 26.2894 140.506 25.366C139.799 22.1957 138.784 19.1485 137.462 16.2244C137.246 27.736 141.305 38.6013 148.901 47.3735C148.839 47.0042 148.901 46.6348 149.116 46.2655C155.82 35.6464 151.822 22.6574 141.305 17.3632H141.336ZM129.866 97.6062C129.866 97.6062 129.62 97.6062 129.466 97.6062C128.974 99.9454 127.283 101.823 124.977 102.5C124.054 102.777 123.532 101.392 124.454 101.115C126.115 100.623 127.345 99.4222 127.867 97.8216C124.147 98.4988 120.949 100.776 119.073 104.131C123.347 103.885 130.174 102.5 129.866 97.6369V97.6062ZM121.072 92.1273C118.765 91.3886 115.967 92.8045 115.413 95.2361C114.921 97.3907 116.305 99.3298 118.15 100.192C120.118 97.8524 122.732 96.2211 125.623 95.3285C124.177 94.5282 122.947 93.4201 121.994 92.0966C121.717 92.1889 121.41 92.2197 121.041 92.0966L121.072 92.1273ZM123.04 86.6793C123.47 90.3114 126.268 93.297 129.866 93.7587C128.944 92.1582 127.714 90.8346 126.176 89.7881C125.377 89.234 126.33 88.0952 127.099 88.6184C128.513 89.6034 129.682 90.8038 130.604 92.1889C130.512 88.3722 126.853 85.7251 123.009 86.6485L123.04 86.6793ZM72.9469 61.6554C68.0883 60.024 62.8607 60.301 58.3096 62.3017C58.0021 62.7019 57.5409 62.9789 56.9874 62.9173C55.6651 63.5945 54.4043 64.4563 53.2358 65.4413C59.9087 68.1191 70.7329 70.2429 72.9469 61.6554ZM61.3539 50.8824C58.8939 48.3277 54.8655 48.8818 53.451 52.2368C52.1287 55.4071 54.066 58.3619 56.8336 59.7162C60.1239 58.2388 63.7217 57.5309 67.3196 57.654C67.2273 57.5616 67.135 57.5001 67.0735 57.4078C64.3367 56.7306 61.5999 56.0227 58.8631 55.3455C57.9406 55.0993 58.1559 53.6526 59.0784 53.8681L63.3835 54.9454C62.215 54.3605 61.0464 53.7449 59.8471 53.1601C58.9861 52.7292 59.5704 51.3749 60.4314 51.8058L63.7525 53.4679C63.2605 52.7292 62.8607 51.9905 62.461 51.221C62.0919 51.3134 61.7229 51.221 61.3539 50.8517V50.8824ZM63.1682 42.8489C63.814 49.8975 67.9653 55.9303 74.5152 58.8852C76.0835 50.8209 71.0711 43.9262 63.1682 42.8489ZM27.9588 81.0466C24.0227 79.2306 19.0411 79.0767 15.4433 81.8469C9.9697 86.1253 15.0128 92.5583 19.8407 94.3127C20.5479 94.559 20.7632 95.113 20.7324 95.667C23.5922 94.6205 26.5135 93.6971 29.4656 93.0815C32.2024 92.5275 34.9084 92.4044 37.6452 92.5275C35.5234 92.312 33.4017 92.2197 31.2491 92.2812C30.2959 92.2812 30.1421 90.8346 31.0954 90.8038C33.3709 90.773 35.6465 90.8654 37.922 91.0808C33.7092 90.0035 29.4963 88.9878 25.2527 88.0337C24.3302 87.8182 24.5455 86.3407 25.468 86.5562C29.7731 87.5104 34.0782 88.5569 38.3833 89.665C37.8913 89.2956 37.3992 88.9263 36.9072 88.5569C36.7535 88.5877 36.5997 88.5877 36.446 88.5261C34.8469 87.8182 33.1864 87.2642 31.4644 86.864C30.5419 86.6486 30.7571 85.1711 31.6797 85.3866C32.4484 85.5713 33.1864 85.7867 33.9552 86.0022C32.2639 84.4324 30.7571 82.7395 29.4348 80.8312C29.0658 81.139 28.5738 81.2621 28.0203 80.9851L27.9588 81.0466ZM28.0818 70.5199C30.6341 82.247 39.8593 87.5412 49.4842 93.4509C47.3317 82.247 39.152 73.4132 28.0818 70.5199ZM26.9133 101.331C31.7411 101.238 43.1496 100.961 47.5469 96.8674C41.3968 95.6978 35.3082 94.7744 29.0966 96.2211C25.0375 97.1752 21.0707 98.6219 17.1961 100.253C20.4864 100.684 23.8075 101.361 26.8825 101.3L26.9133 101.331Z" fill="#2C221E"/>
<path d="M16.0274 69.5047C15.0742 70.2742 13.6597 69.8125 13.2599 68.6736C12.7679 67.227 14.3669 66.7345 15.5047 66.7961C15.7507 66.7961 15.9044 66.9192 16.0274 67.0731C16.8885 67.5964 16.8577 68.8583 16.0274 69.5047Z" fill="#2C221E"/>
<path d="M1.7902 78.0921C0.806179 77.9998 -0.0855932 77.1687 0.00665855 76.153C0.0681598 75.4759 0.560137 74.9834 1.17515 74.7371C1.23665 74.3985 1.51343 74.0908 1.97469 74.1831C4.31174 74.5525 4.37325 78.3383 1.7902 78.0921ZM1.66717 76.3992C1.66717 76.3992 1.85166 76.3684 1.94391 76.2145C1.82091 76.2145 1.66717 76.3992 1.66717 76.3992Z" fill="#2C221E"/>
<path d="M4.24998 86.8023C4.03473 86.6176 3.8195 86.433 3.60425 86.2791C2.86623 85.6635 3.78876 84.5246 4.52677 85.1094C4.74203 85.2941 4.95726 85.448 5.17251 85.6327C5.91052 86.2483 4.988 87.3871 4.24998 86.8023Z" fill="#2C221E"/>
<path d="M47.3625 60.6086C46.194 60.6086 45.4868 59.5929 45.5483 58.5156C45.579 57.9615 46.071 57.8076 46.5015 57.9615C47.1165 57.7153 47.7315 57.6537 48.4081 57.7461C48.7463 57.8076 48.9616 58.0847 49.0231 58.3925C49.2384 59.439 48.4696 60.5778 47.3625 60.6086Z" fill="#2C221E"/>
<path d="M46.163 49.4973C45.7325 50.6977 44.1027 51.0978 43.1802 50.2052C42.9034 49.9282 42.8112 49.4357 43.0572 49.1279C42.9342 48.7893 43.0572 48.3892 43.4877 48.2353C44.3795 47.9275 45.2097 48.0506 45.9785 48.6354C46.2552 48.8509 46.3167 49.1895 46.1937 49.4973H46.163Z" fill="#2C221E"/>
<path d="M45.8249 37.0008C45.9172 37.955 44.4412 38.1089 44.3489 37.1547C44.3489 36.9701 44.3182 36.7546 44.2874 36.5699C44.1952 35.6157 45.6712 35.4619 45.7634 36.416C45.7634 36.6007 45.7942 36.8161 45.8249 37.0008Z" fill="#2C221E"/>
<path d="M56.5568 41.1563C57.4486 42.449 56.157 43.8341 54.7732 43.8341C53.3895 43.8341 52.4669 42.2951 52.9897 41.0332C52.9897 41.0024 52.9897 40.9408 53.0512 40.91C53.0512 40.91 53.0512 40.8792 53.0512 40.8485C53.7892 39.5865 55.419 39.802 56.1877 40.8177C56.3107 40.9408 56.4338 41.0639 56.526 41.187L56.5568 41.1563ZM55.3575 42.0489C55.3575 42.0489 55.3575 41.9565 55.3575 41.9258C55.296 41.8642 55.2345 41.8027 55.173 41.7103C54.9578 41.618 54.6195 41.6488 54.3735 41.7103C54.312 41.8642 54.3735 42.0489 54.5272 42.2028C54.681 42.3259 55.3883 42.3259 55.3575 42.0181V42.0489Z" fill="#2C221E"/>
<path d="M123.839 6.25194C123.839 6.25194 123.685 6.49818 123.562 6.59052C122.824 7.11378 121.656 6.49817 121.471 5.66712C121.102 3.97423 124.208 3.85113 124.085 5.72869C124.085 5.97493 123.962 6.12882 123.808 6.22116L123.839 6.25194Z" fill="#2C221E"/>
<path d="M112.769 2.03504C112.769 3.45091 110.985 4.0973 109.909 3.32781C108.894 2.58909 108.525 0.803869 109.848 0.157493C110.524 -0.181085 111.17 0.0651387 111.57 0.526836C112.246 0.680735 112.8 1.23476 112.8 2.03504H112.769Z" fill="#2C221E"/>
<path d="M111.754 12.9617C111.6 13.1772 111.324 13.2695 111.078 13.2388C110.217 13.0849 109.694 12.4077 109.786 11.5151C109.817 11.0842 110.155 10.8995 110.493 10.8995C110.739 10.7456 111.016 10.6532 111.385 10.7456C112.431 11.0226 112.308 12.2846 111.785 12.9617H111.754Z" fill="#2C221E"/>
<path d="M106.311 19.2714C106.219 19.9485 105.604 20.441 104.958 20.5641C104.097 20.718 103.39 20.2255 102.744 19.7023C102.498 19.4868 102.406 19.1482 102.529 18.8404C102.59 18.6558 102.713 18.5326 102.836 18.4095C102.867 18.194 102.99 17.9786 103.298 17.8863C104.435 17.5169 106.588 17.5477 106.342 19.3021L106.311 19.2714Z" fill="#2C221E"/>
</svg>
