<svg width="112" height="141" viewBox="0 0 112 141" fill="none" xmlns="http://www.w3.org/2000/svg">
<path d="M73.6277 4.2692C74.069 4.18086 74.5765 4.35755 74.6868 4.93177C76.5623 14.9366 77.842 24.9855 76.5402 34.9683C79.3645 27.2604 81.8358 19.4862 84.0202 11.9108C84.3291 10.8507 85.9177 11.4912 85.6309 12.5513C83.976 18.3157 82.1447 24.1905 80.1147 30.0432C82.7845 26.2223 85.5867 22.6003 88.8964 19.2433C92.9122 15.1574 100.856 7.80291 100.878 1.55267C100.878 1.13304 101.12 0.912184 101.407 0.845927C101.407 0.801756 101.407 0.779671 101.407 0.735499C101.495 -0.368783 103.216 -0.170013 103.106 0.93427C101.826 15.7758 96.0675 33.8861 78.5702 35.2333C78.4599 35.2333 78.3495 35.2333 78.2613 35.1891C75.9004 41.616 73.3188 48.0209 70.4062 54.2711C80.7987 45.3485 91.5663 34.2173 106.372 37.3314C107.453 37.5523 107.254 39.275 106.173 39.032C106.041 39.0099 105.886 38.9878 105.754 38.9658C105.688 39.1424 105.555 39.297 105.357 39.3854C98.2519 42.7203 93.3315 48.7276 87.021 53.211C81.24 57.2969 74.6647 59.5496 67.6702 60.3668C67.604 60.3668 67.5378 60.3668 67.4716 60.3668C64.4488 66.352 61.117 72.1163 57.4322 77.6157C65.5079 72.4255 73.6939 66.7495 82.3653 63.1054C91.5442 59.2625 101.65 60.1238 111.27 61.3606C112.329 61.4931 112.175 63.0612 111.204 63.0612C111.16 63.1275 111.138 63.1937 111.094 63.26C107.254 67.3458 102.4 68.9802 97.3252 71.1446C91.0147 73.8169 86.1163 78.3003 80.4898 82.077C71.9949 87.7751 62.3526 88.8793 53.7033 82.8941C48.4739 89.9395 42.5827 96.3885 35.9191 101.954C46.444 103.412 56.4393 99.8338 66.6332 97.4265C77.2684 94.9308 86.8444 95.6376 97.5017 97.7136C97.5017 97.7136 97.5237 97.7136 97.5458 97.7136C98.4063 97.7136 98.8697 98.9946 97.943 99.3259C85.344 103.677 72.37 109.662 59.1532 111.694C49.8419 113.129 40.1335 111.296 33.8671 103.809C33.823 103.765 33.823 103.699 33.7789 103.655C28.9467 107.453 23.7394 110.81 18.0909 113.615C25.6149 114.808 33.2052 116.442 39.8246 120.373C42.9357 122.229 45.8262 124.526 48.1209 127.353C51.1658 131.085 52.6221 135.789 55.7112 139.5C56.2187 140.118 55.667 140.869 55.0272 140.891C54.8948 140.957 54.7403 141.001 54.5417 140.979C46.6646 139.831 38.9199 137.468 32.0799 133.271C24.5337 128.634 21.4447 120.55 14.6929 115.228C10.3682 117.149 5.80083 118.761 0.990727 119.998C-0.0904428 120.285 -0.333144 118.562 0.725961 118.297C8.71338 116.243 15.9727 113.151 22.6141 109.286C14.8474 106.437 14.715 90.5579 14.737 84.0647C14.7591 72.0722 18.2232 60.4993 24.4676 50.3178C25.0412 49.3681 26.4313 50.384 25.8576 51.3337C25.7253 51.5325 25.637 51.7313 25.5046 51.93C25.659 52.0846 25.7694 52.3055 25.7473 52.6147C24.0263 69.9519 36.4928 90.6241 26.7623 106.702C28.8584 105.311 30.9104 103.853 32.8742 102.307C32.8963 101.866 33.2052 101.468 33.7568 101.579C36.9341 98.9946 39.9349 96.2339 42.7813 93.2744C34.6614 89.2548 32.477 79.4488 32.4109 71.0562C32.3005 58.3349 37.3975 46.254 42.9136 35.0345C43.3991 34.0407 45.0098 34.6591 44.5243 35.675C44.4802 35.7633 44.4361 35.8517 44.392 35.94C44.5244 36.0505 44.6126 36.2051 44.6126 36.448C45.1863 47.027 45.76 57.6061 46.3116 68.1851C46.7308 76.0255 46.8191 83.4242 44.9657 90.9775C47.4369 88.2389 49.7757 85.3677 52.0043 82.4082C51.7616 82.1432 51.6733 81.7015 51.8498 81.326C51.563 81.2598 51.3203 81.0389 51.2982 80.6414C50.7907 71.52 49.4007 61.8465 50.5701 52.7251C51.7174 43.6479 56.5275 35.0124 60.0358 26.6861C60.102 26.5315 60.2123 26.4211 60.3227 26.3328C60.5213 25.9794 60.8302 25.6923 61.4259 25.096C61.8672 24.6543 62.7939 25.0076 62.816 25.626C63.3455 39.5842 65.6403 55.8392 60.6757 69.3335C62.9263 65.5127 65.0225 61.5815 67.0083 57.584C67.0083 57.341 67.0745 57.0981 67.3172 56.8993C67.3172 56.8993 67.3392 56.8993 67.3613 56.8772C69.3692 52.7472 71.2447 48.5068 73.0099 44.2442C68.8617 40.7989 68.5528 35.0787 68.5087 29.9327C68.4204 21.3414 70.3842 12.971 72.8995 4.82134C73.0319 4.40172 73.3408 4.2692 73.6718 4.29129L73.6277 4.2692Z" fill="#F0E9E2"/>
<path d="M59.3735 38.6567C58.8219 49.6112 57.6966 60.4994 55.9976 71.3435C55.9094 71.8956 55.0488 71.7852 55.1371 71.2551C56.8581 60.4111 57.9614 49.5229 58.513 38.5684C58.5351 38.0162 59.3956 38.1046 59.3735 38.6567Z" fill="#2C221E"/>
<path d="M72.855 4.82134C70.3397 12.971 68.3759 21.3414 68.4641 29.9327C68.5083 35.0566 68.8172 40.7768 72.9653 44.2442C71.2222 48.5068 69.3467 52.7251 67.3168 56.8772C67.3168 56.8772 67.2947 56.8772 67.2726 56.8993C67.0299 57.0981 66.9417 57.341 66.9637 57.584C65 61.5815 62.8818 65.5127 60.6312 69.3335C65.5957 55.8392 63.301 39.5621 62.7714 25.626C62.7494 24.9855 61.8227 24.6543 61.3814 25.096C60.7856 25.6923 60.4767 26.0015 60.2781 26.3328C60.1678 26.4211 60.0575 26.5315 59.9913 26.6861C56.483 34.9903 51.695 43.6479 50.5255 52.7251C49.3561 61.8465 50.7462 71.4979 51.2537 80.6414C51.2537 81.0389 51.5185 81.2598 51.8053 81.326C51.6288 81.7015 51.717 82.1432 51.9598 82.4082C49.7312 85.3898 47.3924 88.2609 44.9211 90.9775C46.7966 83.4242 46.6863 76.0034 46.2671 68.1851C45.6934 57.6061 45.1197 47.027 44.5681 36.448C44.5681 36.2271 44.4577 36.0725 44.3474 35.94C44.3915 35.8517 44.4357 35.7633 44.4798 35.675C44.9653 34.6811 43.3545 34.0627 42.8691 35.0345C37.3529 46.254 32.278 58.3349 32.3663 71.0562C32.4325 79.4709 34.6169 89.2548 42.7367 93.2744C39.8904 96.2339 36.8896 98.9946 33.7122 101.579C33.1606 101.468 32.8517 101.866 32.8297 102.307C30.8659 103.853 28.8139 105.311 26.7177 106.702C36.4483 90.6241 23.9817 69.9519 25.7028 52.6147C25.7248 52.3276 25.6366 52.1067 25.46 51.93C25.5704 51.7313 25.6807 51.5325 25.8131 51.3337C26.3868 50.384 24.9967 49.3681 24.423 50.3178C18.1787 60.4993 14.7366 72.0722 14.6925 84.0647C14.6925 90.5579 14.8249 106.415 22.5696 109.286C15.9502 113.174 8.69089 116.243 0.681406 118.297C-0.377699 118.562 -0.134998 120.285 0.946171 119.998C5.77834 118.761 10.3237 117.149 14.6484 115.228C21.3781 120.55 24.4672 128.634 32.0353 133.271C38.8533 137.468 46.6201 139.831 54.4972 140.979C54.6958 141.001 54.8502 140.979 54.9826 140.891C55.6004 140.869 56.1741 140.118 55.6666 139.5C52.5776 135.789 51.1433 131.107 48.0764 127.353C45.7816 124.548 42.8912 122.229 39.78 120.373C33.1606 116.442 25.5924 114.808 18.0463 113.615C23.6949 110.81 28.9021 107.453 33.7343 103.655C33.7564 103.699 33.7785 103.765 33.8226 103.809C40.089 111.296 49.7974 113.151 59.1087 111.694C72.3254 109.64 85.2995 103.677 97.8984 99.3259C98.8251 98.9946 98.3618 97.7357 97.5013 97.7136C97.5013 97.7136 97.4792 97.7136 97.4571 97.7136C86.7999 95.6376 77.2238 94.9308 66.5886 97.4265C56.3947 99.8117 46.3774 103.412 35.8746 101.954C42.5381 96.3885 48.4294 89.9395 53.6587 82.8941C62.3081 88.8793 71.9503 87.7751 80.4453 82.077C86.0717 78.3003 90.9701 73.8169 97.2806 71.1446C102.333 69.0023 107.21 67.3458 111.049 63.26C111.115 63.1937 111.137 63.1275 111.159 63.0612C112.152 63.0612 112.285 61.4931 111.226 61.3606C101.605 60.1238 91.4997 59.2625 82.3208 63.1054C73.6493 66.7495 65.4633 72.4255 57.3877 77.6157C61.0725 72.1384 64.4042 66.352 67.4271 60.3668C67.4933 60.3668 67.5595 60.3888 67.6257 60.3668C74.6202 59.5496 81.1955 57.2969 86.9764 53.211C93.2869 48.7497 98.2073 42.7424 105.312 39.3854C105.533 39.275 105.643 39.1204 105.709 38.9658C105.842 38.9878 105.996 39.0099 106.129 39.032C107.21 39.2529 107.408 37.5523 106.327 37.3314C91.5438 34.2173 80.7542 45.3706 70.3617 54.2711C73.2742 48.0209 75.8558 41.6381 78.2167 35.1891C78.305 35.2112 78.4153 35.2333 78.5256 35.2333C96.0229 33.8861 101.782 15.7537 103.062 0.93427C103.15 -0.170013 101.451 -0.368783 101.363 0.735499C101.363 0.779671 101.363 0.801756 101.363 0.845927C101.054 0.912184 100.833 1.15513 100.833 1.55267C100.833 7.80291 92.8677 15.1353 88.8519 19.2433C85.5422 22.6003 82.74 26.2223 80.0702 30.0432C82.1001 24.1905 83.9094 18.3157 85.5863 12.5513C85.8952 11.4912 84.2845 10.8507 83.9756 11.9108C81.7912 19.5083 79.32 27.2604 76.4957 34.9683C77.7975 24.9855 76.5178 14.9366 74.6423 4.93177C74.5319 4.35755 74.0244 4.15878 73.5831 4.2692C73.2522 4.24712 72.9433 4.40172 72.8109 4.79926L72.855 4.82134ZM68.3979 58.5116C68.4862 58.3349 68.5524 58.1803 68.6407 58.0036C78.8345 49.7656 89.0946 37.5081 103.15 38.5903C98.2956 41.2185 94.3902 44.9289 90.1537 48.5068C83.755 53.9398 76.6722 57.341 68.3979 58.4895V58.5116ZM55.8873 82.2316C62.2419 82.0107 68.42 80.6856 74.201 77.8807C81.9677 74.104 88.1679 67.6771 96.729 65.5348C97.2586 65.4023 97.1262 64.5409 96.5966 64.6735C90.4406 66.2195 85.6305 69.7532 80.4232 73.1985C72.5682 78.4107 64.1836 81.2819 54.762 81.3923C54.8061 81.326 54.8502 81.2598 54.8944 81.1935C62.9921 76.2463 71.0016 71.012 79.32 66.4845C88.7195 61.4048 98.8252 61.5594 109.085 62.7741C105.092 66.617 99.9284 67.898 94.9859 70.1949C91.4114 71.8513 88.2341 74.082 85.1009 76.4672C76.0985 83.2696 66.3901 88.6143 55.8873 82.2095V82.2316ZM38.7651 106.084C41.7438 107.233 45.4286 107.74 47.7674 107.983C54.6516 108.668 61.7344 107.078 68.4421 105.709C68.9937 105.598 68.8613 104.737 68.3097 104.847C62.8376 105.974 57.2111 107.122 51.6067 107.21C48.4515 107.255 45.4948 106.945 42.4278 106.062C41.6997 105.863 38.5885 105.024 36.6027 104.251C36.4041 104.052 36.2276 103.831 36.0291 103.633C45.23 104.825 54.0779 102.307 63.0362 100.011C73.8038 97.2498 83.424 97.051 94.0812 98.7958C84.792 102.064 75.5248 105.598 66.0591 108.293C56.9022 110.899 46.4436 111.782 38.7209 106.062L38.7651 106.084ZM29.9833 129.738C24.7981 125.718 21.9738 119.689 17.3182 115.228C25.3056 116.464 33.4696 118.165 40.3096 122.692C46.4436 126.756 48.6942 132.697 52.5555 138.197C48.4294 136.275 45.23 133.492 41.8982 130.18C39.2063 127.507 36.4924 125.056 32.94 123.598C32.4325 123.399 32.1236 124.194 32.6311 124.393C37.1764 126.248 40.2213 129.848 43.6855 133.161C46.0906 135.436 48.6501 137.291 51.5405 138.682C43.8841 137.225 36.1394 134.486 29.9833 129.716V129.738ZM23.8273 107.873C23.8273 107.873 23.7832 107.851 23.7611 107.829C15.5089 105.554 16.0826 85.2573 16.6563 78.8304C17.3403 70.9237 19.5467 63.3483 23.055 56.3251C20.9809 70.7912 24.5995 85.3898 23.4742 99.9663C23.4301 100.518 24.2906 100.607 24.3348 100.055C25.438 85.6328 21.9076 71.1666 23.8493 56.8331C24.2906 73.7065 34.8596 93.2302 23.8273 107.873ZM43.5531 89.299L43.4648 88.5922C43.4207 88.1726 42.8911 88.1505 42.6926 88.4376C42.5822 87.3333 42.4278 86.0303 42.3396 85.6107C41.7217 82.872 41.2142 80.0892 40.795 77.3065C39.8462 71.0562 39.4711 64.7839 39.4711 58.4895C39.4711 57.9373 38.6106 57.849 38.6106 58.4011C38.6106 69.5986 40.0448 80.5972 42.9132 91.4192C33.7564 86.3837 33.3151 72.7789 34.6169 63.7017C35.8967 54.9558 39.2064 46.6957 42.9794 38.7449C43.4207 47.1375 43.8841 55.5079 44.3254 63.9005C44.7887 72.558 45.4065 80.9285 43.5531 89.3211V89.299ZM52.9527 80.3543C52.9527 80.3543 52.9527 80.1776 52.9527 80.0893C53.0189 80.1555 53.063 80.2218 53.1512 80.288C53.085 80.3322 53.0188 80.3543 52.9747 80.3985C52.9747 80.3985 52.9747 80.3764 52.9747 80.3543H52.9527ZM60.9401 28.8064C60.9401 28.8064 61.1166 28.718 61.1828 28.6738C62.0654 45.6135 64.7131 65.4906 52.9527 79.1617C52.9085 79.2058 52.9085 79.25 52.8644 79.2942C52.3348 70.6145 51.1213 61.5152 52.2245 52.9239C53.2836 44.5976 57.5642 36.5143 60.9401 28.8284V28.8064ZM79.9378 33.356C84.108 27.1941 88.9402 22.0923 93.8827 16.5267C95.8464 14.3182 98.4942 11.447 100.348 8.35505C98.097 19.95 92.5588 31.5008 79.9157 33.356H79.9378ZM70.4058 24.08C70.8913 18.7574 72.0828 13.5673 73.539 8.44339C75.4807 19.6629 76.4736 31.037 73.3184 42.1682C73.3184 42.1682 73.3184 42.1903 73.2963 42.2124C69.1261 37.8173 69.8984 29.491 70.4058 24.0579V24.08Z" fill="#2C221E"/>
</svg>
